<?xml version="1.0" standalone="no"?>
<!DOCTYPE svg PUBLIC "-//W3C//DTD SVG 1.1//EN" "http://www.w3.org/Graphics/SVG/1.1/DTD/svg11.dtd" >
<svg xmlns="http://www.w3.org/2000/svg" xmlns:xlink="http://www.w3.org/1999/xlink" version="1.1">
<metadata>
Created by FontForge 20201107 at Thu Nov 18 04:03:44 2021
 By 
Copyright 2014-2021 The Neonderthaw Project Authors (https://github.com/googlefonts/neonderthaw)
</metadata>
<defs>
<font id="Neonderthaw-Regular" horiz-adv-x="0" >
  <font-face 
    font-family="Neonderthaw"
    font-weight="400"
    font-stretch="normal"
    units-per-em="1000"
    panose-1="0 0 0 0 0 0 0 0 0 0"
    ascent="800"
    descent="-200"
    x-height="363"
    cap-height="758"
    bbox="-520 -534 2247 1152"
    underline-thickness="20"
    underline-position="-143"
    unicode-range="U+000D-FB02"
  />
<missing-glyph horiz-adv-x="505" 
d="M48 5l-8 9v592l8 10h409l8 -9v-594l-8 -8h-409zM57 21h392v579h-392v-579zM91 53v513h325v-513h-325zM159 117l88 159l89 -159l18 34l-88 159l88 160l-18 34l-89 -159l-88 159l-18 -34l87 -158l-87 -161z" />
    <glyph glyph-name="fi" unicode="fi" horiz-adv-x="724" 
d="M83 140q-4 0 -8 4.5t-1 9.5q12 25 38.5 64t62.5 84.5t77.5 91t84.5 83t83.5 60t73.5 22.5q9 0 25 1.5t16 15.5t-18.5 23.5t-36.5 9.5q-37 0 -79.5 -23.5t-87.5 -62.5t-89.5 -86t-85 -94.5t-74 -88.5t-56.5 -68q-3 -4 -8 -4t-8.5 6t0.5 11q25 28 59.5 70.5t76 91t86.5 96
t91 86.5t90.5 62.5t84.5 23.5q12 0 29.5 -5t31.5 -16.5t14 -31.5q0 -18 -10 -25.5t-24 -9.5t-27 -2q-29 0 -67 -21.5t-78.5 -57.5t-81 -80t-75.5 -88t-61 -82.5t-39 -63.5q-3 -6 -9 -6zM278 69q-27 0 -40 13t-21.5 30.5t-19.5 30.5t-32 13q-10 0 -10 10t10 10q27 0 40.5 -13
t22 -30.5t19 -30.5t31.5 -13q23 0 48 20t47 46.5t34 43.5q3 4 7 4q5 0 9.5 -5t-0.5 -11q-14 -20 -37.5 -48t-51.5 -49t-56 -21zM-105 -264q-4 0 -7.5 3t-2.5 8q4 73 30 137t64 112.5t77 76t69 27.5q22 0 32 -12.5t10 -34.5q0 -26 -13 -60.5t-36 -70.5t-52 -67t-60.5 -50
t-62.5 -19q-10 0 -10 10t10 10q29 0 61.5 22.5t63 58t51.5 75.5t27 76q1 4 1 7.5v6.5q0 28 -22 28q-24 0 -59 -25.5t-70.5 -71t-61 -106.5t-29.5 -132q0 -9 -10 -9zM-102 -314q-51 0 -71.5 25t-20.5 64q0 37 14 81t35.5 87t43.5 78.5t38 54.5q3 3 7 3q5 0 8.5 -5.5
t-1.5 -11.5q-14 -17 -35 -50.5t-41.5 -75t-34.5 -83t-14 -75.5q0 -32 16 -52t56 -20q39 0 81 18t81 49.5t70 70t49.5 80.5t18.5 82q0 10 10 10q32 0 73 13t66 32q2 2 6 2q10 0 10 -11q0 -4 -4 -7q-27 -20 -67 -33.5t-75 -15.5q-2 -42 -22 -86t-53 -84t-74 -71.5t-84.5 -50
t-85.5 -18.5zM690 402q-24 0 -41 17t-17 41q0 25 17 42t41 17q25 0 42 -17t17 -42q0 -24 -17 -41t-42 -17zM690 422q17 0 28 11t11 27q0 17 -11 28t-28 11q-16 0 -27 -11t-11 -28q0 -16 11 -27t27 -11zM555 56q-19 0 -26.5 14t-7.5 31q0 14 7 40t19.5 56.5t28.5 57t33 42.5
q9 9 19 16q10 14 10 26q0 15 -13.5 23.5t-29.5 8.5q-17 0 -26 -8q-14 -13 -29.5 -30.5t-32.5 -40.5q-18 -23 -38 -49.5t-46 -56.5q-3 -4 -8 -4t-8.5 6t0.5 11q26 29 46.5 56t37.5 49q18 23 33.5 41.5t31.5 32.5q15 14 37 14q26 0 47 -17.5t21 -40.5q0 -20 -21 -37l-5 -4
q-10 -9 -20.5 -19t-17.5 -22q-11 -23 -24.5 -50.5t-23 -54.5t-9.5 -48q0 -23 19 -23q9 0 22 5q31 13 64 41t71 77q3 4 7 4q6 0 10 -5.5t-1 -10.5q-31 -40 -57.5 -65t-61.5 -45q-19 -11 -33 -16t-25 -5zM550 -5q-49 0 -76.5 34t-23.5 84q1 15 9 42.5t20.5 56t25.5 46.5
q3 4 8 4t9 -5t-1 -11q-12 -16 -23.5 -43t-19 -53t-8.5 -39q-3 -37 18 -67t63 -30q26 0 61 15.5t76 52.5q2 2 6 2q7 0 10.5 -6.5t-2.5 -11.5q-43 -38 -81.5 -54.5t-70.5 -16.5z" />
    <glyph glyph-name="fl" unicode="fl" horiz-adv-x="728" 
d="M83 140q-4 0 -8 4.5t-1 9.5q12 25 38.5 64t62.5 84.5t77.5 91t84.5 83t83.5 60t73.5 22.5q9 0 25 1.5t16 15.5t-18.5 23.5t-36.5 9.5q-37 0 -79.5 -23.5t-87.5 -62.5t-89.5 -86t-85 -94.5t-74 -88.5t-56.5 -68q-3 -4 -8 -4t-8.5 6t0.5 11q25 28 59.5 70.5t76 91t86.5 96
t91 86.5t90.5 62.5t84.5 23.5q12 0 29.5 -5t31.5 -16.5t14 -31.5q0 -18 -10 -25.5t-24 -9.5t-27 -2q-29 0 -67 -21.5t-78.5 -57.5t-81 -80t-75.5 -88t-61 -82.5t-39 -63.5q-3 -6 -9 -6zM278 69q-27 0 -40 13t-21.5 30.5t-19.5 30.5t-32 13q-10 0 -10 10t10 10q27 0 40.5 -13
t22 -30.5t19 -30.5t31.5 -13q23 0 48 20t47 46.5t34 43.5q3 4 7 4q5 0 9.5 -5t-0.5 -11q-14 -20 -37.5 -48t-51.5 -49t-56 -21zM-105 -264q-4 0 -7.5 3t-2.5 8q4 73 30 137t64 112.5t77 76t69 27.5q22 0 32 -12.5t10 -34.5q0 -26 -13 -60.5t-36 -70.5t-52 -67t-60.5 -50
t-62.5 -19q-10 0 -10 10t10 10q29 0 61.5 22.5t63 58t51.5 75.5t27 76q1 4 1 7.5v6.5q0 28 -22 28q-24 0 -59 -25.5t-70.5 -71t-61 -106.5t-29.5 -132q0 -9 -10 -9zM-102 -314q-51 0 -71.5 25t-20.5 64q0 37 14 81t35.5 87t43.5 78.5t38 54.5q3 3 7 3q5 0 8.5 -5.5
t-1.5 -11.5q-14 -17 -35 -50.5t-41.5 -75t-34.5 -83t-14 -75.5q0 -32 16 -52t56 -20q39 0 81 18t81 49.5t70 70t49.5 80.5t18.5 82q0 10 10 10q32 0 73 13t66 32q2 2 6 2q10 0 10 -11q0 -4 -4 -7q-27 -20 -67 -33.5t-75 -15.5q-2 -42 -22 -86t-53 -84t-74 -71.5t-84.5 -50
t-85.5 -18.5zM415 182q-5 0 -8.5 6t0.5 11q20 23 37 48t33 50q27 40 59.5 86t70 91t77.5 82.5t81 60.5q35 19 61 19t39.5 -16.5t13.5 -42.5q0 -12 -2.5 -24.5t-8.5 -26.5q-3 -7 -22.5 -30.5t-48.5 -57t-61.5 -69.5t-62.5 -69t-51.5 -55t-27.5 -27q-3 -3 -6 -3q-11 0 -11 12
q0 3 4 7q6 5 27 27t51 54t62 67.5t60.5 68t47.5 55.5t21 28q10 23 10 44q0 17 -8.5 27.5t-25.5 10.5q-21 0 -51 -17q-39 -22 -78 -58.5t-76 -81t-69 -89.5t-58 -84q-17 -25 -34 -51t-37 -49q-3 -4 -8 -4zM518 62q-31 0 -43.5 13t-12.5 32q0 20 9.5 43.5t19.5 40.5
q15 26 41 62t57.5 75.5t64 76.5t61.5 65.5t48 42.5q2 2 6 2q10 0 10 -10q0 -5 -4 -8q-19 -13 -47 -41t-60 -64.5t-63.5 -75.5t-57 -74t-39.5 -61q-7 -13 -17 -33t-10 -37q0 -13 8 -21t29 -8q27 0 62.5 13t72.5 39.5t68 65.5q3 4 7 4q6 0 9.5 -5.5t-1.5 -11.5
q-32 -41 -71 -69t-77.5 -42t-69.5 -14zM509 0q-50 0 -84.5 21.5t-34.5 63.5q0 11 10 11t10 -11q0 -28 29.5 -46.5t75.5 -18.5q38 0 83.5 16t89.5 53q2 2 6 2q10 0 10 -10q0 -5 -4 -8q-43 -37 -94 -55t-97 -18z" />
    <glyph glyph-name="f_f" unicode="ff" horiz-adv-x="830" 
d="M83 140q-4 0 -8 4.5t-1 9.5q12 25 38.5 64t62.5 84.5t77.5 91t84.5 83t83.5 60t73.5 22.5q9 0 25 1.5t16 15.5t-18.5 23.5t-36.5 9.5q-37 0 -79.5 -23.5t-87.5 -62.5t-89.5 -86t-85 -94.5t-74 -88.5t-56.5 -68q-3 -4 -8 -4t-8.5 6t0.5 11q25 28 59.5 70.5t76 91t86.5 96
t91 86.5t90.5 62.5t84.5 23.5q12 0 29.5 -5t31.5 -16.5t14 -31.5q0 -18 -10 -25.5t-24 -9.5t-27 -2q-29 0 -67 -21.5t-78.5 -57.5t-81 -80t-75.5 -88t-61 -82.5t-39 -63.5q-3 -6 -9 -6zM278 69q-27 0 -40 13t-21.5 30.5t-19.5 30.5t-32 13q-10 0 -10 10t10 10q27 0 40.5 -13
t22 -30.5t19 -30.5t31.5 -13q23 0 48 20t47 46.5t34 43.5q3 4 7 4q5 0 9.5 -5t-0.5 -11q-14 -20 -37.5 -48t-51.5 -49t-56 -21zM-105 -264q-4 0 -7.5 3t-2.5 8q4 73 30 137t64 112.5t77 76t69 27.5q22 0 32 -12.5t10 -34.5q0 -26 -13 -60.5t-36 -70.5t-52 -67t-60.5 -50
t-62.5 -19q-10 0 -10 10t10 10q29 0 61.5 22.5t63 58t51.5 75.5t27 76q1 4 1 7.5v6.5q0 28 -22 28q-24 0 -59 -25.5t-70.5 -71t-61 -106.5t-29.5 -132q0 -9 -10 -9zM-102 -314q-51 0 -71.5 25t-20.5 64q0 37 14 81t35.5 87t43.5 78.5t38 54.5q3 3 7 3q5 0 8.5 -5.5
t-1.5 -11.5q-14 -17 -35 -50.5t-41.5 -75t-34.5 -83t-14 -75.5q0 -32 16 -52t56 -20q39 0 81 18t81 49.5t70 70t49.5 80.5t18.5 82q0 10 10 10q32 0 73 13t66 32q2 2 6 2q10 0 10 -11q0 -4 -4 -7q-27 -20 -67 -33.5t-75 -15.5q-2 -42 -22 -86t-53 -84t-74 -71.5t-84.5 -50
t-85.5 -18.5zM498 140q-4 0 -8 4.5t-1 9.5q12 25 38.5 64t62.5 84.5t77.5 91t84.5 83t83.5 60t73.5 22.5q9 0 25 1.5t16 15.5t-18.5 23.5t-36.5 9.5q-37 0 -79.5 -23.5t-87.5 -62.5t-89.5 -86t-85 -94.5t-74 -88.5t-56.5 -68q-3 -4 -8 -4t-8.5 6t0.5 11q25 28 59.5 70.5
t76 91t86.5 96t91 86.5t90.5 62.5t84.5 23.5q12 0 29.5 -5t31.5 -16.5t14 -31.5q0 -18 -10 -25.5t-24 -9.5t-27 -2q-29 0 -67 -21.5t-78.5 -57.5t-81 -80t-75.5 -88t-61 -82.5t-39 -63.5q-3 -6 -9 -6zM693 69q-27 0 -40 13t-21.5 30.5t-19.5 30.5t-32 13q-10 0 -10 10t10 10
q27 0 40.5 -13t22 -30.5t19 -30.5t31.5 -13q23 0 48 20t47 46.5t34 43.5q3 4 7 4q5 0 9.5 -5t-0.5 -11q-14 -20 -37.5 -48t-51.5 -49t-56 -21zM310 -264q-4 0 -7.5 3t-2.5 8q4 73 30 137t64 112.5t77 76t69 27.5q22 0 32 -12.5t10 -34.5q0 -26 -13 -60.5t-36 -70.5t-52 -67
t-60.5 -50t-62.5 -19q-10 0 -10 10t10 10q29 0 61.5 22.5t63 58t51.5 75.5t27 76q1 4 1 7.5v6.5q0 28 -22 28q-24 0 -59 -25.5t-70.5 -71t-61 -106.5t-29.5 -132q0 -9 -10 -9zM313 -314q-51 0 -71.5 25t-20.5 64q0 37 14 81t35.5 87t43.5 78.5t38 54.5q3 3 7 3q5 0 8.5 -5.5
t-1.5 -11.5q-14 -17 -35 -50.5t-41.5 -75t-34.5 -83t-14 -75.5q0 -32 16 -52t56 -20q39 0 81 18t81 49.5t70 70t49.5 80.5t18.5 82q0 10 10 10q32 0 73 13t66 32q2 2 6 2q10 0 10 -11q0 -4 -4 -7q-27 -20 -67 -33.5t-75 -15.5q-2 -42 -22 -86t-53 -84t-74 -71.5t-84.5 -50
t-85.5 -18.5z" />
    <glyph glyph-name="f_f_i" unicode="ffi" horiz-adv-x="1139" 
d="M83 140q-4 0 -8 4.5t-1 9.5q12 25 38.5 64t62.5 84.5t77.5 91t84.5 83t83.5 60t73.5 22.5q9 0 25 1.5t16 15.5t-18.5 23.5t-36.5 9.5q-37 0 -79.5 -23.5t-87.5 -62.5t-89.5 -86t-85 -94.5t-74 -88.5t-56.5 -68q-3 -4 -8 -4t-8.5 6t0.5 11q25 28 59.5 70.5t76 91t86.5 96
t91 86.5t90.5 62.5t84.5 23.5q12 0 29.5 -5t31.5 -16.5t14 -31.5q0 -18 -10 -25.5t-24 -9.5t-27 -2q-29 0 -67 -21.5t-78.5 -57.5t-81 -80t-75.5 -88t-61 -82.5t-39 -63.5q-3 -6 -9 -6zM278 69q-27 0 -40 13t-21.5 30.5t-19.5 30.5t-32 13q-10 0 -10 10t10 10q27 0 40.5 -13
t22 -30.5t19 -30.5t31.5 -13q23 0 48 20t47 46.5t34 43.5q3 4 7 4q5 0 9.5 -5t-0.5 -11q-14 -20 -37.5 -48t-51.5 -49t-56 -21zM-105 -264q-4 0 -7.5 3t-2.5 8q4 73 30 137t64 112.5t77 76t69 27.5q22 0 32 -12.5t10 -34.5q0 -26 -13 -60.5t-36 -70.5t-52 -67t-60.5 -50
t-62.5 -19q-10 0 -10 10t10 10q29 0 61.5 22.5t63 58t51.5 75.5t27 76q1 4 1 7.5v6.5q0 28 -22 28q-24 0 -59 -25.5t-70.5 -71t-61 -106.5t-29.5 -132q0 -9 -10 -9zM-102 -314q-51 0 -71.5 25t-20.5 64q0 37 14 81t35.5 87t43.5 78.5t38 54.5q3 3 7 3q5 0 8.5 -5.5
t-1.5 -11.5q-14 -17 -35 -50.5t-41.5 -75t-34.5 -83t-14 -75.5q0 -32 16 -52t56 -20q39 0 81 18t81 49.5t70 70t49.5 80.5t18.5 82q0 10 10 10q32 0 73 13t66 32q2 2 6 2q10 0 10 -11q0 -4 -4 -7q-27 -20 -67 -33.5t-75 -15.5q-2 -42 -22 -86t-53 -84t-74 -71.5t-84.5 -50
t-85.5 -18.5zM498 140q-4 0 -8 4.5t-1 9.5q12 25 38.5 64t62.5 84.5t77.5 91t84.5 83t83.5 60t73.5 22.5q9 0 25 1.5t16 15.5t-18.5 23.5t-36.5 9.5q-37 0 -79.5 -23.5t-87.5 -62.5t-89.5 -86t-85 -94.5t-74 -88.5t-56.5 -68q-3 -4 -8 -4t-8.5 6t0.5 11q25 28 59.5 70.5
t76 91t86.5 96t91 86.5t90.5 62.5t84.5 23.5q12 0 29.5 -5t31.5 -16.5t14 -31.5q0 -18 -10 -25.5t-24 -9.5t-27 -2q-29 0 -67 -21.5t-78.5 -57.5t-81 -80t-75.5 -88t-61 -82.5t-39 -63.5q-3 -6 -9 -6zM693 69q-27 0 -40 13t-21.5 30.5t-19.5 30.5t-32 13q-10 0 -10 10t10 10
q27 0 40.5 -13t22 -30.5t19 -30.5t31.5 -13q23 0 48 20t47 46.5t34 43.5q3 4 7 4q5 0 9.5 -5t-0.5 -11q-14 -20 -37.5 -48t-51.5 -49t-56 -21zM310 -264q-4 0 -7.5 3t-2.5 8q4 73 30 137t64 112.5t77 76t69 27.5q22 0 32 -12.5t10 -34.5q0 -26 -13 -60.5t-36 -70.5t-52 -67
t-60.5 -50t-62.5 -19q-10 0 -10 10t10 10q29 0 61.5 22.5t63 58t51.5 75.5t27 76q1 4 1 7.5v6.5q0 28 -22 28q-24 0 -59 -25.5t-70.5 -71t-61 -106.5t-29.5 -132q0 -9 -10 -9zM313 -314q-51 0 -71.5 25t-20.5 64q0 37 14 81t35.5 87t43.5 78.5t38 54.5q3 3 7 3q5 0 8.5 -5.5
t-1.5 -11.5q-14 -17 -35 -50.5t-41.5 -75t-34.5 -83t-14 -75.5q0 -32 16 -52t56 -20q39 0 81 18t81 49.5t70 70t49.5 80.5t18.5 82q0 10 10 10q32 0 73 13t66 32q2 2 6 2q10 0 10 -11q0 -4 -4 -7q-27 -20 -67 -33.5t-75 -15.5q-2 -42 -22 -86t-53 -84t-74 -71.5t-84.5 -50
t-85.5 -18.5zM1105 402q-24 0 -41 17t-17 41q0 25 17 42t41 17q25 0 42 -17t17 -42q0 -24 -17 -41t-42 -17zM1105 422q17 0 28 11t11 27q0 17 -11 28t-28 11q-16 0 -27 -11t-11 -28q0 -16 11 -27t27 -11zM970 56q-19 0 -26.5 14t-7.5 31q0 14 7 40t19.5 56.5t28.5 57
t33 42.5q9 9 19 16q10 14 10 26q0 15 -13.5 23.5t-29.5 8.5q-17 0 -26 -8q-14 -13 -29.5 -30.5t-32.5 -40.5q-18 -23 -38 -49.5t-46 -56.5q-3 -4 -8 -4t-8.5 6t0.5 11q26 29 46.5 56t37.5 49q18 23 33.5 41.5t31.5 32.5q15 14 37 14q26 0 47 -17.5t21 -40.5q0 -20 -21 -37
l-5 -4q-10 -9 -20.5 -19t-17.5 -22q-11 -23 -24.5 -50.5t-23 -54.5t-9.5 -48q0 -23 19 -23q9 0 22 5q31 13 64 41t71 77q3 4 7 4q6 0 10 -5.5t-1 -10.5q-31 -40 -57.5 -65t-61.5 -45q-19 -11 -33 -16t-25 -5zM965 -5q-49 0 -76.5 34t-23.5 84q1 15 9 42.5t20.5 56t25.5 46.5
q3 4 8 4t9 -5t-1 -11q-12 -16 -23.5 -43t-19 -53t-8.5 -39q-3 -37 18 -67t63 -30q26 0 61 15.5t76 52.5q2 2 6 2q7 0 10.5 -6.5t-2.5 -11.5q-43 -38 -81.5 -54.5t-70.5 -16.5z" />
    <glyph glyph-name="f_f_l" unicode="ffl" horiz-adv-x="1143" 
d="M83 140q-4 0 -8 4.5t-1 9.5q12 25 38.5 64t62.5 84.5t77.5 91t84.5 83t83.5 60t73.5 22.5q9 0 25 1.5t16 15.5t-18.5 23.5t-36.5 9.5q-37 0 -79.5 -23.5t-87.5 -62.5t-89.5 -86t-85 -94.5t-74 -88.5t-56.5 -68q-3 -4 -8 -4t-8.5 6t0.5 11q25 28 59.5 70.5t76 91t86.5 96
t91 86.5t90.5 62.5t84.5 23.5q12 0 29.5 -5t31.5 -16.5t14 -31.5q0 -18 -10 -25.5t-24 -9.5t-27 -2q-29 0 -67 -21.5t-78.5 -57.5t-81 -80t-75.5 -88t-61 -82.5t-39 -63.5q-3 -6 -9 -6zM278 69q-27 0 -40 13t-21.5 30.5t-19.5 30.5t-32 13q-10 0 -10 10t10 10q27 0 40.5 -13
t22 -30.5t19 -30.5t31.5 -13q23 0 48 20t47 46.5t34 43.5q3 4 7 4q5 0 9.5 -5t-0.5 -11q-14 -20 -37.5 -48t-51.5 -49t-56 -21zM-105 -264q-4 0 -7.5 3t-2.5 8q4 73 30 137t64 112.5t77 76t69 27.5q22 0 32 -12.5t10 -34.5q0 -26 -13 -60.5t-36 -70.5t-52 -67t-60.5 -50
t-62.5 -19q-10 0 -10 10t10 10q29 0 61.5 22.5t63 58t51.5 75.5t27 76q1 4 1 7.5v6.5q0 28 -22 28q-24 0 -59 -25.5t-70.5 -71t-61 -106.5t-29.5 -132q0 -9 -10 -9zM-102 -314q-51 0 -71.5 25t-20.5 64q0 37 14 81t35.5 87t43.5 78.5t38 54.5q3 3 7 3q5 0 8.5 -5.5
t-1.5 -11.5q-14 -17 -35 -50.5t-41.5 -75t-34.5 -83t-14 -75.5q0 -32 16 -52t56 -20q39 0 81 18t81 49.5t70 70t49.5 80.5t18.5 82q0 10 10 10q32 0 73 13t66 32q2 2 6 2q10 0 10 -11q0 -4 -4 -7q-27 -20 -67 -33.5t-75 -15.5q-2 -42 -22 -86t-53 -84t-74 -71.5t-84.5 -50
t-85.5 -18.5zM498 140q-4 0 -8 4.5t-1 9.5q12 25 38.5 64t62.5 84.5t77.5 91t84.5 83t83.5 60t73.5 22.5q9 0 25 1.5t16 15.5t-18.5 23.5t-36.5 9.5q-37 0 -79.5 -23.5t-87.5 -62.5t-89.5 -86t-85 -94.5t-74 -88.5t-56.5 -68q-3 -4 -8 -4t-8.5 6t0.5 11q25 28 59.5 70.5
t76 91t86.5 96t91 86.5t90.5 62.5t84.5 23.5q12 0 29.5 -5t31.5 -16.5t14 -31.5q0 -18 -10 -25.5t-24 -9.5t-27 -2q-29 0 -67 -21.5t-78.5 -57.5t-81 -80t-75.5 -88t-61 -82.5t-39 -63.5q-3 -6 -9 -6zM693 69q-27 0 -40 13t-21.5 30.5t-19.5 30.5t-32 13q-10 0 -10 10t10 10
q27 0 40.5 -13t22 -30.5t19 -30.5t31.5 -13q23 0 48 20t47 46.5t34 43.5q3 4 7 4q5 0 9.5 -5t-0.5 -11q-14 -20 -37.5 -48t-51.5 -49t-56 -21zM310 -264q-4 0 -7.5 3t-2.5 8q4 73 30 137t64 112.5t77 76t69 27.5q22 0 32 -12.5t10 -34.5q0 -26 -13 -60.5t-36 -70.5t-52 -67
t-60.5 -50t-62.5 -19q-10 0 -10 10t10 10q29 0 61.5 22.5t63 58t51.5 75.5t27 76q1 4 1 7.5v6.5q0 28 -22 28q-24 0 -59 -25.5t-70.5 -71t-61 -106.5t-29.5 -132q0 -9 -10 -9zM313 -314q-51 0 -71.5 25t-20.5 64q0 37 14 81t35.5 87t43.5 78.5t38 54.5q3 3 7 3q5 0 8.5 -5.5
t-1.5 -11.5q-14 -17 -35 -50.5t-41.5 -75t-34.5 -83t-14 -75.5q0 -32 16 -52t56 -20q39 0 81 18t81 49.5t70 70t49.5 80.5t18.5 82q0 10 10 10q32 0 73 13t66 32q2 2 6 2q10 0 10 -11q0 -4 -4 -7q-27 -20 -67 -33.5t-75 -15.5q-2 -42 -22 -86t-53 -84t-74 -71.5t-84.5 -50
t-85.5 -18.5zM830 182q-5 0 -8.5 6t0.5 11q20 23 37 48t33 50q27 40 59.5 86t70 91t77.5 82.5t81 60.5q35 19 61 19t39.5 -16.5t13.5 -42.5q0 -12 -2.5 -24.5t-8.5 -26.5q-3 -7 -22.5 -30.5t-48.5 -57t-61.5 -69.5t-62.5 -69t-51.5 -55t-27.5 -27q-3 -3 -6 -3q-11 0 -11 12
q0 3 4 7q6 5 27 27t51 54t62 67.5t60.5 68t47.5 55.5t21 28q10 23 10 44q0 17 -8.5 27.5t-25.5 10.5q-21 0 -51 -17q-39 -22 -78 -58.5t-76 -81t-69 -89.5t-58 -84q-17 -25 -34 -51t-37 -49q-3 -4 -8 -4zM933 62q-31 0 -43.5 13t-12.5 32q0 20 9.5 43.5t19.5 40.5
q15 26 41 62t57.5 75.5t64 76.5t61.5 65.5t48 42.5q2 2 6 2q10 0 10 -10q0 -5 -4 -8q-19 -13 -47 -41t-60 -64.5t-63.5 -75.5t-57 -74t-39.5 -61q-7 -13 -17 -33t-10 -37q0 -13 8 -21t29 -8q27 0 62.5 13t72.5 39.5t68 65.5q3 4 7 4q6 0 9.5 -5.5t-1.5 -11.5
q-32 -41 -71 -69t-77.5 -42t-69.5 -14zM924 0q-50 0 -84.5 21.5t-34.5 63.5q0 11 10 11t10 -11q0 -28 29.5 -46.5t75.5 -18.5q38 0 83.5 16t89.5 53q2 2 6 2q10 0 10 -10q0 -5 -4 -8q-43 -37 -94 -55t-97 -18z" />
    <glyph glyph-name=".notdef" horiz-adv-x="505" 
d="M48 5l-8 9v592l8 10h409l8 -9v-594l-8 -8h-409zM57 21h392v579h-392v-579zM91 53v513h325v-513h-325zM159 117l88 159l89 -159l18 34l-88 159l88 160l-18 34l-89 -159l-88 159l-18 -34l87 -158l-87 -161z" />
    <glyph glyph-name=".null" 
 />
    <glyph glyph-name="nonmarkingreturn" horiz-adv-x="333" 
 />
    <glyph glyph-name="CR" unicode="&#xd;" 
 />
    <glyph glyph-name="space" unicode=" " horiz-adv-x="237" 
 />
    <glyph glyph-name="exclam" unicode="!" horiz-adv-x="241" 
d="M79 165q-5 0 -8.5 4t-0.5 11q58 127 90.5 209.5t39.5 101.5q10 24 30.5 35.5t40.5 11.5t35 -10t15 -29q0 -12 -7 -26q-13 -25 -51 -87.5t-88 -164.5q-3 -6 -9 -6q-4 0 -8 4.5t-1 10.5q61 124 102.5 189t41.5 79q0 10 -8 15t-20 5q-15 0 -31 -8.5t-24 -26.5
q-7 -19 -39 -101.5t-91 -210.5q-3 -6 -9 -6zM-5 0q-19 16 -19 38q0 20 13.5 33t32.5 13q20 0 33.5 -13t13.5 -33q0 -19 -13 -32q-3 -3 -7 -3q-5 0 -8.5 5.5t1.5 11.5q7 9 7 18q0 11 -7.5 18.5t-18.5 7.5t-19 -7.5t-8 -18.5q0 -15 11 -21q4 -3 4 -8t-5 -9t-11 0z" />
    <glyph glyph-name="quotedbl" unicode="&#x22;" horiz-adv-x="274" 
d="M206 381q-8 0 -6 10q2 9 11 9q11 2 24 10.5t20 23.5l3 5q1 1 1 2l2 3q4 6 16 31.5t44 89.5q4 8 4 15q0 14 -19 14q-12 0 -26.5 -8t-22.5 -25q-4 -8 -12 -8q-4 0 -7 3.5t0 8.5q12 25 33.5 37t40.5 12q14 0 24 -7t10 -21q0 -3 -0.5 -6t-1.5 -7q-1 -3 -1.5 -6t-2.5 -6
q-3 -5 -10.5 -21t-17 -36.5t-19.5 -39t-17 -29.5v-2l-2 -3q-10 -22 -29.5 -34.5t-36.5 -14.5h-2zM42 381q-8 0 -6 10q2 9 11 9q11 2 24 10.5t20 23.5l3 5q1 1 1 2l2 3q4 6 16.5 31.5t43.5 89.5q4 8 4 15q0 14 -19 14q-13 0 -27.5 -8t-22.5 -25q-4 -8 -12 -8q-4 0 -6.5 3.5
t0.5 8.5q12 25 33.5 37t40.5 12q14 0 24 -7t10 -21q0 -3 -0.5 -6t-1.5 -7q-1 -3 -1.5 -6t-2.5 -6q-3 -5 -10.5 -21t-17 -36.5t-19.5 -39t-17 -29.5l-1 -2l-1 -3q-10 -22 -29.5 -34.5t-36.5 -14.5h-2z" />
    <glyph glyph-name="numbersign" unicode="#" horiz-adv-x="492" 
d="M283 287q-10 0 -10 10v237q0 14 -9 21t-20 7t-20 -7t-9 -21v-175q0 -10 -10 -10t-10 10v175q0 24 15.5 36t33.5 12t33.5 -12t15.5 -36v-237q0 -10 -10 -10zM456 287q-10 0 -10 10v237q0 14 -8.5 21t-19.5 7t-20 -7t-9 -21v-175q0 -10 -10 -10t-10 10v175q0 24 15.5 36
t33.5 12q17 0 32.5 -12t15.5 -36v-237q0 -10 -10 -10zM64 296q-24 0 -36 15.5t-12 33.5t12 33.5t36 15.5l113 -1q10 0 10 -10t-10 -10l-113 1q-14 0 -21 -9t-7 -20t7 -20t21 -9h109q10 0 10 -10t-10 -10h-109zM481 296q-10 0 -10 10t10 10h117q14 0 21 8.5t7 19.5t-7 20
t-22 9h-98q-10 0 -10 10t10 10h99q24 0 36 -15.5t12 -33.5q0 -17 -12 -32.5t-37 -15.5h-116zM244 -19q-18 0 -33.5 12t-15.5 36v232q0 11 10 11t10 -11v-232q0 -14 9 -21t20 -7t20 7t9 21v183q0 10 10 10t10 -10v-183q0 -24 -15.5 -36t-33.5 -12zM418 -19q-18 0 -33.5 12
t-15.5 36v232q0 11 10 11t10 -11v-232q0 -14 9 -21t20 -7t19.5 7t8.5 21v183q0 10 10 10t10 -10v-183q0 -24 -15.5 -36t-32.5 -12zM64 122q-24 0 -36 15.5t-12 33.5q0 17 12 32.5t36 15.5h113q10 0 10 -10t-10 -10h-113q-14 0 -21 -8.5t-7 -19.5t7 -20t21 -9h109
q10 0 10 -10t-10 -10h-109zM481 122q-10 0 -10 10t10 10h117q14 0 21 8.5t7 19.5t-7 20t-22 9h-98q-10 0 -10 10t10 10h99q24 0 36 -15.5t12 -33.5t-12 -33t-37 -15h-116z" />
    <glyph glyph-name="dollar" unicode="$" horiz-adv-x="767" 
d="M348 -62q-5 0 -8 3.5t-3 7.5t2.5 7.5t7.5 3.5q58 5 112.5 20t98 40t69.5 57t26 71q0 56 -54 95t-166 66q-71 17 -101 41t-30 49q0 26 26 51.5t63 43.5q26 12 60.5 19t85.5 9q2 1 4 1q10 0 10 -11q0 -4 -3 -9q-30 -49 -30 -55q0 -9 9 -20q8 -7 10 -7.5t6 3.5q16 22 52 85
l2 2q4 7 12 4q35 -13 57 -36t26 -38q3 -17 9 -17q17 0 19 15q4 35 -23.5 64.5t-68.5 39.5q-7 3 -7 10q0 4 2 7v0q6 10 11 19.5t9 17.5q7 11 7 20t-8 17q-12 9 -18 6q-3 -3 -12.5 -19t-18.5 -31.5t-11 -17.5q-4 -6 -10 -6t-9.5 5.5t0.5 12.5q15 22 27 43.5t22 28.5q11 7 18 7
q14 0 27 -15q14 -11 14 -31q0 -12 -8 -30q-4 -6 -7.5 -12.5t-7.5 -14.5q43 -16 70 -49.5t23 -73.5q-1 -14 -13.5 -23.5t-26.5 -9.5q-10 0 -18 6t-10 19q-2 20 -22.5 37.5t-40.5 26.5q-15 -26 -28.5 -48t-22.5 -33q-9 -14 -21 -14q-11 0 -27 16q-14 16 -14 34q0 7 6 19
q3 5 8.5 15.5t10.5 19.5l-4 -1q-69 -3 -119 -27q-33 -16 -54.5 -34.5t-21.5 -38.5q0 -19 26.5 -37.5t88.5 -33.5q236 -57 236 -182q0 -45 -28.5 -82t-76 -64t-105.5 -43t-116 -21zM255 -158q-13 0 -27 15q-14 11 -14 31q0 12 8 30q15 28 35 63.5t39 66.5t30 45q9 14 21 14
q11 0 27 -16q14 -16 14 -34q0 -7 -6 -19q-3 -5 -7.5 -14t-9.5 -17q55 10 106.5 28.5t84 45t32.5 59.5q0 39 -52 72t-152 56q-79 20 -113 51t-34 65q0 41 37 80.5t90 66.5q31 16 74 25t77 8q10 0 10 -11q0 -4 -2.5 -7.5t-7.5 -3.5q-35 2 -75 -7t-67 -23q-51 -25 -83 -58
t-32 -66q0 -30 30.5 -56t100.5 -43q220 -53 220 -149q0 -34 -24.5 -61t-64 -46.5t-85 -32t-88.5 -18.5h-2h-1v0q-10 0 -10 11v0v1v1q0 1 1 2q0 3 2 5q30 50 30 55q0 10 -9 20q-7 8 -9.5 8.5t-6.5 -4.5q-10 -13 -28 -43.5t-37.5 -66t-34.5 -63.5q-7 -11 -7 -20t8 -17
q13 -9 18 -6q3 4 12.5 19.5l19 31t10.5 17.5q5 6 10 6q6 0 9.5 -5t-0.5 -13q-15 -22 -27 -43t-22 -29q-10 -7 -18 -7zM207 -51q-84 14 -118.5 41.5t-34.5 58.5q0 30 22.5 59.5t57.5 54.5t72.5 40t67.5 15q23 0 33.5 -8.5t10.5 -19.5q0 -12 -12 -23t-34 -14q-34 -3 -63.5 -17
t-47.5 -33.5t-18 -38.5q0 -17 17.5 -31t57.5 -19q13 0 13 -10q0 -4 -4 -7.5t-12 -2.5q-49 7 -71 25.5t-22 41.5q0 24 20 48.5t53.5 42.5t75.5 23q13 2 20 7t7 9q0 10 -21 10q-26 0 -60 -13.5t-66.5 -35.5t-53.5 -47.5t-21 -51.5q0 -25 30 -47.5t103 -35.5q10 0 10 -10
q0 -4 -3.5 -8t-8.5 -3z" />
    <glyph glyph-name="percent" unicode="%" horiz-adv-x="562" 
d="M266 570q-5 0 -8.5 5t0.5 11q26 38 26 74q0 25 -15.5 41t-46.5 16q-45 0 -89.5 -38.5t-85.5 -98.5q-3 -5 -8 -5t-8.5 5t0.5 11q41 60 89 103t102 43q45 0 63.5 -21.5t18.5 -51.5q0 -22 -8 -45.5t-22 -43.5q-3 -5 -8 -5zM28 9q-5 0 -9 4.5t0 10.5q19 30 50.5 78.5
t70.5 108t81 122.5t82.5 124t74.5 112.5t57.5 87.5t31.5 49q10 16 23.5 22.5t27.5 6.5q21 0 37.5 -13t16.5 -33q0 -15 -10 -29q-16 -25 -48 -73.5t-73.5 -111t-86.5 -129.5t-87 -130.5t-75.5 -114.5t-51.5 -80q-2 -5 -8 -5q-5 0 -9 4.5t0 10.5q18 29 51.5 80t76 114.5
t87 131t86 130t73.5 111t48 73.5q6 11 6 18q0 12 -9.5 19t-22.5 7q-10 0 -19 -4t-16 -15q-8 -13 -31.5 -49t-57.5 -87.5t-74.5 -112.5t-82.5 -124.5t-81 -122.5t-70.5 -107.5t-50.5 -78.5q-3 -5 -8 -5zM115 474q-17 0 -26.5 12t-9.5 30q0 23 14 51.5t35.5 54t46.5 42
t46 16.5q11 0 11 -10q0 -4 -2.5 -7.5t-7.5 -2.5q-16 1 -37 -13.5t-40.5 -37.5t-32.5 -48t-13 -45q0 -22 15 -22q11 0 25 9t26 20.5t17 18.5q3 5 8 5t9 -4.5t0 -10.5q-10 -18 -34 -38t-50 -20zM245 539q-26 0 -45 15t-19 43q0 20 10 41q3 6 9 6q5 0 8.5 -4t0.5 -10
q-4 -9 -6 -17t-2 -15q0 -19 12.5 -28.5t31.5 -9.5q16 0 34 7.5t32 23.5q3 4 8 4t8.5 -6t-1.5 -11q-18 -20 -39.5 -29.5t-41.5 -9.5zM107 406q-38 0 -64.5 26t-22.5 60q0 10 10 10q4 0 7.5 -3t2.5 -8q-2 -22 18 -44t51 -22q20 0 42 12t44 41q0 1 12 15t16 22q3 6 9 6
q5 0 8.5 -4.5t0.5 -10.5q-6 -11 -14 -20.5t-16 -19.5q-25 -32 -52 -46t-52 -14zM364 6q-37 0 -64 23t-23 57q0 9 10 9q4 0 7.5 -3t2.5 -8q-2 -22 16.5 -40t49.5 -18q24 0 56 22.5t62 58t50 74t20 69.5q0 23 -13 38.5t-42 20.5q-4 1 -8 1h-8q-45 0 -89.5 -38t-86.5 -99
q-3 -4 -7 -4q-6 0 -9.5 5t0.5 11q41 59 89.5 102t102.5 43q5 0 10 -0.5t10 -1.5q38 -7 54.5 -27t16.5 -49t-14 -62t-36.5 -65.5t-50 -59.5t-55.5 -43t-51 -16zM372 68q-17 0 -26.5 11.5t-9.5 30.5q0 24 14 52t36 53.5t46.5 42t45.5 16.5q12 0 12 -10q0 -4 -3 -7.5t-8 -2.5
q-16 1 -37 -13.5t-40.5 -38t-32.5 -48.5t-13 -45q0 -22 15 -22q11 0 25 9t26.5 21t16.5 19q3 5 8 5t9 -4.5t0 -10.5q-10 -19 -34.5 -38.5t-49.5 -19.5z" />
    <glyph glyph-name="ampersand" unicode="&#x26;" horiz-adv-x="542" 
d="M103 350q-5 0 -8 4q-16 22 -23 45t-7 46q0 50 30 96t79 76q50 31 110 31q54 0 101 -29t68 -90q1 -1 1 -4q0 -10 -11 -10q-6 0 -9 7q-19 54 -60.5 80t-89.5 26q-25 0 -50.5 -7t-48.5 -21q-46 -28 -72.5 -69.5t-26.5 -85.5q0 -20 6.5 -40.5t19.5 -39.5q2 -4 2 -5
q0 -10 -11 -10zM184 38q-37 0 -66 19.5t-45.5 49.5t-16.5 63q0 21 8 42q11 28 33.5 47.5t50.5 29t54 6.5q14 -1 20.5 7t6.5 17q0 10 -5 15q-43 5 -64 37.5t-21 71.5q0 14 3 27t7 26q17 42 55.5 66.5t80.5 24.5q33 0 63 -17.5t46 -55.5q1 -1 1 -4q0 -10 -11 -10q-5 0 -8 6
q-13 31 -38.5 45.5t-54.5 14.5q-34 0 -67 -20t-48 -58q-9 -22 -9 -46q0 -33 17.5 -58.5t48.5 -28.5q11 -1 17.5 -12t6.5 -25q0 -17 -11.5 -31.5t-37.5 -11.5q-34 4 -68.5 -15.5t-48.5 -54.5q-3 -8 -5 -17t-2 -18q0 -26 12.5 -51t34.5 -41.5t50 -19.5q36 -3 72.5 11.5t64 51
t36.5 97.5q1 8 10 8q4 0 7.5 -3t2.5 -8q-9 -63 -37.5 -102t-66.5 -57t-78 -18zM183 -26q-52 0 -97.5 21t-74 62t-28.5 100q0 45 18.5 87t53.5 69t83 27h10t9 -1q9 0 9 -9q0 -10 -10 -10q-4 0 -8 0.5t-9 0.5q-42 0 -72.5 -23.5t-47 -60.5t-16.5 -78q0 -37 15.5 -72.5
t49.5 -60t87 -30.5q7 -1 13.5 -1h13.5q52 0 99.5 21.5t83 66t48.5 113.5q1 8 9 8q5 0 8.5 -3.5t2.5 -8.5q-14 -75 -53.5 -123.5t-91.5 -71.5t-105 -23zM294 232q-26 0 -37 10.5t-11 25.5q0 20 15.5 39.5t34.5 19.5h216q23 0 33.5 -10.5t10.5 -24.5q0 -20 -19.5 -40
t-53.5 -20h-56q-10 0 -10 10t10 10h56q23 0 38 13.5t15 25.5q0 16 -24 16h-216q-7 0 -18.5 -13t-11.5 -25q0 -7 6 -12t22 -5h55q10 0 10 -10t-10 -10h-55z" />
    <glyph glyph-name="quotesingle" unicode="'" horiz-adv-x="110" 
d="M42 381q-8 0 -6 10q2 9 11 9q11 2 24 10.5t20 23.5l3 5q1 1 1 2l2 3q4 6 16.5 31.5t43.5 89.5q4 8 4 15q0 14 -19 14q-13 0 -27.5 -8t-22.5 -25q-4 -8 -12 -8q-4 0 -6.5 3.5t0.5 8.5q12 25 33.5 37t40.5 12q14 0 24 -7t10 -21q0 -3 -0.5 -6t-1.5 -7q-1 -3 -1.5 -6
t-2.5 -6q-3 -5 -10.5 -21t-17 -36.5t-19.5 -39t-17 -29.5l-1 -2l-1 -3q-10 -22 -29.5 -34.5t-36.5 -14.5h-2z" />
    <glyph glyph-name="parenleft" unicode="(" horiz-adv-x="347" 
d="M242 -71q-69 0 -122 28t-82.5 79.5t-29.5 122.5q0 84 20 166t57.5 154.5t91 128.5t122 88t148.5 32q19 0 29 -10.5t10 -24.5q0 -13 -11 -24t-35 -11q-60 0 -111 -29.5t-92 -80t-70 -114.5q-3 -6 -8 -6t-8.5 4t-1.5 10q30 65 72.5 118.5t97.5 85.5t121 32q14 0 20 5t6 10
q0 15 -19 15q-75 0 -139.5 -30.5t-116 -84t-88 -123t-56 -149.5t-19.5 -162q0 -97 58.5 -153.5t155.5 -56.5q15 0 24.5 8.5t9.5 16.5q0 13 -18 13q-80 0 -125.5 47.5t-45.5 126.5q0 41 5.5 83t16.5 84q2 8 9 8q5 0 9 -3.5t2 -9.5q-10 -40 -16 -81.5t-6 -80.5q0 -70 40 -112
t111 -42q20 0 29 -9.5t9 -22.5q0 -16 -14 -31t-40 -15z" />
    <glyph glyph-name="parenright" unicode=")" horiz-adv-x="434" 
d="M-6 -73q-19 0 -29 11t-10 24t11 24t35 11q60 0 111 29.5t92 80.5t70 114q3 6 8 6t8.5 -4t1.5 -10q-29 -65 -72 -118.5t-98 -85.5t-121 -32q-13 0 -19.5 -5t-6.5 -10q0 -15 19 -15q75 0 139.5 30.5t116 83.5t88 123t56 150t19.5 162q0 98 -58.5 154t-155.5 56
q-15 0 -24.5 -9t-9.5 -17q0 -13 18 -13q80 0 125.5 -47t45.5 -127q0 -40 -5.5 -82.5t-16.5 -84.5q-2 -8 -9 -8q-4 0 -8 3.5t-3 9.5q11 41 16.5 82.5t5.5 79.5q0 71 -40 112.5t-111 41.5q-19 0 -28.5 9.5t-9.5 22.5q0 17 14.5 32t39.5 15q70 0 122.5 -28t82 -79.5
t29.5 -122.5q0 -84 -20 -166t-57.5 -154.5t-91 -128.5t-122 -88t-148.5 -32z" />
    <glyph glyph-name="asterisk" unicode="*" horiz-adv-x="700" 
d="M286 459q-10 0 -10 10v238q0 30 19.5 45t41.5 15t40.5 -15t18.5 -45v-153q0 -10 -10 -10t-10 10v153q0 20 -12 30t-27 10q-16 0 -28.5 -10t-12.5 -30v-238q0 -10 -10 -10zM496 510q-6 0 -9.5 6t2.5 11q8 8 21.5 20t24.5 26t11 29q0 14 -12 26t-27 12q-14 0 -27.5 -10
t-24.5 -22.5t-20 -21.5q-3 -3 -7 -3q-5 0 -8.5 6t1.5 11q17 17 40 39t48 22q9 0 19 -4t20 -15q11 -10 15 -20t4 -20q0 -17 -11 -33t-26 -30t-27 -26q-3 -3 -7 -3zM172 513q-17 17 -39 39.5t-22 47.5q0 10 4.5 20t14.5 20q11 11 20.5 15t19.5 4q18 0 33.5 -11t30 -26
t25.5 -27q3 -3 3 -7q0 -6 -6 -9.5t-11 2.5q-8 8 -19.5 21.5t-25.5 24.5t-29 11t-27 -12q-13 -13 -13 -27t10 -27.5t23.5 -24.5t21.5 -20q3 -3 3 -7q0 -5 -6 -8.5t-11 1.5zM86 376q-29 0 -44.5 19t-15.5 41t15.5 41t45.5 19h126q10 0 10 -10t-10 -10h-127q-19 0 -29.5 -12
t-10.5 -28t10.5 -28t29.5 -12h212q10 0 10 -10t-10 -10h-212zM462 376q-10 0 -10 10t10 10h126q20 0 30 12t10 28q0 15 -10 27.5t-30 12.5h-211q-10 0 -10 10t10 10h211q30 0 45 -19t15 -41t-15 -41t-45 -19h-126zM338 105q-22 0 -41 15t-19 45v153q0 10 10 10t10 -10v-153
q0 -20 12.5 -30t27.5 -10q16 0 28 10t12 30v238q0 10 10 10t10 -10v-238q0 -30 -18.5 -45t-41.5 -15zM167 211q-10 0 -19.5 4.5t-20.5 14.5q-10 11 -14.5 20.5t-4.5 19.5q0 18 11 34t26.5 30t26.5 25q3 3 7 3q5 0 8.5 -6t-1.5 -11q-8 -8 -22 -20t-24.5 -26t-10.5 -29
q0 -14 12 -26q13 -13 26 -13q15 0 28 10t24.5 23t19.5 21q3 3 8 3q11 0 11 -10q0 -3 -4 -7q-17 -17 -39 -38.5t-48 -21.5zM505 213q-17 0 -33 11t-30 26.5t-26 26.5q-3 3 -3 8q0 10 9 10q4 0 8 -4q9 -8 20.5 -22t25.5 -24.5t28 -10.5q15 0 27 12t12 26t-10 27.5t-22.5 25
t-21.5 19.5q-3 3 -3 7q0 6 6 9.5t11 -1.5q17 -17 39 -39.5t22 -48.5q0 -20 -19 -39q-10 -10 -20 -14.5t-20 -4.5z" />
    <glyph glyph-name="plus" unicode="+" horiz-adv-x="492" 
d="M283 287q-10 0 -10 10v185q0 14 -9 21.5t-20 7.5t-20 -7.5t-9 -21.5v-123q0 -10 -10 -10t-10 10v123q0 24 15.5 36.5t33.5 12.5t33.5 -12.5t15.5 -36.5v-185q0 -10 -10 -10zM64 230q-24 0 -36 15.5t-12 33.5q0 17 12 32.5t36 15.5h113q10 0 10 -10t-10 -10h-113
q-14 0 -21 -8.5t-7 -19.5t7 -20t21 -9h109q10 0 10 -10t-10 -10h-109zM307 230q-10 0 -10 10t10 10h116q15 0 22 8.5t7 19.5t-7 20t-22 9h-98q-10 0 -10 10t10 10h98q25 0 37 -15.5t12 -33.5t-12 -33t-37 -15h-116zM244 23q-18 0 -33.5 12t-15.5 36v190q0 11 10 11t10 -11
v-190q0 -14 9 -21t20 -7t20 7t9 21v141q0 10 10 10t10 -10v-141q0 -24 -15.5 -36t-33.5 -12z" />
    <glyph glyph-name="comma" unicode="," horiz-adv-x="170" 
d="M-21 -98q-9 0 -9 10q0 9 8 10q35 7 58 28t35 47t12 47q0 15 -6 24.5t-19 9.5q-17 0 -25.5 -11.5t-8.5 -22.5q0 -9 4.5 -15t13.5 -5h1q10 0 10 -10t-13 -10q-16 0 -26.5 12.5t-10.5 28.5q0 21 17 37t38 16q23 0 33.5 -15.5t10.5 -38.5q0 -26 -14 -56.5t-40.5 -54
t-66.5 -31.5h-2z" />
    <glyph glyph-name="hyphen" unicode="-" horiz-adv-x="552" 
d="M94 230q-24 0 -36 15.5t-12 33.5q0 17 12 32.5t36 15.5h359q29 0 44 -15t15 -33t-15 -33.5t-44 -15.5q-10 0 -10 10t10 10q18 0 27 9.5t9 19.5q0 11 -8.5 19.5t-27.5 8.5h-359q-14 0 -21 -8.5t-7 -19.5t7 -20t21 -9h304q10 0 10 -10t-10 -10h-304z" />
    <glyph glyph-name="period" unicode="." horiz-adv-x="190" 
d="M35 0q-19 16 -19 38q0 20 13.5 33t32.5 13q20 0 33.5 -13t13.5 -33q0 -19 -13 -32q-3 -3 -7 -3q-5 0 -8.5 5.5t1.5 11.5q7 9 7 18q0 11 -7.5 18.5t-18.5 7.5t-19 -7.5t-8 -18.5q0 -15 11 -21q4 -3 4 -8t-5 -9t-11 0z" />
    <glyph glyph-name="slash" unicode="/" horiz-adv-x="562" 
d="M49 9q-5 0 -8.5 6t1.5 11q26 30 69.5 78.5t97 107.5t110.5 122t112 124t102 112.5t79.5 87.5t43.5 49q13 15 28 21.5t28 6.5q19 0 32 -10.5t13 -27.5q0 -18 -17 -38q-19 -22 -54.5 -61t-81.5 -89.5t-97 -107t-103 -113.5t-99 -109t-84 -93.5t-59 -66.5q-3 -4 -7 -4
q-5 0 -9 6t1 12q22 25 59 66t84 93t99 109t103 113.5t97 107t81.5 89.5t54.5 61q12 15 12 25q0 18 -24 18q-10 0 -21 -5t-21 -16q-11 -13 -43.5 -49t-79.5 -87.5t-102 -112.5t-112 -124t-110.5 -122t-97 -107.5t-69.5 -78.5q-3 -4 -8 -4z" />
    <glyph glyph-name="zero" unicode="0" horiz-adv-x="560" 
d="M151 -15q-77 0 -125.5 46.5t-48.5 125.5q0 62 26.5 120.5t72 108.5t102.5 87.5t119.5 58.5t121.5 21q89 0 128.5 -32.5t39.5 -76.5q0 -37 -26 -73.5t-72.5 -60.5t-110.5 -24q-17 0 -40.5 4t-46 13t-38 25.5t-18.5 41.5v1q0 10 10 10t10 -9q3 -23 23 -38t48 -21.5t52 -6.5
q57 0 99.5 21t66 52.5t23.5 62.5q0 37 -34.5 64t-113.5 27q-57 0 -116.5 -20t-114 -56t-98 -84t-68.5 -103t-25 -113q0 -70 42 -111t112 -41q56 0 106.5 20.5t92 57t70.5 84t40 100.5q1 8 10 8q5 0 8.5 -3.5t1.5 -8.5q-12 -56 -42.5 -106.5t-74.5 -89t-98 -60.5t-114 -22z
M176 50q-57 0 -85 38.5t-28 91.5q0 46 23.5 91.5t62 86t84.5 72t92.5 49.5t85.5 18q57 0 81.5 -18t24.5 -42q0 -22 -17.5 -45t-47 -38t-65.5 -15q-12 0 -34 6t-41 18.5t-22 30.5v2q0 9 10 9q9 0 10 -8q2 -9 16 -18t31.5 -14.5t29.5 -5.5q29 0 54 12t40.5 29.5t15.5 34.5
t-19.5 29.5t-66.5 12.5q-36 0 -80 -17.5t-87.5 -47t-80 -68t-58.5 -80.5t-22 -84q0 -49 23.5 -79.5t69.5 -30.5q41 0 78.5 22.5t68 55.5t49 64t20.5 47q2 9 10 9q4 0 7.5 -3t2.5 -8q-2 -15 -15 -40.5t-35.5 -54t-52 -54.5t-63.5 -42t-70 -16z" />
    <glyph glyph-name="one" unicode="1" horiz-adv-x="440" 
d="M214 105q-4 0 -7.5 3.5t-2.5 8.5q3 16 15.5 44.5t30 63.5t36 70.5t34.5 65.5t25 47q8 16 21.5 28t26.5 23q10 14 10 26q0 15 -13.5 23.5t-29.5 8.5q-7 0 -13.5 -1.5t-11.5 -6.5q-15 -13 -43 -37t-59 -51t-57 -50t-38 -35q-9 -9 -9 -20q0 -8 5 -14.5t13 -6.5q7 0 16 6
q4 2 6 2q10 0 10 -10q0 -5 -4 -8q-14 -10 -28 -10q-16 0 -27 12t-11 28q0 20 16 36q11 11 37 34t57 50.5t59 51.5t43 37q18 15 39 15q24 0 43.5 -16.5t19.5 -39.5q0 -21 -18 -39l-4 -4q-10 -10 -20.5 -19.5t-17.5 -22.5q-7 -14 -29 -54.5t-45 -87.5q-24 -47 -43 -88t-22 -55
q-1 -8 -10 -8zM123 75q-4 0 -7.5 3t-2.5 8q1 9 13.5 41t32 74.5t40 85.5t37.5 76t24 43q3 4 8 4t9 -5t-1 -11q-7 -10 -23.5 -42t-36.5 -74t-39 -83.5t-31 -72t-13 -37.5q0 -10 -10 -10zM4 -18q-22 0 -33 10.5t-11 24.5q0 20 19.5 40t53.5 20h56q10 0 10 -10t-10 -10
q-14 0 -28 0.5t-28 0.5q-22 0 -37.5 -13.5t-15.5 -26.5q0 -16 24 -16h271q7 0 18.5 13t11.5 25q0 7 -6 12t-22 5h-86q-10 0 -10 10t10 10h86q26 0 37 -10.5t11 -25.5q0 -20 -15.5 -39.5t-34.5 -19.5h-271z" />
    <glyph glyph-name="two" unicode="2" horiz-adv-x="526" 
d="M0 43q-9 0 -10 9q-3 27 18 45.5t55 24.5q-7 6 0 14q16 17 46 40t64.5 49t67 50.5t56 44.5t29.5 31q14 24 14 45q0 31 -25.5 48t-57.5 17q-30 0 -57.5 -17.5t-34.5 -56.5q-1 -3 -1 -9q0 -19 11 -36.5t11 -35.5q0 -15 -12 -28t-28 -13q-19 0 -36.5 16.5t-29.5 44t-12 59.5
q0 44 29 87.5t105 68.5q29 10 61 10q48 0 91 -21t70 -56t27 -78q0 -25 -11 -51.5t-34 -52.5q-31 -35 -73.5 -60.5t-83.5 -49t-70 -55.5q-3 -3 -7 -3q-5 0 -8.5 5.5t1.5 11.5q30 33 71 56.5t83 48.5t73 60q20 22 28.5 44t8.5 44q0 38 -22 69.5t-59 50.5t-81 19q-30 0 -59 -10
q-60 -20 -91.5 -59t-31.5 -82q0 -45 35 -82q14 -14 26 -14q10 0 15 7.5t5 17.5t-6 19q-16 20 -16 48q0 26 14.5 49.5t39.5 38.5t58 15q26 0 49.5 -10t39 -29.5t15.5 -46.5q0 -25 -16 -54q-8 -13 -32 -33.5t-56.5 -45t-67 -50t-63.5 -48.5t-46 -40h11q7 0 13.5 -0.5
t13.5 -1.5q40 -6 85.5 -20t90.5 -26t83 -12q11 0 11 -10t-11 -10q-41 0 -86 12t-89.5 26t-86.5 20q-7 1 -13.5 1.5t-12.5 0.5q-40 0 -60 -16.5t-18 -32.5v-2q0 -10 -10 -10zM355 -17q-41 0 -86.5 12t-91 26t-87.5 20q-3 0 -5.5 0.5t-4.5 0.5q-18 0 -25 -9t-7 -17
q0 -10 4 -13q3 -3 3 -7q0 -11 -10 -11q-4 0 -8 4q-11 11 -11 26q0 19 17.5 35t48.5 11q41 -6 87 -20t91.5 -26t84.5 -12q36 0 56 20.5t20 45.5q0 14 -6 27.5t-20 23.5q-4 3 -4 8t5.5 9t10.5 -1q18 -14 26 -31.5t8 -34.5q0 -34 -26 -60.5t-70 -26.5z" />
    <glyph glyph-name="three" unicode="3" horiz-adv-x="485" 
d="M158 -21q-66 0 -106 22t-57 58t-15 78q0 9 10 9q4 0 7.5 -2.5t2.5 -7.5q-1 -36 13 -67.5t49 -50.5t96 -19q59 0 104.5 18.5t76.5 48.5t47.5 64.5t16.5 66.5q0 40 -26 68t-81 28q-10 0 -10 10t10 10q27 0 49 -7q-2 3 -2 7q0 6 5 8q35 21 54 53t19 63q0 40 -34 69.5
t-109 24.5q-34 -2 -73 -11t-69 -37q-3 -3 -7 -3q-5 0 -8.5 6t1.5 11q34 32 77.5 42t76.5 12q59 4 95 -11t52.5 -41t16.5 -57q0 -39 -22.5 -77.5t-59.5 -61.5q-1 -1 -2 -1q34 -14 50 -42t16 -62q0 -36 -17.5 -74.5t-51 -71.5t-82.5 -53t-113 -20zM168 38q-51 0 -82.5 28.5
t-31.5 66.5q0 14 4 28t13 27q3 5 8 5t9 -5t0 -11q-13 -20 -13 -43q0 -31 25 -53.5t69 -22.5q38 0 73.5 21t58 51.5t22.5 58.5q0 31 -32 52t-112 16q-31 -1 -44.5 8t-13.5 22q0 17 17 32t40 15q56 0 90 15t53 37q23 27 23 48q0 20 -20 30t-46 10q-28 0 -54.5 -10t-37.5 -29
q-2 -5 -9 -5q-4 0 -8 4.5t0 10.5q14 25 44 37t61 12q35 0 63 -15t28 -44q0 -13 -6.5 -28t-21.5 -33q-23 -28 -61.5 -44t-97.5 -16q-12 0 -24 -9t-12 -17q0 -5 8 -8.5t28 -2.5q6 0 12 0.5t11 0.5q77 0 109.5 -26t32.5 -61q0 -34 -25 -69.5t-64.5 -59.5t-85.5 -24z" />
    <glyph glyph-name="four" unicode="4" horiz-adv-x="497" 
d="M193 -7q-19 0 -33.5 10t-14.5 31q0 12 6 27q3 8 17.5 40t33.5 75q3 6 8 6t8.5 -4t1.5 -10l-50 -114q-5 -12 -5 -19q0 -12 8 -17.5t18 -5.5q12 0 23.5 6.5t15.5 16.5t16 38.5t29.5 67t36.5 81t36.5 81.5t30.5 67t18 38q8 14 20 25t23 22l4 4q11 14 11 27q0 15 -13.5 23.5
t-28.5 8.5t-26 -9q-7 -7 -24 -20t-40 -30t-49.5 -36.5t-54.5 -40.5q-37 -27 -71.5 -53.5t-60.5 -46.5t-36 -30q-11 -11 -16 -21t-5 -18q0 -23 28 -23h130q10 0 10 -10t-10 -10h-130q-26 0 -37 11t-11 27q0 15 7.5 30.5t19.5 27.5q11 11 37 32t61 47t72 53q28 21 55 40.5
t49 36.5t38.5 29.5t23.5 19.5q8 8 18 11t20 3q25 0 45.5 -17t20.5 -39q0 -21 -20 -38l-4 -4q-10 -10 -20.5 -19.5t-17.5 -22.5q-5 -9 -18 -37t-31 -66.5t-36.5 -81t-35.5 -81t-29.5 -67t-16.5 -38.5q-6 -17 -22 -25.5t-33 -8.5zM132 245q-10 0 -10 10t10 10h80q23 0 30 6
t15 23l23 50q9 20 18.5 38t13.5 24q3 4 8 4t9 -5t-1 -11q-3 -4 -11.5 -21t-18 -37t-16.5 -35l-7 -15q-10 -22 -22 -31.5t-41 -9.5h-80zM329 170q-10 0 -10 10t10 10h82q7 0 18.5 13t11.5 25q0 7 -6 12t-22 5h-39q-10 0 -10 10t10 10h39q26 0 37 -10.5t11 -25.5
q0 -20 -15.5 -39.5t-34.5 -19.5h-82z" />
    <glyph glyph-name="five" unicode="5" horiz-adv-x="443" 
d="M117 39q-29 0 -49 16.5t-20 55.5q0 8 1 18t3 20q1 8 10 8q5 0 8.5 -3.5t1.5 -8.5q-1 -9 -2.5 -17t-1.5 -15q0 -31 14 -43.5t36 -12.5q24 0 52 11.5t53 28.5t40 33q17 19 26 40.5t9 40.5q0 29 -20.5 48.5t-64.5 19.5q-18 0 -39 -3t-41 -10q-14 -5 -25.5 -7t-19.5 -2
q-22 0 -30.5 12t-8.5 31q0 24 10.5 55.5t25 63t27.5 56t19 35.5q15 29 48 35t72 6h126q28 -1 39.5 -13t11.5 -28q0 -21 -16 -40t-41 -19q-14 0 -29 1t-30 1q-19 0 -37.5 -0.5t-37.5 -0.5h-7q-7 0 -14 -1.5t-13 -6.5q-9 -7 -19.5 -24t-24.5 -52q-3 -6 -9 -6q-4 0 -7.5 4
t-1.5 10q6 15 15.5 36t24 38.5t34.5 20.5q5 1 10.5 1h11.5h66q18 0 35 -0.5t33 -0.5q14 0 26 12.5t12 25.5q0 8 -7.5 14.5t-25.5 7.5h-125q-42 0 -67 -5.5t-35 -25.5q-21 -40 -43 -82.5t-34 -87.5q-2 -9 -3.5 -16.5t-1.5 -13.5q0 -24 22 -24q14 0 38 9q23 8 45 11t43 3
q56 0 79 -25t23 -60q0 -53 -40 -98q-19 -21 -46.5 -38.5t-57 -28t-56.5 -10.5zM107 -21q-70 0 -98.5 30.5t-28.5 74.5q0 14 2 27.5t6 27.5q3 8 10 8q5 0 8 -3.5t1 -9.5q-8 -29 -8 -50q0 -37 24.5 -61t83.5 -24q57 0 103.5 21t80.5 55t52.5 73.5t18.5 76.5q0 46 -31.5 78
t-102.5 32q-20 0 -44 -3t-51 -10h-2q-10 0 -10 10q0 8 8 10q29 8 54 11t47 3q80 0 116 -38.5t36 -91.5q0 -41 -19.5 -84t-55.5 -80t-86.5 -60t-113.5 -23z" />
    <glyph glyph-name="six" unicode="6" horiz-adv-x="466" 
d="M168 -21q-67 0 -106 22t-55.5 57.5t-16.5 77.5q0 64 26.5 126t69 116t91.5 95.5t94.5 65t77.5 23.5q19 0 31.5 -9.5t12.5 -32.5q0 -16 -10.5 -28.5t-33.5 -14.5q-36 -4 -73.5 -27.5t-72.5 -59.5t-62.5 -79t-44 -85.5t-16.5 -78.5q0 -39 23 -64t76 -25q38 0 73.5 21
t58 51.5t22.5 58.5q0 31 -32 49.5t-112 18.5h-1q-9 0 -9 10t9 10q6 0 12 0.5t11 0.5q77 0 109.5 -26t32.5 -61q0 -34 -25 -69.5t-64.5 -59.5t-85.5 -24q-64 0 -91 31.5t-27 77.5q0 24 6.5 50.5t17.5 52.5q18 42 47.5 84.5t65.5 78t75 58t75 26.5q14 2 20.5 8.5t6.5 14.5
q0 9 -6 16t-15 7q-30 0 -73.5 -22.5t-90 -62.5t-87.5 -91.5t-66.5 -110.5t-25.5 -120q0 -36 14 -67.5t48.5 -50.5t95.5 -19q72 0 124.5 30.5t81 76t28.5 90.5q0 35 -18.5 64t-57.5 46t-101 15q-10 0 -10 10t10 10q69 2 112 -18t63.5 -53.5t20.5 -73.5q0 -38 -17.5 -76
t-50.5 -70t-79.5 -51.5t-105.5 -19.5z" />
    <glyph glyph-name="seven" unicode="7" horiz-adv-x="447" 
d="M97 380q-24 13 -35.5 32.5t-11.5 40.5q0 29 21.5 55t59.5 33q15 3 42 3q21 0 46.5 -1t52.5 -3q45 -3 91.5 -5.5t81.5 -3.5q25 0 36 -12t11 -26q0 -16 -12.5 -30.5t-35.5 -15.5q-24 0 -68.5 3t-92.5 7q-28 2 -55.5 3t-50.5 1q-32 0 -52 -3h-2q-10 0 -10 10q0 9 8 10
q21 3 53 3q25 0 53.5 -1.5t57.5 -3.5q47 -3 90.5 -6.5t67.5 -2.5q13 0 21 8t8 17q0 8 -6.5 13.5t-21.5 5.5q-35 1 -81.5 4t-91.5 5q-28 2 -53.5 3t-45.5 1h-21.5t-15.5 -2q-31 -6 -48 -25.5t-17 -42.5q0 -16 9 -31t27 -25q6 -3 6 -9q0 -5 -4.5 -8.5t-10.5 -0.5zM135 -23
q-16 0 -30 11.5t-14 32.5q0 9 5 24q28 77 62 141t77 122.5t97 117.5q3 3 7 3q6 0 9.5 -5.5t-1.5 -11.5q-53 -58 -95.5 -115t-76.5 -119.5t-61 -138.5q-3 -9 -3 -17q0 -13 8 -19.5t16 -6.5q15 0 18 12q27 81 63.5 147t75 118.5t73 90.5t58.5 62q3 3 7 3q5 0 8.5 -5.5
t-1.5 -11.5q-23 -24 -57.5 -61.5t-72.5 -88.5t-73.5 -116t-62.5 -144q-4 -13 -14.5 -19t-21.5 -6z" />
    <glyph glyph-name="eight" unicode="8" horiz-adv-x="496" 
d="M389 319q-10 0 -10 11q0 6 5 8q26 15 41.5 42t15.5 55q0 37 -32.5 66.5t-109.5 29.5q-68 0 -108.5 -20t-57.5 -49.5t-17 -58.5q0 -16 5 -30t12 -24q2 -2 2 -6q0 -10 -11 -10q-4 0 -7 4q-21 27 -21 65q0 34 20 68.5t65 57.5t118 23q60 0 95.5 -16t51 -41.5t15.5 -54.5
q0 -35 -19 -68t-48 -51q-2 -1 -5 -1zM180 -21q-64 0 -104 22t-58 57t-18 75q0 46 21.5 90.5t59 73.5t85.5 29q10 0 10 -10t-10 -10q-41 0 -74.5 -26t-52.5 -65.5t-19 -81.5q0 -35 16 -65.5t51 -49.5t93 -19q76 0 130 29.5t83 74t29 87.5q0 44 -31 77t-98 37q-60 5 -92 36.5
t-32 66.5q0 32 27 57.5t84 29.5q53 4 78 -19t25 -52q0 -25 -17.5 -49.5t-51.5 -35.5q-1 0 -1.5 -0.5t-1.5 -0.5q-4 0 -7 3.5t-3 7.5q0 7 7 10q28 9 42 26t14 36q0 23 -20.5 40t-61.5 14q-48 -4 -70.5 -24t-22.5 -44q0 -28 28 -53t78 -29q76 -5 111 -44t35 -90
q0 -36 -17.5 -73.5t-51 -68.5t-82 -50t-110.5 -19zM190 40q-54 0 -81 33t-27 74q0 38 23 72.5t71 47.5q1 0 1.5 0.5t1.5 0.5q5 0 7.5 -3.5t2.5 -7.5q0 -7 -7 -10q-42 -11 -61.5 -38.5t-19.5 -56.5q0 -35 24.5 -63.5t64.5 -28.5t72.5 19.5t52.5 48.5t20 56q0 26 -21.5 46
t-71.5 23q-9 0 -9 10q0 4 3 7.5t8 2.5q59 -3 85 -28.5t26 -58.5t-21.5 -66.5t-59 -56.5t-84.5 -23z" />
    <glyph glyph-name="nine" unicode="9" horiz-adv-x="482" 
d="M107 -30q-48 0 -54 47q-2 23 13 39.5t41 18.5q34 3 71 25.5t70.5 57.5t60.5 76.5t43 82.5t16 75q0 36 -21 59t-70 23q-35 0 -68.5 -18.5t-54.5 -46t-21 -53.5q0 -28 30 -46.5t103 -14.5q13 0 13 -9q0 -11 -11 -11q-7 0 -13 -0.5t-11 -0.5q-72 0 -102 22t-30 53
q0 24 14.5 49.5t38.5 47t53.5 35t59.5 13.5q59 0 84.5 -27t25.5 -68t-17 -87t-45.5 -89.5t-64.5 -80t-75.5 -59.5t-76.5 -28q-39 -5 -36 -36q2 -16 10.5 -22.5t24.5 -6.5q33 0 78 22.5t92.5 62.5t88 93t65.5 113.5t25 124.5q0 72 -43 109.5t-126 37.5q-56 0 -101 -18.5
t-76.5 -49t-48 -66.5t-16.5 -72q0 -37 19.5 -69t60.5 -50.5t106 -16.5q13 0 13 -9q0 -11 -13 -11q-72 -2 -118 19t-67.5 57t-21.5 78q0 40 18 80t52.5 73.5t83 54t109.5 20.5q91 0 140 -43.5t49 -123.5q0 -60 -24.5 -122t-65 -118t-89.5 -100.5t-99 -70t-92 -25.5z" />
    <glyph glyph-name="colon" unicode=":" horiz-adv-x="210" 
d="M86 163q-19 16 -19 38q0 20 13.5 33.5t32.5 13.5q20 0 33.5 -13.5t13.5 -33.5q0 -19 -13 -32q-3 -3 -7 -3q-5 0 -8.5 5.5t1.5 11.5q7 9 7 18q0 11 -7.5 19t-18.5 8t-19 -8t-8 -19q0 -15 11 -21q4 -3 4 -8t-5 -9t-11 0zM35 0q-19 16 -19 38q0 20 13.5 33t32.5 13
q20 0 33.5 -13t13.5 -33q0 -19 -13 -32q-3 -3 -7 -3q-5 0 -8.5 5.5t1.5 11.5q7 9 7 18q0 11 -7.5 18.5t-18.5 7.5t-19 -7.5t-8 -18.5q0 -15 11 -21q4 -3 4 -8t-5 -9t-11 0z" />
    <glyph glyph-name="semicolon" unicode=";" horiz-adv-x="210" 
d="M86 163q-19 16 -19 38q0 20 13.5 33.5t32.5 13.5q20 0 33.5 -13.5t13.5 -33.5q0 -19 -13 -32q-3 -3 -7 -3q-5 0 -8.5 5.5t1.5 11.5q7 9 7 18q0 11 -7.5 19t-18.5 8t-19 -8t-8 -19q0 -15 11 -21q4 -3 4 -8t-5 -9t-11 0zM-21 -98q-9 0 -9 10q0 9 8 10q35 7 58 28t35 47
t12 47q0 15 -6 24.5t-19 9.5q-17 0 -25.5 -11.5t-8.5 -22.5q0 -9 4.5 -15t13.5 -5h1q10 0 10 -10t-13 -10q-16 0 -26.5 12.5t-10.5 28.5q0 21 17 37t38 16q23 0 33.5 -15.5t10.5 -38.5q0 -26 -14 -56.5t-40.5 -54t-66.5 -31.5h-2z" />
    <glyph glyph-name="less" unicode="&#x3c;" horiz-adv-x="407" 
d="M219 21q-13 0 -27 11.5t-25 36.5q-17 44 -36 86.5t-39 85.5q-3 6 -5 13t-2 15q0 4 20 26.5t52.5 53.5t69.5 61t72 50t60 20q26 0 34 -24q2 -4 2 -7v-7q0 -29 -29 -48q-40 -25 -77 -54t-75 -55q-4 -2 -6 -2q-9 0 -9 10q0 6 4 9q38 26 75 54.5t77 54.5q11 7 15.5 15.5
t4.5 15.5q0 18 -19 18q-6 0 -15 -3q-15 -6 -43.5 -24.5t-61.5 -43t-63 -49.5t-49 -44t-19 -27q0 -11 6 -21.5t10 -20.5q17 -38 34 -76.5t31 -73.5q8 -19 17 -27.5t17 -8.5t14 7.5t6 19.5q0 9 -3 18q-3 10 -13.5 33t-22.5 50.5t-22 49.5q-1 1 -1 4q0 10 11 10q5 0 8 -6
q10 -23 22.5 -50t22.5 -50t14 -34q5 -15 5 -24q0 -21 -12.5 -34.5t-29.5 -13.5z" />
    <glyph glyph-name="equal" unicode="=" horiz-adv-x="492" 
d="M120 231q-25 0 -37 15.5t-12 33.5t12 33.5t37 15.5h116q21 -1 46.5 -1h69.5q22 0 35.5 -17.5t13.5 -37.5q0 -16 -11.5 -29t-37.5 -13q-10 0 -10 10t10 10q12 0 20.5 11t8.5 23q0 9 -6.5 16t-22.5 7h-69.5t-46.5 1h-116q-15 0 -22 -9t-7 -20t7 -20t22 -9h169q10 0 10 -10
t-10 -10h-169zM295 67l-175 1q-25 0 -37 15.5t-12 32.5q0 18 12 33.5t37 15.5h232q22 0 35.5 -18t13.5 -38q0 -16 -11.5 -29t-37.5 -13q-10 0 -10 10t10 10q12 0 20.5 11t8.5 24q0 9 -6.5 16t-22.5 7h-232q-15 0 -22 -9t-7 -20t7 -19.5t22 -8.5l175 -1q10 0 10 -10t-10 -10z
" />
    <glyph glyph-name="greater" unicode="&#x3e;" horiz-adv-x="303" 
d="M49 0q-20 0 -30 19q-5 10 -5 20q0 26 21 45q35 32 67 66.5t64 66.5q3 3 7 3q5 0 8.5 -5.5t-1.5 -11.5q-32 -32 -64 -66.5t-67 -67.5q-15 -13 -15 -29q0 -19 18 -19q8 0 18 6q14 9 39 32t53.5 53t53.5 59.5t40.5 51.5t14.5 29q-2 11 -10 21t-14 18q-23 35 -46.5 70
t-43.5 67q-19 30 -37 30q-19 0 -19 -24q0 -13 7 -24q6 -9 19.5 -30t30.5 -45.5t31 -45.5q2 -4 2 -6q0 -9 -10 -9q-6 0 -9 4q-14 21 -31 45.5t-30.5 46t-19.5 30.5q-10 17 -10 33q0 19 11.5 31.5t27.5 12.5q13 0 27 -9t27 -30q25 -40 51 -78.5t53 -77.5q9 -11 12 -26
q1 -4 -11 -24t-32.5 -49t-46 -60.5t-53 -59.5t-53 -45.5t-45.5 -17.5z" />
    <glyph glyph-name="question" unicode="?" horiz-adv-x="295" 
d="M108 130q-17 0 -31.5 12.5t-12.5 34.5q4 38 26 70.5t52 59.5t58 48q13 11 22 18.5t13 12.5q23 27 23 48q0 20 -19 30t-45 10t-53 -10t-42 -30q-16 -21 -39 -21q-18 0 -32 11.5t-14 29.5q0 10 5 21t17 22q35 32 77.5 42t76.5 12q59 4 95 -11t52.5 -41t16.5 -57
q0 -39 -22.5 -77.5t-59.5 -61.5q-38 -23 -57.5 -39t-35.5 -42q-3 -5 -8 -5t-9 5t0 11q17 29 39 46.5t61 41.5q35 21 54 53t19 63q0 40 -34 69.5t-109 24.5q-34 -2 -73 -11t-69 -37q-16 -16 -16 -29q0 -9 7.5 -15t17.5 -6q6 0 13 3t11 10q18 25 48 36.5t59 11.5q35 0 62 -15
t27 -44q0 -13 -6.5 -28.5t-21.5 -32.5q-15 -18 -44.5 -40t-48.5 -39q-28 -26 -49.5 -56t-24.5 -63q-1 -12 7 -19.5t16 -7.5q16 0 16 19q0 10 10 10t10 -10q0 -19 -10.5 -28.5t-24.5 -9.5zM45 0q-19 16 -19 38q0 20 13.5 33t32.5 13q20 0 33.5 -13t13.5 -33q0 -19 -13 -32
q-3 -3 -7 -3q-5 0 -8.5 5.5t1.5 11.5q7 9 7 18q0 11 -7.5 18.5t-18.5 7.5t-19 -7.5t-8 -18.5q0 -15 11 -21q4 -3 4 -8t-5 -9t-11 0z" />
    <glyph glyph-name="at" unicode="@" horiz-adv-x="658" 
d="M279 -164q-76 0 -136 34.5t-94 93.5t-34 132q0 21 3 43q9 62 42 120.5t83 104.5t110 73t122 27q54 0 101 -19t82.5 -51t55.5 -72.5t20 -83.5q0 -34 -14 -67.5t-46 -63.5q-3 -3 -7 -3q-11 0 -11 10q0 4 4 8q27 26 39.5 55.5t12.5 60.5q0 52 -30.5 99t-84 77t-122.5 30
q-58 0 -114.5 -25.5t-104 -69.5t-79 -99t-39.5 -114q-3 -19 -3 -40q0 -68 31.5 -122.5t86.5 -86t126 -31.5q62 0 120 25t104 69t72 100q3 6 9 6q5 0 8.5 -4t0.5 -10q-28 -60 -76.5 -106.5t-109.5 -73t-128 -26.5zM287 -106q-61 0 -109 28t-75.5 75.5t-27.5 107.5
q0 8 0.5 16.5t1.5 17.5q7 50 34 97.5t68 86t89.5 61t98.5 22.5t96.5 -23t76.5 -61t30 -84q0 -22 -8 -44t-26 -45q-14 -17 -39 -40.5t-52 -41t-49 -17.5q-13 0 -22 9t-9 29q0 12 10.5 34t25.5 47.5t29.5 47t21.5 33.5q5 6 5 15q0 12 -12 12q-8 0 -19.5 -7.5t-23.5 -24.5
q-11 -16 -30 -48t-43 -66t-48.5 -57.5t-45.5 -23.5q-20 0 -26.5 16t-6.5 26q0 20 13.5 46.5t35 52.5t46 43t46.5 17q11 0 11 -11q0 -9 -11 -9q-17 0 -37.5 -15t-39.5 -37.5t-31.5 -46t-12.5 -40.5q0 -22 13 -22t30 15.5t35 40t35 50.5t30.5 48t20.5 32q15 22 30.5 31t28.5 9
q14 0 23 -9t9 -23q0 -13 -8 -25q-6 -10 -20 -31t-28.5 -45t-25 -45t-10.5 -30q0 -18 10 -18q19 0 44 17t48 39t34 36q15 18 21.5 37t6.5 38q0 39 -25.5 73t-67 55t-89.5 21q-46 0 -91.5 -21t-83.5 -57t-63.5 -80.5t-32.5 -91.5q-1 -8 -1.5 -15.5t-0.5 -15.5q0 -54 25 -97
t68.5 -68.5t99.5 -25.5q68 0 128.5 37t94.5 96q3 5 8 5t9 -5t0 -11q-37 -62 -101.5 -102t-138.5 -40zM177 145q-5 0 -8.5 5t0.5 11q17 25 42.5 54.5t57.5 51t68 21.5q17 0 34 -7q6 -3 6 -9q0 -4 -4 -7.5t-10 -1.5l-8 3q-10 2 -18 2q-30 0 -58 -19t-52 -46t-42 -53
q-3 -5 -8 -5zM371 1q-36 0 -51.5 19.5t-15.5 42.5q0 19 10 37q3 5 8 5t9 -4.5t0 -10.5q-7 -14 -7 -27q0 -16 11 -29t36 -13q29 0 54.5 12.5t49.5 30.5q2 2 6 2q10 0 10 -10q0 -5 -4 -8q-25 -19 -53.5 -33t-62.5 -14zM224 2q-26 0 -46 17t-19 54q0 10 10 10q4 0 7.5 -3
t2.5 -8q-1 -26 12.5 -38t32.5 -12q15 0 30 7t24 20q3 5 8 5t9 -5t0 -11q-13 -18 -32 -27t-39 -9z" />
    <glyph glyph-name="A" unicode="A" horiz-adv-x="1166" 
d="M398 514q-16 0 -20.5 14t-2.5 26q9 44 47.5 75.5t97 51.5t128.5 30t143 10q10 0 44 -0.5t81.5 -3.5t97.5 -9.5t94 -18.5t71.5 -30.5t27.5 -45.5q0 -11 -4 -20q-3 -6 -9 -6q-4 0 -7.5 4t-1.5 10q2 3 2 6v6q0 21 -26 35.5t-68 24t-90 15.5t-93 8.5t-77.5 3.5t-41.5 1
q-75 0 -143 -10t-122 -29t-88.5 -47t-42.5 -65q0 -1 -0.5 -3t-0.5 -4q0 -9 4 -9q7 0 15.5 8t12.5 13q49 50 106 72.5t117 28.5t117 6q83 0 136 -5.5t85 -13t52 -13.5q7 -3 7 -9q0 -5 -4 -8.5t-9 -2.5q-19 6 -50 13.5t-83 13t-134 5.5q-64 0 -121.5 -7t-110 -30t-101.5 -72
q-7 -7 -15.5 -13t-19.5 -6zM186 -34q-37 0 -78.5 8.5t-78 27t-59.5 49t-23 75.5q0 53 25.5 98t69 81t98.5 61.5t115.5 39t118.5 13.5q19 0 51 -3t67.5 -11t67.5 -21.5t52 -34.5t20 -50q0 -4 -0.5 -7.5t-1.5 -8.5q-1 -7 -8 -18t-22 -11q-10 0 -23.5 13.5l-20.5 20.5
q-37 34 -80.5 49.5t-95.5 15.5q-78 0 -141.5 -20t-109.5 -52.5t-70.5 -69.5t-24.5 -72q0 -41 40 -70.5t127 -29.5q59 0 125 24.5t132.5 64t127 85.5t108.5 88q15 13 45.5 37.5t70 56t82 64.5t82 64t70.5 55t46 36q2 2 6 2q10 0 10 -11q0 -4 -4 -7q-15 -12 -45.5 -36
t-70 -54.5t-82 -64t-82 -64.5t-70 -55.5t-45.5 -37.5q-48 -42 -109 -88.5t-129 -87t-136.5 -66t-131.5 -25.5q-42 0 -85 10.5t-71.5 37.5t-28.5 75q0 8 1 16.5t3 17.5q10 48 48.5 85t92.5 62t112 37.5t107 12.5q67 0 114.5 -21.5t91.5 -65.5q3 -2 7 -6t8 -6q6 0 9 14
q1 3 1 6v6q0 24 -19.5 41t-49.5 28t-63 17.5t-61.5 9.5t-43.5 3q-70 0 -141.5 -19.5t-131.5 -56t-96.5 -86.5t-36.5 -110q0 -37 19.5 -64t51.5 -44t70.5 -25t76.5 -8q64 0 128.5 19.5t126.5 51.5t116 69.5t97 74.5l2.5 1t3.5 1h176q10 0 10 -10t-10 -10h-172
q-43 -37 -98 -75t-118 -70t-129.5 -52t-132.5 -20zM964 70q-32 0 -45 15.5t-13 38.5q0 27 11.5 58t25.5 58t22 40q20 34 51 80t66.5 94t66.5 88q3 4 8 4t9 -5.5t-1 -10.5q-5 -6 -24.5 -31t-46.5 -61.5t-56 -80t-54.5 -87t-41.5 -81t-16 -62.5q0 -37 38 -37q28 0 63.5 13.5
t70.5 38.5t60 57q3 4 8 4t8.5 -6t-1.5 -11q-25 -33 -62 -59.5t-75.5 -41.5t-71.5 -15zM776 232q-14 0 -28.5 0.5t-30.5 0.5q-10 0 -10 10t10 10q13 0 27 -0.5t28 -0.5q15 0 30.5 1t30.5 5q20 5 36 16t33 35q34 46 68 90t62.5 78t45.5 50q3 3 7 3q5 0 8.5 -6t-2.5 -11
q-16 -16 -44 -49.5t-61.5 -77t-67.5 -89.5q-31 -43 -66 -54t-76 -11zM765 277q-10 0 -10 10q0 5 4 8q23 19 61 50.5t79.5 67t75.5 64.5q2 2 6 2q11 0 11 -11q0 -3 -4 -7q-34 -29 -75.5 -64t-79.5 -66.5t-62 -51.5q-2 -2 -6 -2zM922 -5q-21 0 -47.5 9t-46 30t-19.5 57
q0 11 2 22t6 24q3 7 9 7q5 0 8.5 -3.5t1.5 -9.5q-7 -21 -7 -39q0 -29 15 -46t37 -24t41 -7q37 0 75 17t73 40q4 2 5 2q5 0 7.5 -3.5t2.5 -7.5q0 -5 -4 -8q-36 -23 -77 -41.5t-82 -18.5z" />
    <glyph glyph-name="B" unicode="B" horiz-adv-x="1220" 
d="M917 370q-11 0 -11 10t10 10q51 2 94.5 24.5t70 56.5t26.5 68q0 29 -22 53.5t-71 39.5t-131 15q-40 0 -91.5 -5.5t-104.5 -18.5t-100 -35t-80 -55q-7 -7 -15.5 -13t-19.5 -6q-12 0 -18 8t-6 21q0 25 15.5 48.5t40.5 43t52 32.5q64 31 149.5 44.5t169.5 13.5
q72 0 134.5 -8.5t102.5 -24.5q44 -18 74 -50.5t30 -85.5q0 -39 -15.5 -74.5t-41.5 -61.5t-58 -38q-1 -1 -4 -1q-9 0 -9 10q0 6 6 9q45 17 74 61.5t29 93.5q0 44 -24 72t-62.5 44t-82.5 23.5t-85 9t-70 1.5q-85 0 -167 -13.5t-141 -41.5q-39 -19 -68 -49t-29 -57q0 -10 7 -10
q5 0 13 8t12 13q35 36 98 61t138 38t146 13q89 0 143 -18t78 -46.5t24 -62.5q0 -40 -28.5 -78t-76 -64t-105.5 -28zM260 -34q-37 0 -79 8.5t-78 27t-59 49t-23 75.5q0 59 31.5 112t83 93.5t114 64t124.5 23.5q24 0 61.5 -6t75.5 -19.5t64.5 -35.5t28.5 -54q1 -10 -13.5 -23
t-26.5 -13q-9 0 -12 10q-3 13 -31.5 30.5t-71 31t-87.5 13.5q-49 0 -94 -20t-81 -51.5t-57 -68.5t-21 -72q0 -43 38 -72.5t128 -29.5q47 0 98 20.5t102 54.5t99 76.5t89 87.5t72 85q18 23 42.5 55t51 67t50 66t37.5 53q3 5 9 5q5 0 8 -4.5t-1 -10.5q-15 -22 -38 -54
t-49.5 -66.5t-51 -67t-42.5 -55.5q-31 -40 -73 -85.5t-91 -89t-102 -79t-106.5 -57t-103.5 -21.5q-42 0 -84.5 10.5t-71.5 37t-29 74.5t25.5 90t66.5 74t88.5 50t91.5 18q42 0 86 -12.5t77 -32t43 -39.5q11 6 16 15q-2 26 -27.5 44.5t-60.5 29.5t-68.5 16t-53.5 5
q-58 0 -117 -22t-107.5 -60.5t-78 -87t-29.5 -102.5q0 -37 19.5 -64t51.5 -44t70.5 -25t76.5 -8q82 0 159.5 30t147 78.5t127.5 106.5t100 114q2 0 6 4q41 11 91 11q29 0 57.5 -4t53.5 -12q37 -13 62.5 -36.5t25.5 -60.5q0 -22 -12 -49q-19 -42 -53 -69.5t-76 -41.5t-85 -14
q-42 0 -80 13t-64 39q-3 3 -3 7q0 5 6 8.5t11 -1.5q26 -26 57.5 -37.5t63.5 -11.5q40 0 78.5 14t69.5 37t49.5 50.5t18.5 54.5q0 24 -17.5 45t-57.5 34q-23 8 -50 12t-53 4q-47 0 -85 -11q-42 -56 -101 -115t-130.5 -108.5t-151.5 -80t-165 -30.5zM857 379q-5 0 -9 4.5
t0 10.5q13 21 34.5 54t47 71.5t47.5 72.5q3 5 8 5t9 -5t0 -11q-22 -34 -47.5 -72t-47 -71t-34.5 -54q-2 -5 -8 -5zM885 -10q-67 0 -129 20.5t-99 57.5q-3 3 -3 7q0 5 6 8.5t11 -1.5q35 -34 92.5 -53t119.5 -19q58 0 113.5 17.5t97 53.5t57.5 93q7 22 7 45q0 53 -39.5 83
t-109.5 39q-9 2 -9 10q0 12 12 10q73 -9 119.5 -44t46.5 -97q0 -12 -2 -25t-6 -27q-18 -62 -62 -101.5t-102.5 -58t-120.5 -18.5z" />
    <glyph glyph-name="C" unicode="C" horiz-adv-x="720" 
d="M242 -29q-69 0 -122 28t-82.5 79.5t-29.5 122.5q0 85 36 164.5t98 146.5t139.5 117.5t161 78.5t162.5 28q77 0 126 -20.5t72 -53.5t23 -72q0 -37 -19 -74t-55.5 -67.5t-87.5 -49t-114 -18.5q-24 0 -56 5t-63 17.5t-51.5 33.5t-20.5 54v1q0 10 10 10t10 -9q4 -34 32.5 -54
t67 -29t71.5 -9q77 0 134.5 29t89 72.5t31.5 87.5q0 34 -20.5 62.5t-64.5 46t-115 17.5q-76 0 -157 -27.5t-156 -76.5t-134.5 -114t-94.5 -140.5t-35 -156.5q0 -97 58.5 -153.5t155.5 -56.5q62 0 122.5 19.5t109.5 58t77 95.5q3 6 7.5 18t8.5 24t4 16q0 5 -0.5 6.5l-0.5 1.5
q-2 2 -8 2q-15 0 -23 -11.5t-13 -27t-14 -27.5q-25 -34 -68.5 -65.5t-92.5 -51.5t-93 -20q-80 0 -125.5 47.5t-45.5 126.5q0 68 32 137t85.5 131t120.5 110.5t137.5 76.5t135.5 28q97 0 138.5 -29.5t41.5 -69.5q0 -28 -17 -56.5t-47.5 -52.5t-70.5 -39t-85 -15q-16 0 -43 6
t-54.5 17t-46.5 28t-19 39v2q0 9 10 9q9 0 10 -8q3 -15 19 -28t39 -23.5t46 -16t39 -5.5q53 0 98.5 22t73.5 55t28 65t-36.5 56t-123.5 24q-62 0 -130 -27t-132 -74t-116 -106.5t-82.5 -125.5t-30.5 -130q0 -70 40 -112t111 -42q30 0 67.5 12.5t74.5 34t66 48.5t41 55
q9 20 18 36.5t37 16.5q29 0 29 -30q0 -7 -4.5 -21t-9.5 -27t-8 -19q-29 -61 -81.5 -102t-116.5 -61.5t-129 -20.5z" />
    <glyph glyph-name="D" unicode="D" horiz-adv-x="1159" 
d="M685 -8q-50 0 -97 15.5t-87 49.5q-4 3 -4 8t6 9t11 -1q37 -31 81 -45.5t90 -14.5q70 0 141 27.5t132.5 75.5t105 109.5t57.5 129.5q9 42 9 78q0 74 -32.5 128t-90.5 88.5t-133.5 51t-161.5 16.5q-136 0 -245.5 -27.5t-192.5 -73t-139 -100.5t-84 -111.5t-28 -105.5
q0 -56 38.5 -93t116.5 -37q62 0 132.5 34.5t128.5 99.5q15 17 34 44t36.5 58t28.5 61.5t11 54.5q0 18 -8 31q-2 2 -7 2q-9 0 -12 -3q3 -7 3 -17q0 -25 -14.5 -64.5t-38.5 -81t-53 -74.5q-30 -34 -70 -59.5t-82 -39t-80 -13.5q-59 0 -90.5 27.5t-31.5 70.5q0 14 3 29
q12 58 59 119.5t127.5 114t193 85t256.5 32.5q72 0 136.5 -15t114.5 -46t78.5 -79.5t28.5 -115.5q0 -16 -2 -34t-6 -37q-12 -55 -47.5 -107.5t-87.5 -95.5t-113 -68.5t-124 -25.5q-35 0 -69.5 9.5t-66.5 29.5q-5 3 -5 8t5 8.5t11 -0.5q29 -18 60.5 -26.5t63.5 -8.5
q59 0 117 24t107.5 64t84 90.5t45.5 102.5q4 18 5.5 34.5t1.5 31.5q0 82 -45.5 134.5t-122 77.5t-170.5 25q-142 0 -252 -31.5t-187 -82.5t-122 -109.5t-56 -111.5q-1 -6 -1.5 -12t-0.5 -11q0 -35 25 -57.5t77 -22.5q35 0 74 13t76.5 36.5t66.5 56.5q30 34 52.5 74.5t35 76
t12.5 54.5q0 7 -1 10q-1 2 -1.5 4t-0.5 4q0 11 10 17t22 6q17 0 25 -11q11 -17 11 -41q0 -28 -12.5 -62t-31 -67t-38 -60t-33.5 -43q-61 -68 -135 -104.5t-141 -36.5q-88 0 -131.5 42t-43.5 106q0 52 29 112t86 118t142.5 105.5t198.5 76t253 28.5q87 0 165.5 -17t140 -54
t97 -94.5t35.5 -138.5q0 -38 -9 -82q-15 -70 -60 -134.5t-109 -115t-138.5 -80t-148.5 -29.5zM114 -34q-16 0 -22 6.5t-6 15.5q0 16 14 33.5t29 17.5q59 0 122.5 29.5t125.5 77t117 105t95 112.5q17 24 42 56t51.5 66.5t50 65.5t37.5 53q3 5 9 5q5 0 8.5 -4.5t-0.5 -10.5
q-15 -22 -38.5 -54t-50 -66.5t-51.5 -66.5t-42 -56q-40 -55 -95.5 -113.5t-120 -108t-131 -80t-129.5 -30.5q-3 0 -13.5 -10t-10.5 -17q0 -6 9 -6q109 0 210 50t195.5 141.5t183.5 217.5q14 20 35.5 53t46.5 71.5t47 72.5q3 5 8 5t9 -5t-1 -11q-22 -34 -47 -72.5t-46.5 -72
t-35.5 -53.5q-89 -126 -185.5 -219.5t-201 -145.5t-218.5 -52z" />
    <glyph glyph-name="E" unicode="E" horiz-adv-x="733" 
d="M13 390q-6 0 -9 6q-28 55 -28 111q0 51 21 97.5t58 82.5t85.5 57t103.5 21q51 0 94.5 -14t85 -32.5t86 -32.5t95.5 -14q35 0 59 6.5t37 15.5q9 6 18 8.5t16 2.5q15 0 24 -9t9 -22q0 -11 -7 -22.5t-23 -20.5q-32 -19 -69 -27.5t-75 -8.5q-63 0 -121 20q-40 13 -77 28.5
t-74.5 27t-81.5 11.5h-12t-13 -1q-45 -4 -80 -29t-55 -63.5t-20 -85.5q0 -44 19 -88q1 -1 2 -3.5t1 -4.5q0 -10 -11 -10q-5 0 -8 6q-22 50 -22 100q0 51 21.5 94.5t60.5 71.5t90 32q8 1 14.5 1h13.5q47 0 87 -12t78 -28t77 -29.5t84 -16.5q6 0 12 -0.5t12 -0.5q42 0 77 9
t60 24q20 11 20 26q0 11 -13 11q-11 0 -23 -8q-21 -13 -48 -19t-56 -6q-32 0 -64.5 6t-58.5 15q-41 14 -79 31t-76.5 29t-83.5 12q-52 0 -97.5 -19.5t-79.5 -53t-53.5 -76t-19.5 -89.5q0 -53 26 -102q1 -2 1 -5q0 -10 -10 -10zM146 303q-37 0 -54 14t-17 31q0 18 17.5 33.5
t51.5 15.5q25 0 48.5 -2.5t46.5 -6.5q15 17 43 48t59.5 64.5t60 60.5t44.5 37q11 6 22 6q17 0 32 -12t15 -27q0 -14 -14 -25q-16 -12 -30 -26.5t-30 -31.5t-35.5 -37.5t-45.5 -45.5q-3 -3 -7 -3q-6 0 -9 6t2 11q35 33 71 74t71 69q6 5 6 10q0 8 -8.5 13t-18.5 5q-6 0 -11 -3
q-16 -9 -44 -36.5t-60 -61.5t-59.5 -64.5t-42.5 -47.5q-3 -3 -9 -3q-23 3 -47 6t-50 3q-23 0 -36 -9t-13 -20q0 -10 12.5 -17.5t38.5 -7.5q10 0 10 -10t-10 -10zM164 -9q-68 0 -95 22t-27 56q0 28 13 60t32.5 64t40.5 60t36 47q3 4 7 4q5 0 9 -5.5t-1 -10.5
q-18 -22 -38.5 -51t-39 -59.5t-30 -59t-11.5 -49.5q0 -34 32 -46t72 -12q37 0 85 3t100.5 10t102.5 17.5t92 25.5q9 3 19.5 15.5t6.5 22.5l-1.5 0.5t-3.5 0.5q-5 0 -16 -4q-17 -7 -57 -16t-90 -17.5t-98 -14t-81 -5.5q-43 0 -60 15t-17 38q0 26 14.5 57t35.5 61.5t39.5 54
t27.5 33.5q3 3 8 3h37q33 0 79.5 1t97.5 4t96.5 9t75.5 15q6 2 18 9t21.5 17t7.5 20h-4q-2 0 -5.5 -0.5t-9.5 -2.5q-31 -11 -78.5 -16t-101 -6.5t-102.5 -1.5h-88q-10 0 -10 10t10 10h89q48 0 100 1.5t98.5 6.5t75.5 15q12 4 22 4q24 0 24 -22q0 -16 -15.5 -35t-45.5 -28
q-31 -10 -78 -16t-98.5 -9t-98.5 -4t-80 -1h-32q-23 -26 -48.5 -60t-43.5 -68.5t-18 -61.5q0 -14 8.5 -21t24.5 -10q5 -1 11 -1.5t13 -0.5q31 0 78 5.5t96.5 14t89 17.5t55.5 15q15 6 25 6q13 0 18.5 -7t5.5 -17q0 -14 -10.5 -30t-29.5 -23q-43 -15 -94.5 -26t-104.5 -18
t-101.5 -10.5t-86.5 -3.5z" />
    <glyph glyph-name="F" unicode="F" horiz-adv-x="990" 
d="M812 395q-5 0 -8.5 5t0.5 11q9 12 26.5 34.5t38 49.5t39.5 51.5t31.5 40l12.5 15.5q5 7 13.5 2.5t20 -12t23.5 -9.5q2 0 3.5 -0.5t2.5 -0.5q18 0 23 20q5 17 -11 32.5t-40.5 27.5t-47.5 20t-33 11q-64 20 -143 31t-148 11q-32 0 -77.5 -2t-96 -8.5t-99.5 -20t-87 -35.5
t-67 -55.5t-29 -73.5q0 -21 5 -30.5t10 -9.5q11 0 11 20q0 38 25.5 70t51.5 49q51 34 135.5 50t175.5 16q64 0 126 -7.5t114.5 -22.5t86.5 -38q5 -2 5 -8q0 -5 -4.5 -8.5t-10.5 0.5q-33 21 -83.5 35.5t-110.5 22t-122 7.5q-89 0 -170.5 -15.5t-129.5 -47.5
q-25 -17 -47 -45.5t-22 -57.5q0 -19 -9.5 -29.5t-21.5 -10.5q-13 0 -24 14.5t-11 45.5q0 32 15.5 60t40 50t50.5 37q40 23 90.5 36.5t103 20.5t99 9t77.5 2q39 0 94 -5t113.5 -16t111.5 -28t87 -41q16 -11 27 -25t11 -31q0 -3 -0.5 -6t-1.5 -6q-5 -19 -16 -27t-25 -8
q-13 0 -28 6.5t-27 13.5q-9 -12 -28.5 -36.5t-42 -53.5t-42 -54.5t-28.5 -38.5q-3 -4 -8 -4zM647 294q-15 1 -39 2.5t-50.5 4t-49 7.5t-34.5 14q-16 12 -16 41q0 15 7.5 27.5t25.5 13.5q6 1 12 1h11q46 0 90 -12t89 -17q32 40 66.5 83.5t63.5 80t43 54.5q3 4 8 4t9 -5.5
t-1 -10.5q-15 -19 -45 -56.5t-65 -81.5t-66 -84q-3 -3 -13 -3q-13 0 -33 4t-37 8t-20 5q-28 5 -56 8.5t-54 1.5q-7 -1 -11 -9t-4 -17q0 -15 8 -20q9 -7 31 -11t47.5 -6.5t49 -4t35.5 -2.5q9 0 9 -10q0 -4 -3 -7.5t-8 -2.5zM205 -22q-26 0 -55.5 6t-56 19t-43 35t-16.5 54
q0 47 27.5 86t72 67t98 43t105.5 15q17 0 49 -4t64.5 -14t52.5 -29q11 -10 15 -20t4 -20q0 -17 -11.5 -29.5t-28.5 -12.5q-19 0 -37 17q-13 12 -40.5 27t-70.5 15q-60 0 -106 -19.5t-72 -48t-26 -54.5q0 -23 24 -39.5t77 -16.5q47 0 113 26t135.5 76t128.5 121q3 4 8 4
t9 -5.5t-1 -10.5q-60 -73 -132 -124.5t-141 -79t-120 -27.5q-63 0 -92 22t-29 53q0 32 27.5 65t78 55.5t118.5 22.5q48 0 79 -17t46 -31q14 -12 24 -12q8 0 13 6.5t5 14.5q0 20 -19 33t-47 21t-55 11.5t-43 3.5q-49 0 -98.5 -14t-91 -39.5t-67 -60t-25.5 -75.5
q0 -34 22.5 -55t57 -31t70.5 -10q78 0 147 23t127.5 59.5t105 77t79.5 74.5q32 35 47 57t22 22h49.5t76.5 2.5t82 9t65 17.5q6 3 16 10.5t17.5 17.5t4.5 19h-2q-1 0 -4 -0.5t-8 -2.5q-39 -19 -81.5 -24.5t-85.5 -5.5q-19 0 -37.5 0.5t-36.5 0.5q-10 0 -10 10t10 10
q18 0 36.5 -0.5t37.5 -0.5q41 0 81 5t77 23q12 6 21 6q22 0 22 -24q0 -14 -12 -32.5t-38 -29.5q-26 -12 -65.5 -18.5t-81.5 -9t-77 -3t-52 -0.5q-75 -96 -150 -157t-145 -95t-130.5 -47.5t-107.5 -13.5z" />
    <glyph glyph-name="G" unicode="G" horiz-adv-x="733" 
d="M242 -29q-69 0 -122 28t-82.5 79.5t-29.5 122.5q0 85 36 164.5t98 146.5t139.5 117.5t161 78.5t162.5 28q77 0 126 -20.5t72 -53.5t23 -72q0 -37 -19 -74t-55.5 -67.5t-87.5 -49t-114 -18.5q-24 0 -56 5t-63 17.5t-51.5 33.5t-20.5 54v1q0 10 10 10t10 -9q4 -34 32.5 -54
t67 -29t71.5 -9q77 0 134.5 29t89 72.5t31.5 87.5q0 34 -20.5 62.5t-64.5 46t-115 17.5q-76 0 -157 -27.5t-156 -76.5t-134.5 -114t-94.5 -140.5t-35 -156.5q0 -97 58.5 -153.5t155.5 -56.5q68 0 134.5 23.5t115.5 69.5q3 3 7 3q11 0 11 -11q0 -3 -4 -7
q-52 -49 -122.5 -73.5t-141.5 -24.5zM188 -288q-48 0 -82.5 23.5t-34.5 80.5q0 34 10 48t23 14q14 0 28.5 -14t19.5 -35q6 -21 18.5 -29.5t28.5 -8.5q20 0 42.5 10t45 24t40.5 28t27 22q45 39 89.5 87t85 97.5t72 92.5t50.5 71q3 5 8 5t9 -5t0 -11q-25 -37 -61.5 -86
t-80 -101t-90.5 -100.5t-94 -86t-91 -55.5q-13 -5 -26.5 -8.5t-27.5 -3.5q-21 0 -38.5 11.5t-25.5 40.5q-10 35 -24 35q-7 0 -12.5 -12t-5.5 -32q0 -44 27 -63t68 -19q47 0 100.5 20t92.5 51q45 35 92 85t92 107.5t85.5 116t72 112t50.5 95.5q7 15 9.5 26t2.5 19q0 10 -3 15
t-6 7q-4 3 -11 3q-16 0 -29 -16q-32 -37 -73.5 -82.5t-89.5 -91.5t-100.5 -84.5t-106 -62t-106.5 -23.5q-80 0 -125.5 47.5t-45.5 126.5q0 68 32 137t85.5 131t120.5 110.5t137.5 76.5t135.5 28q97 0 138.5 -29.5t41.5 -69.5q0 -28 -17 -56.5t-47.5 -52.5t-70.5 -39t-85 -15
q-16 0 -43 6t-54.5 17t-46.5 28t-19 39v2q0 9 10 9q9 0 10 -8q3 -15 19 -28t39 -23.5t46 -16t39 -5.5q53 0 98.5 22t73.5 55t28 65t-36.5 56t-123.5 24q-62 0 -130 -27t-132 -74t-116 -106.5t-82.5 -125.5t-30.5 -130q0 -70 40 -112t111 -42q49 0 100 22.5t101 60t97 82.5
t88.5 90t73.5 83q19 22 44 22q17 0 28.5 -11.5t11.5 -34.5q0 -22 -13 -52q-19 -43 -51 -97t-73 -113.5t-87 -117.5t-93.5 -109t-93.5 -87q-41 -33 -97 -54t-106 -21z" />
    <glyph glyph-name="H" unicode="H" horiz-adv-x="1222" 
d="M1025 70q-32 0 -45 15.5t-13 38.5q0 27 11.5 58t25.5 58t22 40q22 38 58 92t81.5 112.5t96.5 111t102.5 88t100.5 42.5q26 4 26 22q0 9 -8.5 16t-23.5 5q-18 -3 -52 -12t-72 -35q-65 -44 -143 -128t-160 -200q-3 -4 -7 -4q-6 0 -9.5 5t0.5 11q82 116 161 201.5t146 130.5
q9 6 33 18.5t53.5 22.5t54.5 10q17 0 29.5 -7.5t16.5 -26.5q3 -16 -8 -30.5t-35 -18.5q-45 -6 -94 -40t-98 -85t-93.5 -108t-80 -110.5t-58.5 -92.5q-6 -10 -19.5 -35t-25 -54.5t-11.5 -53.5q0 -16 8.5 -26.5t29.5 -10.5q28 0 62.5 12.5t68 37t58.5 59.5q3 4 7 4
q5 0 8.5 -5.5t0.5 -10.5q-26 -37 -61.5 -63t-73 -40t-70.5 -14zM282 -51q-81 -7 -150 13t-111 66.5t-42 117.5q0 60 33 108.5t88 83t121.5 53t133.5 18.5q35 0 77.5 -5t82.5 -16.5t67.5 -33t32.5 -54.5q2 -14 -4 -24t-18 -10q-8 0 -15 4q-17 9 -33 19.5t-34 19.5
q-25 13 -60.5 23.5t-81.5 10.5q-52 0 -106 -14t-98.5 -40t-72 -63t-27.5 -83q0 -48 30.5 -76t79 -38.5t102.5 -6.5q51 5 107.5 39t114.5 88.5t114.5 119t107.5 131t92 126t68 100.5q-34 20 -83.5 33t-107.5 19.5t-118 6.5q-88 0 -169 -15t-129 -47q-25 -17 -47 -45.5
t-22 -57.5q0 -19 -9.5 -29.5t-21.5 -10.5q-13 0 -24 14.5t-11 45.5q0 32 15.5 60t40 50t50.5 37q40 23 90.5 36.5t103 20.5t99 9t77.5 2q39 0 94 -5t113.5 -16t111.5 -28t87 -41q16 -11 27 -25t11 -31q0 -3 -0.5 -6t-1.5 -6q-5 -19 -16 -27t-25 -8q-13 0 -27.5 6t-26.5 14
q-9 -15 -31 -49t-48.5 -74.5t-51.5 -75.5h164q10 0 10 -10t-10 -10h-183q-7 0 -9.5 5t1.5 11q22 31 47.5 69t48 73t37 57.5l14.5 22.5q3 4 8 4q8 0 21.5 -10t28.5 -12q2 0 3.5 -0.5t2.5 -0.5q18 0 23 20q5 17 -11 32.5t-40.5 27.5t-47.5 20t-33 11q-64 20 -143 31t-148 11
q-32 0 -77.5 -2t-96 -8.5t-99.5 -20t-87 -35.5t-67 -55.5t-29 -73.5q0 -21 5 -30.5t10 -9.5q11 0 11 20q0 38 25.5 70t51.5 49q51 34 135.5 50t175.5 16q64 0 126 -7.5t114.5 -22.5t86.5 -38q4 -1 4.5 -5.5t-1.5 -8.5q-28 -43 -70.5 -104t-94 -129t-109.5 -134.5
t-118.5 -122.5t-119.5 -91t-113 -40q-62 -5 -115 8t-85.5 46t-32.5 86q0 51 29 92t77 69.5t105 44t113 15.5q58 0 106 -17t97 -49l10 -6t10 -5q3 0 3 5v6q-4 28 -30 45.5t-64 27.5t-77.5 14t-70.5 4q-66 0 -129 -17.5t-114 -50t-81.5 -77t-30.5 -98.5q0 -65 40 -106
t104.5 -58.5t137.5 -11.5q51 4 105 30t107 64.5t100.5 82.5t85 86t61.5 74q3 4 8 4t9 -5t-1 -11q-24 -31 -62.5 -74t-87 -88.5t-103 -85t-111 -66t-109.5 -31.5zM983 -5q-61 0 -85 29.5t-24 72.5q0 33 10 69t24.5 68.5t26.5 54.5h-131q-10 0 -10 10t10 10l149 -1
q8 0 10 -4.5t-2 -10.5q-13 -19 -29 -52t-27.5 -70t-11.5 -70q0 -37 19.5 -61.5t70.5 -24.5q37 0 75 17t73 40q4 2 5 2q5 0 7.5 -3.5t2.5 -7.5q0 -5 -4 -8q-36 -23 -77 -41.5t-82 -18.5z" />
    <glyph glyph-name="I" unicode="I" horiz-adv-x="913" 
d="M245 -53q-43 0 -90 10t-86.5 32.5t-64.5 61.5t-25 96q0 59 32 109t85.5 86.5t117.5 56.5t127 20q35 0 79.5 -6t87 -19.5t72.5 -36.5t35 -57q2 -14 -4.5 -24t-17.5 -10q-8 0 -15 4q-17 9 -33 19.5t-34 19.5q-25 13 -60.5 23.5t-81.5 10.5h-15t-16 -1q-90 -8 -150.5 -39.5
t-91.5 -74.5t-31 -85q0 -49 43.5 -86t131.5 -37q8 0 17.5 0.5t19.5 1.5q51 5 107.5 39t114.5 88.5t114.5 119t107.5 131t92 126t68 100.5q-31 17 -77 30t-90 13q-71 0 -109.5 -42t-38.5 -113q0 -19 -9.5 -29t-22.5 -10q-14 0 -26.5 15t-12.5 49q0 48 17 87t37 63
q32 37 85 53t113 16q56 0 111 -11.5t100.5 -32t73 -46.5t27.5 -56q0 -4 -0.5 -7.5t-1.5 -7.5q-5 -19 -16 -26.5t-25 -7.5q-16 0 -33 7.5t-30 17.5q-4 3 -4 7q0 6 5.5 10t10.5 -1q9 -7 23 -14.5t27 -7.5q8 0 14 4.5t9 15.5q1 2 1 5v5q0 24 -26 46.5t-69.5 41t-95.5 29
t-104 10.5q-55 0 -102.5 -14.5t-76.5 -47.5q-19 -22 -34.5 -58t-15.5 -80q0 -23 6 -34t13 -11q12 0 12 20q0 78 44 126.5t124 48.5q51 0 102.5 -16t83.5 -35q9 -5 3 -15q-28 -43 -70.5 -104t-94 -129t-109.5 -134.5t-118.5 -122.5t-119.5 -91t-113 -40q-10 -1 -19.5 -1.5
t-18.5 -0.5q-65 0 -108.5 19.5t-65 52t-21.5 70.5q0 47 32.5 94.5t97.5 82t161 43.5q8 1 17 1h16q58 0 106 -17t97 -49l10 -6t10 -5q3 0 3 5v6q-4 26 -26 44t-54.5 29t-68 17.5t-67 8.5t-51.5 2q-60 0 -119 -21t-106.5 -56.5t-76 -81t-28.5 -93.5q0 -49 22 -83.5t58.5 -55.5
t80 -30.5t85.5 -9.5q9 0 18 0.5t18 1.5q63 6 141 45t163.5 112.5t172.5 181.5t169 250q3 5 9 5q5 0 9 -4.5t0 -10.5q-82 -143 -170.5 -252.5t-175.5 -184.5t-168 -115.5t-148 -46.5q-9 -1 -18 -1.5t-19 -0.5z" />
    <glyph glyph-name="J" unicode="J" horiz-adv-x="808" 
d="M108 -248q-75 0 -130.5 31t-85.5 81.5t-30 106.5q0 65 34 114.5t90 84t122.5 52t131.5 17.5q35 0 79 -8.5t82.5 -27.5t56.5 -51q3 -4 0 -15.5t-10 -21t-19 -9.5q-11 0 -25 12q-27 24 -57.5 33t-65.5 9q-54 0 -108 -12t-99.5 -36t-72.5 -59.5t-27 -82.5q0 -34 18 -64
t51 -48t79 -18q61 0 141 40.5t172 139.5q128 137 236 292.5t210 312.5q-31 17 -77 30.5t-90 13.5q-71 0 -109.5 -42t-38.5 -113q0 -19 -9.5 -29t-22.5 -10q-14 0 -26.5 15t-12.5 49q0 48 17 87t37 63q32 37 85 53t113 16q56 0 111 -11.5t100.5 -32t73 -46.5t27.5 -56
q0 -4 -0.5 -7.5t-1.5 -7.5q-5 -19 -16 -26.5t-25 -7.5q-16 0 -33 7.5t-30 17.5q-4 3 -4 7q0 6 5.5 10t10.5 -1q9 -7 23 -14.5t27 -7.5q8 0 14 4.5t9 15.5q1 2 1 5v5q0 24 -26 46.5t-69.5 41t-95.5 29t-104 10.5q-55 0 -102.5 -14.5t-76.5 -47.5q-19 -22 -34.5 -58t-15.5 -80
q0 -23 6 -34t13 -11q12 0 12 20q0 78 44 126.5t124 48.5q51 0 102.5 -16t83.5 -35q9 -5 3 -15q-8 -12 -30 -46.5t-55.5 -85t-75.5 -111.5q-41 -60 -89.5 -125.5t-100 -129t-103.5 -119.5q-95 -103 -179 -144.5t-149 -41.5q-51 0 -88.5 21t-58 55.5t-20.5 73.5q0 53 29 92
t77.5 65t106.5 39t115 13q38 0 72 -9.5t64 -36.5q6 -6 8 -7q4 0 8 6t5 10l1 1q-13 22 -37.5 36.5t-53.5 23t-56.5 12t-47.5 3.5q-61 0 -124.5 -16t-117.5 -47.5t-87.5 -77.5t-33.5 -107q0 -51 27.5 -96t78.5 -73t120 -28q77 0 173 43t205 146q79 75 156 171.5t149 205.5
t135 219q3 5 9 5q5 0 9 -4.5t0 -10.5q-63 -110 -135.5 -219.5t-150.5 -207t-158 -173.5q-112 -106 -212 -151t-180 -45z" />
    <glyph glyph-name="K" unicode="K" horiz-adv-x="1389" 
d="M266 -53q-43 0 -90 10t-86.5 32.5t-64.5 61.5t-25 96q0 59 32 109t85.5 86.5t117.5 56.5t127 20q35 0 79.5 -6t87 -19.5t72.5 -36.5t35 -57q2 -14 -4.5 -24t-17.5 -10q-8 0 -15 4q-17 9 -33 19.5t-34 19.5q-25 13 -60.5 23.5t-81.5 10.5q-52 0 -106 -14t-98.5 -40
t-72 -63t-27.5 -83q0 -49 43.5 -86t131.5 -37q59 0 121 32t123.5 85t120 118.5t110.5 134t94.5 130t71.5 106.5q-31 17 -77 30t-90 13q-71 0 -109.5 -42t-38.5 -113q0 -19 -9.5 -29t-22.5 -10q-14 0 -26.5 15t-12.5 49q0 48 17 87t37 63q30 35 76 52t103 17q61 0 130.5 -18
t141.5 -52q20 -10 28.5 -21.5t8.5 -23.5q0 -15 -10.5 -28.5t-26 -22t-29.5 -8.5q-10 0 -17 4q-5 3 -5 8t5 9t11 0q5 -3 17.5 1.5t23.5 14.5t11 21q0 7 -5.5 14t-19.5 14q-71 34 -138.5 51t-124.5 17q-53 0 -95.5 -15t-68.5 -46q-19 -22 -34.5 -58t-15.5 -80q0 -23 6 -34
t13 -11q12 0 12 20q0 78 44 126.5t124 48.5q51 0 102.5 -16t83.5 -35q9 -5 3 -15q-32 -48 -76 -112t-97.5 -134t-113 -137t-123 -121t-127.5 -86.5t-126 -32.5q-65 0 -108.5 19.5t-65 52t-21.5 70.5q0 51 29 92t77 69.5t105 44t113 15.5q58 0 106 -17t97 -49l10 -6t10 -5
q3 0 3 5v6q-4 25 -24.5 42.5t-51 29.5t-64.5 18.5t-64.5 9.5t-51.5 3q-54 0 -113.5 -18t-111.5 -51t-84 -80t-32 -105q0 -49 22 -83.5t58.5 -55.5t80 -30.5t85.5 -9.5q73 0 148.5 33t149 90.5t142.5 133t130.5 161t111.5 173.5q3 5 9 5q5 0 9 -4.5t0 -10.5
q-52 -91 -114.5 -178t-133 -163.5t-146 -135t-152.5 -91.5t-153 -33zM1087 -91q-64 0 -114.5 22.5t-87 59.5t-60.5 80t-37 84q-4 12 -4 30q0 42 27 93t74 106t105.5 109t122.5 101.5t126 84.5t115 58t89 21q64 0 113 -17.5t61 -49.5q3 -7 3 -15q0 -18 -16 -28t-34 -10
q-6 0 -12 1t-11 4q-8 5 -24.5 11t-33.5 10.5t-30 4.5q-37 0 -89 -23t-109.5 -61t-115 -85t-106.5 -96q-59 -58 -99 -112t-45 -85q5 -35 23 -72t45 -69t60 -52t66 -20q37 0 79.5 21t83 53t74.5 67.5t55 63.5q3 5 8 5t9 -6t-1 -11q-23 -31 -58.5 -68t-77.5 -70t-86.5 -54
t-85.5 -21q-39 0 -77 22t-69 56.5t-49.5 75.5t-18.5 78v2q0 35 43 92.5t108 121.5q51 50 110 97.5t118.5 85.5t112.5 61t92 23q25 0 44.5 -7.5t36 -15t32.5 -7.5q4 0 7.5 0.5t7.5 1.5q17 6 12 22q-9 23 -50 39t-106 16q-36 0 -87.5 -21t-112 -57.5t-122.5 -83.5t-119 -99.5
t-102 -105t-71 -100.5t-26 -86q0 -6 1.5 -12t2.5 -12q12 -39 35 -80t57.5 -75.5t81 -55.5t106.5 -21q55 0 98 17.5t80 46.5t73 63q3 3 7 3q6 0 9.5 -6t-2.5 -11q-38 -36 -77.5 -66.5t-84.5 -48.5t-103 -18z" />
    <glyph glyph-name="L" unicode="L" horiz-adv-x="1002" 
d="M210 14q-42 0 -75 12q-29 11 -49 32t-20 45q0 27 25 43.5t74 16.5q53 0 107 -15t101 -37q6 -3 6 -9q0 -4 -4.5 -8t-10.5 -1q-47 22 -98 36t-100 14q-48 0 -64 -14t-16 -26q0 -14 14 -31.5t41 -27.5t67 -10q48 0 93 13q46 13 90 44.5t84 74t74.5 89t60.5 89t42 73.5
q16 32 42 82.5t60 105.5t74.5 103.5t85 79t91.5 30.5q17 0 35 -4.5t35 -15.5q29 -18 42 -44t13 -58q0 -39 -17 -81.5t-46.5 -81.5t-67.5 -70t-79 -47q-2 -1 -4 -1q-10 0 -10 11q0 5 6 8q58 22 102 66t69.5 96t25.5 98q0 27 -10.5 50t-33.5 36q-28 17 -59 17q-44 0 -86 -30
t-80.5 -78t-71.5 -101.5t-58 -101.5t-40 -78q-16 -31 -42.5 -74t-61.5 -90.5t-76.5 -91.5t-88 -77t-94.5 -47q-22 -6 -47 -10t-50 -4zM214 -40q-54 0 -103 17.5t-80 51.5t-31 82q0 49 50 81t129 32q65 0 123.5 -21t118.5 -51q6 -3 6 -9q0 -4 -4.5 -8t-10.5 -1
q-62 31 -117 50.5t-119 19.5q-75 0 -115.5 -29t-40.5 -66q0 -42 29 -71t73.5 -44t91.5 -15q82 0 153 35t132 94t112 131.5t92 146.5q14 26 36.5 66.5t49.5 86.5t57.5 89.5t60.5 75t58 41.5q17 7 34 7q41 0 57 -36q7 -14 7 -36q0 -21 -8 -46.5t-26 -54.5q-15 -24 -42.5 -47.5
t-56.5 -39.5t-50 -16h-1q-10 0 -10 10t9 10q17 1 43 15t51.5 35t38.5 43q17 29 24.5 52t7.5 40q0 15 -5 27q-10 24 -39 24q-6 0 -12.5 -1t-13.5 -4q-25 -10 -54 -41t-58.5 -73.5t-56.5 -88t-49 -85t-35 -63.5q-43 -78 -95.5 -152.5t-115.5 -134t-136.5 -94.5t-158.5 -35z
M725 21q-50 0 -100.5 17.5t-100.5 40.5q-6 3 -6 9q0 5 4 8.5t10 0.5q50 -23 98 -39.5t95 -16.5q62 0 106 17t82.5 52t80.5 89q3 4 7 4q5 0 9 -6t-1 -11q-42 -54 -82 -91t-87.5 -55.5t-114.5 -18.5zM715 -39q-64 0 -123.5 23.5t-118.5 53.5q-5 3 -5 9q0 5 4.5 8.5t10.5 0.5
q59 -30 115.5 -52.5t116.5 -22.5q72 0 130 22.5t107 71.5l37 38q3 3 7 3q6 0 9.5 -6t-2.5 -11q-23 -22 -45 -44.5t-49 -39.5q-34 -22 -81.5 -38t-112.5 -16z" />
    <glyph glyph-name="M" unicode="M" horiz-adv-x="1469" 
d="M1055 322q-4 0 -7.5 3.5t-2.5 9.5q11 47 36 93.5t60 85.5t76 64q8 5 12 5q11 0 33 -6t59 -6q7 0 11 4t4 8q0 15 -28.5 29t-77 25.5t-109 21.5t-125 18t-124.5 13t-108.5 8t-75.5 3t-71 -2.5t-94 -11t-94.5 -25t-73 -43t-28.5 -67.5q0 -4 2 -11t7 -7q6 0 12 7.5l10 12.5
q39 50 91.5 73t111.5 29t116 6q123 0 255.5 -14t251.5 -48q8 -3 8 -10q0 -4 -3.5 -7.5t-9.5 -2.5q-118 33 -249 47.5t-253 14.5q-58 0 -114 -5.5t-105.5 -28.5t-89.5 -74q-6 -7 -13.5 -13.5t-18.5 -6.5q-16 0 -22.5 12.5t-6.5 25.5q0 46 29 76.5t75.5 49t98.5 28t99.5 12.5
t78.5 3q22 0 69 -2.5t108.5 -7.5t128.5 -13t131.5 -19t116.5 -25t83 -32t31 -39q0 -14 -11 -22.5t-22 -8.5q-23 0 -46.5 3.5t-46.5 7.5q-39 -23 -73 -61t-58 -82.5t-35 -89.5q-2 -8 -9 -8zM1286 70q-22 0 -44 12t-22 42q0 25 23.5 63t63 82.5t88 90.5t99 88t96 74.5
t77.5 49.5q27 14 56.5 23t61.5 9q29 0 57 -7t56 -7q8 0 24.5 4.5t16.5 16.5q0 14 -22 22t-52.5 11.5t-56 4.5t-32.5 1q-108 0 -215 -28.5t-198 -89.5q-86 -57 -156 -123.5t-144 -137.5q-28 -26 -55 -51t-49 -42.5t-34 -22.5q-1 -1 -4 -1q-4 0 -6.5 3.5t-2.5 7.5q0 6 6 9
q12 5 38.5 27t59.5 53.5t67 64t61.5 60t42.5 40.5q39 35 80.5 68t84.5 62q93 62 203 91.5t221 29.5q10 0 31.5 -0.5t47 -3t49.5 -9t39.5 -17.5t15.5 -29q0 -23 -21.5 -32t-39.5 -9q-28 0 -56 7t-57 7q-58 0 -109 -29.5t-98 -64.5q-19 -14 -51 -40t-70 -60t-76 -71.5t-70 -74
t-51.5 -67.5t-19.5 -53q0 -17 13.5 -25.5t32.5 -8.5q28 0 62 17.5t65 43t48 48.5q3 4 7 4q6 0 10 -5.5t-1 -10.5q-18 -24 -50.5 -51.5t-70 -46.5t-70.5 -19zM803 30q-12 0 -24 7t-12 24q0 23 15.5 36t32.5 22q34 19 60 57.5t48.5 86t44 94.5t45.5 83t54 50q1 1 4 1
q10 0 10 -11q0 -5 -6 -8q-27 -13 -49.5 -48t-43.5 -81.5t-44 -94t-50.5 -87t-63.5 -59.5q-11 -6 -24 -15.5t-13 -25.5q0 -11 16 -11q29 0 67 22.5t82.5 60.5t94.5 85q49 47 103 98.5t110.5 100.5t114.5 90t115 67q36 17 70.5 29t70.5 12q10 0 10 -10t-10 -10
q-66 -5 -134 -38.5t-135.5 -84t-132.5 -110t-126 -118t-115.5 -107t-101.5 -78t-83 -29.5zM273 -35q-41 0 -89.5 10t-92.5 33t-72 60.5t-28 91.5q0 49 25.5 89.5t67.5 72t91 53.5t98 33t87 11q44 0 93 -7.5t92 -23.5t70 -41t27 -61q0 -16 -7.5 -24t-17.5 -8q-7 0 -14.5 5.5
t-15.5 12.5q-48 39 -97 60t-114 21q-30 0 -69 -8t-79.5 -23.5t-75 -37t-55.5 -49.5t-21 -61q0 -52 28 -81t72.5 -41.5t91.5 -12.5q59 0 119.5 24.5t118 64t108.5 85.5t90 88q17 18 49.5 51.5t73.5 72.5t84 74t80.5 58t62.5 23h2q10 0 10 -10q0 -8 -9 -10q-22 -3 -57.5 -25.5
t-76.5 -56.5t-81.5 -71t-73 -69t-49.5 -51q-39 -42 -91 -88.5t-111.5 -87.5t-122.5 -66.5t-126 -25.5q-36 0 -73 7t-68.5 24.5t-51 47.5t-19.5 76q0 40 23.5 71.5t61 55.5t81 40t84.5 24t70 8q69 0 121 -22.5t102 -63.5q5 -3 10 -8t9 -5q5 0 5 12q0 30 -26.5 51.5t-68 35
t-86.5 20t-82 6.5q-38 0 -85 -11t-93 -32t-85 -50.5t-62.5 -66t-23.5 -79.5q0 -47 24.5 -80t64.5 -54t85.5 -31t87.5 -10q59 0 124.5 26.5t129.5 68t120 88.5t97 88q29 29 66 66.5t79.5 77t87 75t88 61t83.5 34.5h3q9 0 9 -10q0 -7 -8 -9q-38 -9 -80.5 -34t-86.5 -60.5
t-85.5 -74.5t-77.5 -75.5t-64 -64.5q-40 -41 -97 -88.5t-123 -90.5t-134 -70.5t-131 -27.5zM1258 1q-25 0 -53 8.5t-48 28t-20 53.5q0 49 26.5 100t69 101t92.5 95t98 83t83 64q2 2 6 2q10 0 10 -10q0 -5 -4 -8q-37 -27 -84.5 -64.5t-95.5 -81.5t-89.5 -92t-66.5 -96
t-25 -93q0 -24 15 -39.5t38.5 -23t47.5 -7.5q37 0 72.5 14t64.5 36q2 2 6 2q10 0 10 -10q0 -5 -4 -8q-31 -24 -69.5 -39t-79.5 -15z" />
    <glyph glyph-name="N" unicode="N" horiz-adv-x="1188" 
d="M849 -39q-16 0 -23.5 10.5t-7.5 24.5q0 17 9 30q5 8 12 15t13 12q17 16 31.5 55.5t26 90.5t20.5 104.5t15 98.5t9 70q2 9 10 9q12 0 10 -11q-4 -28 -10.5 -74t-15.5 -100.5t-21 -106.5t-27.5 -92.5t-34.5 -58.5q-8 -7 -17.5 -17.5t-9.5 -23.5q0 -15 12 -15q5 0 8 1
q27 7 63 36.5t75 73t76 94.5t65 101q42 73 81.5 146.5t91.5 140.5q39 51 86 94.5t102.5 70t119.5 27.5q11 0 17 4.5t6 9.5q0 12 -18 12q-85 2 -151.5 -27t-118.5 -80t-94 -114t-78 -130t-71 -127q-29 -50 -60 -92t-67 -68q-2 -2 -6 -2q-10 0 -10 10q0 5 4 8q33 24 62.5 64
t58.5 90q37 63 74 131.5t80.5 132.5t97 115.5t122.5 81t157 27.5q19 0 28.5 -9.5t9.5 -21.5q0 -13 -11 -23.5t-32 -11.5q-69 -1 -127.5 -33.5t-107 -84t-88 -110t-69.5 -111.5q-22 -38 -39.5 -71.5t-31.5 -58.5q-28 -49 -66 -101t-78.5 -98t-79 -77t-69.5 -39q-4 -1 -7 -1.5
t-6 -0.5zM985 209q-4 0 -7.5 3.5t-2.5 8.5q13 68 21.5 144t15.5 145q1 10 2 23t1 27q0 24 -6 47t-26 33q-15 8 -30 12q-45 15 -109.5 30t-139.5 25.5t-150 10.5q-74 0 -142.5 -14t-121 -47.5t-79.5 -91.5q-3 -7 -3 -12q0 -9 10 -9q8 0 17 5.5t13 15.5q16 37 53 60.5
t84.5 36.5t97 18t91.5 5q79 0 171.5 -17.5t211.5 -51.5q7 -3 7 -9q0 -4 -3.5 -7.5t-9.5 -2.5q-118 34 -209 51t-168 17q-43 0 -91 -5t-92 -17t-77 -33t-47 -53q-7 -17 -20.5 -25t-27.5 -8q-13 0 -22.5 7t-9.5 20q0 10 6 22q29 63 85 99t129 51t151 15q83 0 163.5 -12
t147.5 -29t107 -32q37 -13 48 -41t11 -62q0 -27 -3 -54q-7 -70 -15.5 -146.5t-21.5 -144.5q-1 -8 -10 -8zM264 -35q-53 0 -102.5 10.5t-88 33.5t-61 60t-22.5 91q0 49 25.5 89.5t67.5 72t91.5 53.5t98.5 33t87 11q22 0 57 -4t74 -13t73.5 -24t56 -37.5t21.5 -54.5
q0 -7 -4.5 -19.5t-20.5 -12.5q-7 0 -16 6.5t-14 10.5q-49 38 -97.5 57.5t-113.5 19.5q-30 0 -69 -7.5t-79.5 -22t-75 -35.5t-55.5 -48.5t-21 -60.5q0 -47 26.5 -76t70.5 -41.5t94 -12.5q65 0 131 17.5t106 44.5q68 46 121.5 101.5t99 117t90 124.5t95.5 124q3 4 8 4
t8.5 -5.5t-1.5 -10.5q-52 -62 -96.5 -126t-90 -125.5t-99.5 -117t-123 -102.5q-26 -17 -67.5 -32.5t-91 -25t-98.5 -9.5q-53 0 -99.5 14t-75 47.5t-28.5 89.5q0 40 23.5 71t61.5 54t81.5 38.5t84 23t69.5 7.5q68 0 120 -21t103 -61q4 -3 8.5 -6.5t9.5 -5.5q1 0 3 2.5t2 9.5
q0 26 -21 45.5t-53.5 32.5t-69 20.5t-68.5 11t-50 3.5q-38 0 -85 -11t-93.5 -32t-85.5 -50.5t-62.5 -66t-23.5 -79.5q0 -63 37 -102t96.5 -56.5t127.5 -17.5q73 0 144.5 18.5t120.5 50.5q70 46 126.5 105t105 124.5t95 132.5t97.5 130q3 4 8 4t8.5 -5.5t-1.5 -10.5
q-52 -64 -99 -132t-95.5 -133.5t-105 -124.5t-128.5 -106q-32 -21 -78 -37.5t-98.5 -25.5t-106.5 -9z" />
    <glyph glyph-name="O" unicode="O" horiz-adv-x="733" 
d="M242 -29q-69 0 -122 28t-82.5 79.5t-29.5 122.5q0 84 36 163t97 146.5t138.5 118t161.5 79t164 28.5q79 0 129 -20.5t73.5 -53.5t23.5 -72q0 -37 -19.5 -74t-56.5 -67.5t-89 -49t-116 -18.5q-24 0 -56 5t-63 17.5t-51.5 33.5t-20.5 54v1q0 10 10 10t10 -9q4 -34 32.5 -54
t67 -29t71.5 -9q79 0 137.5 29t91 72.5t32.5 87.5q0 34 -21.5 62.5t-66.5 46t-118 17.5q-78 0 -159 -27.5t-156 -77t-134 -114.5t-93.5 -140.5t-34.5 -155.5q0 -97 58.5 -153.5t155.5 -56.5q76 0 144 27.5t122.5 76t92 112t52.5 136.5q1 8 10 8q5 0 8.5 -3.5t1.5 -8.5
q-16 -76 -55 -142.5t-96.5 -117t-128.5 -79.5t-151 -29zM250 17q-54 0 -90 25t-54.5 67.5t-18.5 93.5q0 67 31.5 135t84.5 130.5t119.5 111.5t137.5 77.5t138 28.5q96 0 137 -29.5t41 -69.5q0 -37 -29.5 -74.5t-78.5 -63t-110 -25.5q-16 0 -43 6t-54.5 17t-46.5 28t-19 39v2
q0 9 10 9q9 0 10 -8q3 -15 19 -28t39 -23.5t46 -16t39 -5.5q53 0 98 22t72.5 55t27.5 65t-36 56t-122 24q-64 0 -132 -27.5t-132 -75t-115.5 -107.5t-81.5 -125t-30 -128q0 -72 36.5 -119t106.5 -47q49 0 96.5 24.5t89.5 62.5t75 80.5t53 79t22 56.5q2 9 10 9q4 0 7.5 -3
t2.5 -8q-2 -22 -23 -61t-55 -83.5t-79 -85t-95.5 -66t-103.5 -25.5z" />
    <glyph glyph-name="P" unicode="P" horiz-adv-x="1043" 
d="M190 137q-52 0 -97 20.5t-72 62t-27 104.5q0 80 39 144t105.5 112t152 79.5t179.5 47.5t186 16q87 0 165.5 -14t139.5 -42.5t96 -71t35 -98.5q0 -81 -51 -134.5t-144.5 -80.5t-220.5 -27q-10 0 -10 10t10 10q191 0 293.5 58t102.5 164q0 51 -33.5 89.5t-91.5 64.5
t-132.5 39t-157.5 13q-89 0 -180.5 -15t-174 -45t-147.5 -75.5t-103 -106t-38 -137.5q0 -54 25 -91.5t67 -57t91 -19.5q62 0 126.5 32.5t110.5 100.5q19 28 33.5 62.5t23 69.5t8.5 63q0 38 -16 53h-1q-3 0 -8 -1t-7 -2q6 -13 6 -37q0 -27 -7.5 -62t-21.5 -70t-33 -63
q-23 -34 -59.5 -59.5t-78 -39.5t-81.5 -14q-55 0 -94.5 31t-39.5 102t34.5 126.5t94 96.5t135 68t158.5 40t163 13q72 0 137 -10.5t115 -31.5t78.5 -51.5t28.5 -71.5q0 -47 -28 -82.5t-74 -59.5t-100 -36t-106 -12q-10 0 -10 10t10 10q52 0 103 11.5t93 33.5t67 53.5
t25 71.5q0 35 -26.5 62t-73.5 45.5t-108 28t-129 9.5q-77 0 -157 -12.5t-153.5 -37.5t-131 -63.5t-91.5 -91t-34 -119.5q0 -58 37 -86t88 -28q50 0 103.5 26.5t87.5 78.5q19 29 32 63t20 66.5t7 55.5q0 22 -6 31q-2 3 -2 8q0 9 11 14.5t23 5.5t18 -6q12 -10 17 -27.5
t5 -39.5q0 -32 -9.5 -70t-25 -74t-33.5 -62q-31 -46 -74.5 -77.5t-91.5 -47.5t-95 -16zM378 0q-19 0 -31 15.5t-12 30.5q0 14 10 20q56 35 104 103.5t106 180.5q12 23 29 57t35.5 70.5t34.5 70t26 55.5q3 6 9 6q5 0 8.5 -4t0.5 -10q-10 -22 -26 -55.5t-34.5 -70.5l-35.5 -71
l-29 -58q-57 -111 -107 -182.5t-111 -108.5q-1 -5 5 -16.5t18 -11.5q5 0 11 3q48 26 91 75t81 112t71 131t61 132.5t51 115.5q3 6 9 6q5 0 8.5 -4t1.5 -10q-24 -52 -52.5 -118t-62 -135t-72.5 -132.5t-83 -113.5t-94 -77q-10 -6 -21 -6z" />
    <glyph glyph-name="Q" unicode="Q" horiz-adv-x="733" 
d="M242 -29q-69 0 -122 28t-82.5 79.5t-29.5 122.5q0 84 36 163t97 146.5t138.5 118t161.5 79t164 28.5q79 0 129 -20.5t73.5 -53.5t23.5 -71q0 -37 -19.5 -74t-56.5 -68t-89 -49.5t-116 -18.5q-24 0 -55 5t-61 17.5t-51 33.5t-24 54v1q0 10 10 10t10 -9q4 -34 32.5 -54
t67 -29t71.5 -9q79 0 137.5 29t91 72.5t32.5 87.5q0 34 -21.5 62.5t-66.5 46t-118 17.5q-78 0 -159 -27.5t-156 -77t-134 -114.5t-93.5 -140.5t-34.5 -155.5q0 -97 58.5 -153.5t155.5 -56.5q76 0 144 27.5t122.5 76t92 112t52.5 136.5q1 8 10 8q5 0 8.5 -3.5t1.5 -8.5
q-16 -76 -55 -142.5t-96.5 -117t-128.5 -79.5t-151 -29zM250 17q-54 0 -90 25t-54.5 67.5t-18.5 93.5q0 67 31.5 135t84.5 130.5t119.5 111.5t137.5 77.5t138 28.5q96 0 137 -29.5t41 -69.5q0 -37 -29.5 -74.5t-78.5 -63t-110 -25.5q-16 0 -41.5 6t-52 17.5t-46 28
t-23.5 38.5v2q0 9 10 9q9 0 10 -8q3 -15 19 -28t39 -23.5t46 -16t39 -5.5q53 0 98 22t72.5 55t27.5 65t-36 56t-122 24q-64 0 -132 -27.5t-132 -75t-115.5 -107.5t-81.5 -125t-30 -128q0 -72 36.5 -119t106.5 -47q49 0 96.5 24.5t89.5 62.5t75 80.5t53 79t22 56.5q2 9 10 9
q4 0 7.5 -3t2.5 -8q-2 -22 -23 -61t-55 -83.5t-79 -85t-95.5 -66t-103.5 -25.5zM578 -283q-48 0 -98 20t-100 47t-99 47t-97 20q-10 0 -20 -1t-21 -4h-3q-10 0 -10 11q0 8 7 9q24 6 47 6q51 0 101.5 -20.5t100 -47t98 -47t94.5 -20.5q27 0 53 9.5t51 31.5q6 6 16.5 16t19 21
t8.5 19q-1 12 -15 12q-6 0 -12 -4.5t-13 -11.5q-26 -26 -53 -37t-56 -11q-45 0 -92.5 20t-96 47t-97 47t-95.5 20q-10 0 -20 -1t-21 -4h-3q-10 0 -10 11q0 8 7 9q23 6 46 6q50 0 100 -20.5t98.5 -47t94.5 -47t89 -20.5q25 0 49 10t46 32t40 22q17 0 25 -9.5t8 -22.5
q0 -17 -16 -36t-32 -33q-28 -26 -58 -37t-61 -11z" />
    <glyph glyph-name="R" unicode="R" horiz-adv-x="1367" 
d="M934 215q-10 0 -10 10t9 10q62 5 120.5 25.5t106 53.5t75.5 77.5t28 96.5q0 49 -22.5 82t-61 53t-85.5 30t-96.5 13.5t-94.5 4.5q-89 2 -175.5 -10.5t-160 -36.5t-125 -57t-70.5 -73q-4 -9 -6 -14t4 -5q11 0 25 8.5t21 15.5q32 33 85 59t118.5 44t136 27.5t137.5 9.5
q58 0 112.5 -8t97.5 -26.5t68.5 -48.5t25.5 -74q0 -53 -32 -95t-85.5 -71t-119.5 -44t-135 -15h-1q-9 0 -9 10t10 10q66 3 128.5 18t113 41t80 62.5t29.5 81.5q0 49 -37 79.5t-100.5 45t-144.5 14.5q-67 0 -136 -9t-132 -26.5t-114 -42.5t-82 -56q-12 -12 -30.5 -20.5
t-32.5 -8.5q-21 0 -21 18q0 12 8 28q21 45 76 81t131.5 60.5t164.5 37t177 10.5q42 -1 92.5 -4.5t101.5 -14.5t93 -32.5t68 -57.5t26 -92q0 -60 -30 -110t-80.5 -87t-112.5 -57.5t-126 -20.5h-1zM281 -34q-90 0 -147.5 25t-84.5 66t-27 88q0 48 24.5 96t71 88.5t111 65
t145.5 24.5q24 0 61.5 -6t75.5 -19.5t64.5 -35.5t28.5 -54q1 -19 -10 -32t-23 -13q-15 0 -19 19q-3 13 -32 30.5t-71 31t-87 13.5q-54 0 -99.5 -18t-78.5 -47t-51.5 -63.5t-18.5 -67.5q0 -48 42.5 -83t139.5 -35q59 0 120 31t119.5 80.5t109.5 105.5t90 107q18 23 42.5 55
t51 67t50 66t37.5 53q3 5 9 5q5 0 8 -4.5t-1 -10.5q-15 -22 -38 -54t-49.5 -66.5t-51 -67t-42.5 -55.5q-31 -40 -70.5 -85.5t-85.5 -89t-96 -79t-101.5 -57t-101.5 -21.5q-71 0 -116 19t-65.5 50t-20.5 68t19.5 75.5t55.5 70.5t85 51.5t108 19.5q33 0 68 -8t65.5 -21.5
t51 -29.5t24.5 -32q0 -1 0.5 -2l0.5 -1q6 2 9 10.5t3 12.5q-1 27 -26.5 45.5t-60.5 30t-69 16.5t-54 5q-75 0 -136.5 -23t-105.5 -60t-67.5 -81.5t-23.5 -88.5q0 -43 25 -79.5t78 -58.5t137 -22q101 0 186.5 39t158 103.5t134 144.5t115.5 163t102 156q3 5 8 5t9 -5t0 -11
q-50 -76 -104.5 -160.5t-117.5 -165t-137 -146t-161.5 -104.5t-192.5 -39zM1084 -26q-45 0 -84 20.5t-69 54t-47 73t-17 76.5v2q0 9 10 9q9 0 10 -9q5 -35 21 -71t42.5 -66.5t60.5 -49.5t73 -19q31 0 70 21t78.5 53.5t73 67.5t53.5 63q3 5 8 5q6 0 9.5 -5t-1.5 -12
q-22 -30 -57 -66.5t-76 -70t-82 -55t-76 -21.5zM1066 -91q-64 0 -114.5 22.5t-87 59.5t-60.5 80t-37 84q0 1 -0.5 1.5t-0.5 1.5q0 10 11 10q6 0 9 -7q12 -39 35 -80t57.5 -75.5t81 -55.5t106.5 -21q55 0 98 17.5t80 46.5t73 63q3 3 7 3q6 0 9.5 -6t-2.5 -11
q-38 -36 -77.5 -66.5t-84.5 -48.5t-103 -18z" />
    <glyph glyph-name="S" unicode="S" horiz-adv-x="903" 
d="M376 -74q-100 0 -175.5 27.5t-117.5 71.5t-42 91q0 45 42 86t130 66q17 5 37.5 9.5t38.5 8t26 3.5q9 0 9 -10q0 -8 -9 -10q-134 -19 -194 -62t-60 -91q0 -42 40 -81t111 -64t164 -25q82 0 163.5 18.5t149 52.5t108 81t40.5 103q0 39 -24 78.5t-86.5 75t-180.5 63.5
q-93 23 -131.5 53t-38.5 63t32.5 65t81.5 55q31 15 84 26t109 11q48 0 92 -10.5t74 -36t36 -70.5q1 -12 13 -12q8 0 17.5 7.5t10.5 15.5q4 40 -14.5 67t-52.5 43.5t-77 23.5t-90 7q-46 0 -90.5 -5.5t-81 -14.5t-57.5 -20q-67 -34 -109.5 -79t-42.5 -89q0 -40 41 -75.5
t134 -58.5q106 -25 168.5 -56t90 -66t27.5 -72q0 -42 -29 -75t-75 -57.5t-98.5 -41t-99.5 -24.5t-78 -8q-90 0 -148.5 19.5t-87 50t-28.5 62.5q0 30 23.5 57t69 43.5t111.5 16.5q10 0 10 -10t-10 -10q-90 0 -136.5 -29.5t-46.5 -67.5q0 -27 26 -53t80 -42.5t137 -16.5
q32 0 78 8t95 23.5t91.5 38.5t69 52t26.5 64q0 29 -23.5 59t-82 60t-165.5 55q-103 25 -146.5 65t-43.5 85q0 35 21.5 70t59 66t83.5 54q23 11 60 20.5t82.5 15.5t92.5 6q50 0 97.5 -8t85 -27t57.5 -50t16 -78q-1 -17 -16.5 -29t-32.5 -12q-11 0 -20.5 7t-11.5 23
q-5 37 -32.5 58.5t-68 31.5t-85.5 10q-50 0 -99 -10t-82 -26q-44 -22 -73 -48t-29 -53q0 -26 35.5 -51.5t118.5 -45.5q119 -28 185.5 -66t94 -81t27.5 -90q0 -51 -28.5 -94t-78 -76.5t-111.5 -57t-130 -35.5t-133 -12z" />
    <glyph glyph-name="T" unicode="T" horiz-adv-x="810" 
d="M205 -22q-26 0 -55.5 6t-56 19t-43 35t-16.5 54q0 47 27.5 86t72 67t98 43t105.5 15q17 0 49 -4t64.5 -14t52.5 -29q11 -10 15 -20t4 -21q0 -19 -14 -32q55 47 106.5 102t97.5 111.5t85 108t69 89.5q3 4 8 4t9 -5.5t-1 -10.5q-37 -47 -81.5 -105t-96 -119.5t-108 -119
t-117 -103.5t-123 -73t-125.5 -27t-92 22t-29 53q0 32 27.5 65t78 55.5t118.5 22.5q48 0 79 -17t46 -31q14 -12 24 -12q8 0 13 6.5t5 14.5q0 20 -19 33t-47 21t-55 11.5t-43 3.5q-49 0 -98.5 -14t-91 -39.5t-67 -60t-25.5 -75.5q0 -34 22.5 -55t57 -31t70.5 -10q45 0 104 13
t127.5 46.5t142 94t146.5 155.5q42 54 82.5 106.5t72.5 95t51.5 68l19.5 25.5q3 4 7 4q8 0 25.5 -12t31.5 -12q18 0 23 20q5 17 -11 32.5t-40.5 27.5t-47.5 20t-33 11q-64 20 -143 31t-148 11q-32 0 -77.5 -2t-96 -8.5t-99.5 -20t-87 -35.5t-67 -55.5t-29 -73.5
q0 -21 5 -30.5t10 -9.5q11 0 11 20q0 38 25.5 70t51.5 49q51 34 135.5 50t175.5 16q64 0 126 -7.5t114.5 -22.5t86.5 -38q5 -2 5 -8q0 -5 -4.5 -8.5t-10.5 0.5q-33 21 -83.5 35.5t-110.5 22t-122 7.5q-89 0 -170.5 -15.5t-129.5 -47.5q-25 -17 -47 -45.5t-22 -57.5
q0 -19 -9.5 -29.5t-21.5 -10.5q-13 0 -24 14.5t-11 45.5q0 32 15.5 60t40 50t50.5 37q40 23 90.5 36.5t103 20.5t99 9t77.5 2q39 0 94 -5t114 -16t111.5 -28t86.5 -41q16 -11 27 -25t11 -31t-11 -32t-31 -15q-14 0 -29 6.5t-27 13.5q-9 -12 -30.5 -40.5t-52 -68t-66 -85.5
t-71.5 -93q-75 -97 -150 -159t-145.5 -96.5t-132 -48t-108.5 -13.5zM130 111q0 -23 24 -39.5t77 -16.5q70 0 139.5 36t136.5 92q-11 -9 -24 -9q-20 0 -38 17q-13 12 -40.5 27t-70.5 15q-60 0 -106 -19.5t-72 -48t-26 -54.5z" />
    <glyph glyph-name="U" unicode="U" horiz-adv-x="981" 
d="M431 80q-31 0 -45.5 24t-14.5 62q0 41 14.5 88.5t37 95.5t47.5 89t47 69q5 6 18 23.5t28.5 40t26.5 45t11 38.5q0 10 -5 15q-3 3 -3 7q0 5 6 8.5t11 -1.5q11 -10 11 -28q0 -20 -11 -44t-26.5 -47.5t-29.5 -42t-21 -27.5q-22 -27 -46.5 -67.5t-46.5 -87t-35.5 -91.5
t-13.5 -83q0 -26 8.5 -46t33.5 -20q15 0 38 10t56 35q62 46 114.5 113.5t97.5 145t84.5 155.5t75.5 145q13 24 26 34t25 10q17 0 29 -17t12 -36q0 -9 -3 -18q-3 -6 -9 -6q-4 0 -8 4t-2 10q2 4 2 9q0 11 -5.5 22t-16.5 11q-7 0 -15 -7.5t-18 -25.5q-36 -69 -76 -147.5
t-85.5 -156.5t-99 -146t-116.5 -115q-34 -25 -61 -37t-47 -12zM27 520q-13 0 -22 7.5t-9 20.5q0 5 1 10t4 11q32 70 81 108.5t107 54t118 15.5q74 0 141 -16t111 -30q7 -3 7 -10q0 -4 -3.5 -7.5t-9.5 -2.5q-46 15 -111.5 30t-136.5 15q-57 0 -111 -14.5t-99.5 -50.5
t-75.5 -100q-3 -7 -3 -12q0 -9 10 -9q8 0 17 5.5t13 15.5q21 47 57.5 74t83 38t96.5 11q65 0 128.5 -12.5t110.5 -26.5q7 -3 7 -10q0 -4 -3.5 -7.5t-8.5 -2.5q-49 14 -111 26t-123 12q-71 0 -130.5 -23.5t-87.5 -86.5q-7 -17 -20.5 -25t-27.5 -8zM806 53q-23 0 -38 15
q-21 21 -21 68q0 41 16 98.5t49 127.5q5 11 20.5 44t37 76.5t43.5 87t40 73.5q3 5 8 5t9 -4.5t0 -10.5q-18 -30 -40 -73t-43 -86.5t-36.5 -76t-20.5 -43.5q-34 -73 -48.5 -127.5t-14.5 -89.5q0 -40 15 -55q9 -9 24 -9q26 0 68.5 28.5t99.5 98.5q3 4 8 4t8.5 -5.5t-1.5 -10.5
q-54 -65 -101.5 -100t-81.5 -35zM404 -6q-57 0 -89.5 42t-32.5 118q0 32 6 71q3 22 20.5 64.5t45.5 95t62.5 105t72.5 93.5q3 3 7 3q6 0 9.5 -5.5t-1.5 -11.5q-37 -40 -71 -91.5t-61 -102.5t-44.5 -92.5t-20.5 -61.5q-6 -37 -6 -67q0 -73 29.5 -106.5t73.5 -33.5
q52 0 122.5 42t147.5 129q3 3 7 3q6 0 9.5 -5.5t-1.5 -11.5q-78 -87 -152 -132t-133 -45zM769 -12q-28 0 -48.5 15.5t-33.5 39.5t-18.5 49.5t-3.5 45.5q2 9 10 9q10 0 10 -9q0 -4 -0.5 -7t-0.5 -7q0 -25 10.5 -52t30 -45.5t44.5 -18.5q41 0 90 20t108 84q3 4 8 4t8.5 -6
t-1.5 -11q-62 -68 -114.5 -89.5t-98.5 -21.5z" />
    <glyph glyph-name="V" unicode="V" horiz-adv-x="622" 
d="M237 -39q-16 0 -24 10.5t-8 24.5q0 17 9 30q5 8 11.5 14.5t12.5 11.5q27 56 46 123.5t28.5 139t9.5 137.5q0 67 -10 123t-31 93q-20 36 -46.5 53t-52.5 17q-37 0 -64.5 -31.5t-27.5 -87.5q0 -34 13 -75.5t43 -89.5q27 -43 59 -71.5t78 -48.5q5 -3 12 -6t11 -9q3 -6 3 -11
q0 -9 -6 -15.5t-10 -8.5q-19 -11 -37 -11q-28 0 -58.5 18t-58.5 44.5t-49.5 54t-32.5 45.5q-31 49 -44.5 95t-13.5 88q0 63 26 111.5t68 76t91 27.5q46 0 92.5 -27t85.5 -89q29 -46 40.5 -108t11.5 -128q0 -72 -10 -141.5t-22 -122.5q-1 -8 -10 -8q-4 0 -7.5 3.5t-2.5 8.5
q13 53 22.5 121.5t9.5 138.5q0 64 -11 123t-38 102q-36 56 -78.5 81.5t-83.5 25.5q-43 0 -80.5 -25t-60 -69t-22.5 -101q0 -40 13 -83.5t41 -89.5q9 -15 29.5 -40t46.5 -51t53.5 -43.5t52.5 -17.5q16 0 27 7q5 4 5.5 6t0.5 3q-7 5 -24.5 12.5t-27.5 12.5q-30 18 -59.5 49.5
t-54 71.5t-39 83t-14.5 84q0 30 9.5 57.5t31.5 48.5q30 30 72 30q31 0 62 -19.5t54 -60.5q22 -39 32.5 -98t10.5 -128t-10 -142.5t-29.5 -143t-47.5 -125.5l-2 -3q-9 -7 -18.5 -17.5t-9.5 -23.5q0 -20 20 -14q27 7 63 36.5t75 73t76 94.5t65 101q42 73 81.5 146.5
t91.5 140.5q39 51 86 94.5t102.5 70t119.5 27.5q11 0 17 4.5t6 9.5q0 12 -18 12q-85 2 -151.5 -27t-118.5 -80t-94 -114t-78 -130t-71 -127q-29 -50 -60 -92t-67 -68q-2 -2 -6 -2q-10 0 -10 10q0 5 4 8q33 24 62.5 64t58.5 90q36 63 73.5 131.5t81 132.5t97 115.5t122.5 81
t157 27.5q20 0 29 -10t9 -21q0 -13 -10.5 -23.5t-32.5 -11.5q-69 -1 -127.5 -33.5t-107 -84t-88 -110t-69.5 -111.5q-22 -38 -39.5 -71.5t-31.5 -58.5q-28 -49 -65.5 -101t-78 -98t-79 -77t-69.5 -39q-4 -1 -7 -1.5t-6 -0.5z" />
    <glyph glyph-name="W" unicode="W" horiz-adv-x="992" 
d="M231 -3q-59 0 -92.5 42.5t-33.5 105.5q0 42 15.5 90t46.5 97q25 39 54 76t54.5 73t41.5 73.5t16 77.5q0 46 -25.5 72t-60.5 26q-40 0 -71.5 -25.5t-53.5 -67t-33.5 -89t-11.5 -91.5q0 -28 5.5 -55.5t18.5 -56.5q2 -5 4.5 -11t2.5 -12q0 -11 -7 -16.5t-18 -5.5
q-22 0 -41 17.5t-28 42.5q-9 26 -13.5 56t-4.5 60q0 67 17.5 129t50.5 111t80.5 77.5t107.5 28.5q46 0 85.5 -21.5t64 -64t24.5 -104.5q0 -47 -6.5 -76t-19.5 -51.5t-33.5 -48.5t-48 -66.5t-63.5 -107.5q-19 -37 -29 -69.5t-10 -57.5q0 -21 9 -37t29 -16q15 0 37.5 10
t53.5 33q67 50 115.5 113t87 133t76.5 141q14 26 29.5 37t28.5 11q18 0 30 -14.5t12 -31.5q0 -7 -3 -15q-3 -6 -9 -6q-4 0 -8 4t-1 10q4 9 -2.5 20.5t-18.5 11.5q-8 0 -18.5 -8t-21.5 -29q-39 -73 -78.5 -144t-88.5 -134.5t-118 -114.5q-64 -47 -105 -47q-31 0 -43.5 23
t-12.5 51q0 35 14.5 73.5t35 74t37.5 59.5q32 45 60 86t46 85t18 97q0 56 -21.5 94t-56.5 57.5t-77 19.5q-57 0 -100.5 -27t-73.5 -73.5t-45.5 -104.5t-15.5 -120q0 -29 3.5 -58.5t12.5 -52.5q11 -27 24 -37t25 -10q7 0 7 5t-9 23.5t-12 28.5q-5 17 -7.5 37t-2.5 42
q0 48 12 99.5t36 96t59.5 72t81.5 27.5q45 0 76 -32t31 -86q0 -42 -17 -81.5t-43 -77t-55.5 -75t-54.5 -76.5q-31 -48 -45 -93t-14 -83q0 -57 28.5 -93t77.5 -36q47 0 113 38t148 130q3 3 7 3q6 0 9.5 -5.5t-1.5 -11.5q-82 -91 -152.5 -132.5t-123.5 -41.5zM599 -13
q-33 0 -56 15.5t-37 39.5t-19.5 49.5t-3.5 46.5q2 9 10 9q10 0 10 -9q0 -4 -0.5 -7t-0.5 -7q0 -25 11 -52.5t32.5 -46t53.5 -18.5q63 0 123.5 32t112.5 86t91.5 121.5t62 140t22.5 139.5q0 66 -27.5 122t-92.5 90q-9 5 -21 -3t-12 -17q0 -8 10 -12q50 -19 70.5 -61t20.5 -95
q0 -59 -20 -124.5t-52.5 -129t-71.5 -115.5q-25 -34 -57 -63t-66 -47t-65 -18q-32 0 -47 23t-15 62q0 37 11.5 81.5t30.5 91.5t40.5 90.5t40.5 78.5q3 5 9 5q5 0 9 -4.5t0 -10.5q-19 -35 -40.5 -78t-39.5 -88.5t-29.5 -88.5t-11.5 -77t10.5 -49t26.5 -16q26 -2 57.5 13.5
t63 43.5t56.5 63q39 53 70.5 113.5t50.5 123t19 118.5q0 49 -18 86t-61 54q-23 9 -23 29q0 16 14 30t32 14q8 0 18 -5q71 -37 100.5 -98.5t29.5 -132.5q0 -72 -23.5 -147.5t-65 -145.5t-96.5 -125t-118 -87.5t-129 -32.5z" />
    <glyph glyph-name="X" unicode="X" horiz-adv-x="746" 
d="M571 60q-36 0 -73.5 26.5t-72.5 91.5q-25 47 -45.5 108.5t-36 129.5t-26.5 133.5t-19 119.5q-1 9 -5 25t-10 29t-15 13q-6 0 -16 -5.5t-25 -24.5t-38 -60q-13 -22 -35 -58t-49.5 -78t-56 -84t-54.5 -78q-3 -4 -8 -4q-11 0 -11 10q0 2 2 6q26 35 54.5 77t55.5 83.5
t49.5 77.5t34.5 58q58 102 95 102q19 0 29 -15.5t15.5 -35.5t7.5 -34q5 -33 14 -89.5t22.5 -123.5t33 -134t46 -122.5t60.5 -89.5t77 -34q35 0 76.5 27.5t90.5 91.5q3 4 7 4q11 0 11 -10q0 -4 -2 -6q-21 -28 -50 -57.5t-62.5 -49.5t-70.5 -20zM430 283q-5 0 -8.5 5.5
t1.5 11.5t26.5 30t53.5 58.5t66 73.5q35 40 69 78.5t60 69.5t38 47q11 17 11 27q0 18 -20 18q-10 0 -21.5 -6t-22.5 -19q-13 -14 -37 -42t-53.5 -62.5t-60 -70t-57 -66.5t-43.5 -51t-20 -24t-8 -4t-8.5 5.5t0.5 10.5q3 4 20 24t43.5 51t57 67t60.5 70.5t54 62.5l36 42
q14 17 30 24t29 7q17 0 29 -10t12 -27t-15 -38q-12 -17 -38.5 -49t-60.5 -70.5t-69 -77.5q-34 -39 -66 -74t-53.5 -59t-27.5 -30q-3 -3 -7 -3zM-9 270q-6 0 -9.5 6t2.5 11q67 65 117 130t82.5 117.5t47.5 79.5q3 5 9 5q5 0 9 -4.5t0 -10.5q-15 -27 -48 -80t-84 -119
t-119 -132q-3 -3 -7 -3zM554 -5q-55 0 -99 28.5t-78.5 78.5t-58.5 113q-24 65 -38 121t-20 93.5t-6 44.5q0 9 10 9q9 0 10 -9q14 -93 37.5 -176t58 -146.5t80.5 -100t104 -36.5q38 0 73.5 16t63.5 38q5 4 10 4q9 0 9 -9q0 -5 -6 -10q-31 -22 -69 -40.5t-81 -18.5zM70 -86
q-16 0 -27.5 9t-11.5 25t14 36q10 14 36.5 44t58.5 66q33 36 68 74.5t62 69.5q3 3 7 3q6 0 10 -5.5t-1 -11.5q-28 -31 -63 -69.5t-68 -74.5t-58.5 -65t-35.5 -43t-10 -24q0 -14 18 -14q11 0 25 7t26 20q19 22 48 54t58.5 64.5t51.5 56.5t26 29q3 4 8 4t9 -5.5t-1 -10.5
q-4 -5 -26 -29t-51.5 -57t-59 -65t-48.5 -54q-15 -18 -32.5 -26t-32.5 -8z" />
    <glyph glyph-name="Y" unicode="Y" horiz-adv-x="907" 
d="M267 -291q-41 0 -67 15t-37.5 38.5t-11.5 46.5q0 20 8.5 37.5t21.5 25.5q7 4 15 4q25 0 39 -47q6 -21 18 -29.5t28 -8.5q27 0 58 16.5t58 36.5t40 31q41 36 88.5 92.5t92.5 117.5q3 4 8 4t9 -5t-1 -11q-27 -37 -60.5 -79.5t-72 -83.5t-81 -74.5t-87.5 -52.5
q-32 -13 -54 -13q-23 0 -35.5 10.5t-19.5 25.5t-12 28.5t-12 19.5q-6 5 -12 -1.5t-10.5 -16t-4.5 -14.5q-3 -49 24 -71t70 -22q46 0 102.5 22t104.5 60q84 67 147 164.5t121 207.5q66 125 125 255.5t102 246.5q3 6 0 17t-9 19.5t-15 8.5q-7 0 -13.5 -7.5t-14.5 -26.5
q-34 -91 -71.5 -181t-85.5 -175q-24 -41 -60 -85.5t-77 -84t-81 -66.5q-26 -17 -52 -28t-49 -11q-31 0 -50.5 23t-19.5 78q0 41 14.5 88.5t37 95.5t47.5 89t47 69q5 6 18 23.5t28.5 40t26.5 45t11 38.5q0 10 -5 15q-3 3 -3 7q0 11 10 11q3 0 7 -4q11 -11 11 -29
q0 -20 -11 -44t-26.5 -47.5t-29.5 -41.5l-21 -27q-22 -27 -46.5 -67.5t-46.5 -87t-35.5 -91.5t-13.5 -83q0 -41 14.5 -61t37.5 -20q17 0 39.5 9.5t48.5 26.5q39 26 78.5 64t74.5 81.5t58 83.5q48 84 85 173.5t71 179.5q10 26 22 36.5t24 10.5q18 0 32.5 -19t14.5 -39
q0 -7 -3 -15q-43 -115 -102.5 -246t-125.5 -258q-58 -109 -122.5 -209t-151.5 -169q-50 -40 -109 -63t-110 -23zM27 520q-13 0 -22 7.5t-9 20.5q0 5 1 10t4 11q32 70 81 108.5t107 54t118 15.5q74 0 141 -16t111 -30q7 -3 7 -10q0 -4 -3.5 -7.5t-9.5 -2.5q-46 15 -111.5 30
t-136.5 15q-57 0 -111 -14.5t-99.5 -50.5t-75.5 -100q-3 -7 -3 -12q0 -9 10 -9q8 0 17 5.5t13 15.5q21 47 57.5 74t83 38t96.5 11q65 0 128.5 -12.5t110.5 -26.5q7 -3 7 -10q0 -4 -3.5 -7.5t-8.5 -2.5q-49 14 -111 26t-123 12q-71 0 -130.5 -23.5t-87.5 -86.5
q-7 -17 -20.5 -25t-27.5 -8zM405 -3q-54 0 -88.5 37.5t-34.5 118.5q0 50 18.5 108t48.5 117t66.5 112t73.5 93q3 3 7 3q6 0 9.5 -5.5t-1.5 -11.5q-35 -39 -71 -90.5t-65.5 -108t-47.5 -111.5t-18 -100q0 -71 30.5 -107t79.5 -36t110.5 35.5t124.5 106.5q3 3 7 3
q5 0 8.5 -5.5t-1.5 -11.5q-62 -70 -131 -108.5t-125 -38.5z" />
    <glyph glyph-name="Z" unicode="Z" horiz-adv-x="764" 
d="M188 190q-5 0 -8.5 6t1.5 11q68 74 140 134.5t136 106.5q66 48 118.5 82.5t80.5 55.5q7 5 21 17.5t29.5 28.5t26.5 32t11 28q0 11 -13 17t-46 3q-10 -1 -20.5 -1.5t-21.5 -0.5q-45 0 -90.5 7t-90.5 13.5t-91 6.5q-22 0 -43 -2t-42 -7q-82 -19 -125.5 -70.5t-43.5 -108.5
q0 -60 45 -108q3 -3 3 -7q0 -6 -6 -9.5t-11 2.5q-26 27 -38.5 58.5t-12.5 63.5q0 43 21.5 83.5t63 71t100.5 44.5q22 5 43.5 7.5t42.5 2.5q46 0 91 -7t91 -14t92 -7q10 0 20.5 0.5t20.5 1.5q5 1 10 1h9q28 0 45 -9.5t17 -30.5q0 -24 -25 -56t-71 -67q-28 -21 -80.5 -55.5
t-118.5 -82.5q-64 -46 -135.5 -106t-137.5 -132q-3 -4 -8 -4zM213 439q-4 0 -7 4q-51 65 -51 123q0 42 30 74t92 47q23 5 44.5 7.5t41.5 2.5q46 0 89 -7t86 -14.5t88 -7.5q8 0 17 0.5t17 0.5h1q10 0 10 -10t-9 -10q-9 -1 -17.5 -1.5t-17.5 -0.5q-45 0 -89.5 7.5l-89 15
t-89.5 7.5q-38 0 -77 -9q-54 -13 -80.5 -39.5t-26.5 -63.5q0 -49 47 -110q2 -2 2 -6q0 -10 -11 -10zM60 184q-5 0 -8.5 5.5t1.5 11.5q69 70 153 141.5t173 138t172 121.5q4 2 6 2q9 0 9 -10q0 -6 -4 -9l-23 -15.5t-63 -44t-91 -67.5q-49 -37 -104 -81t-110 -92t-104 -98
q-3 -3 -7 -3zM532 -24q-47 0 -88.5 13t-80.5 32l-78 38t-81.5 32t-90.5 13q-37 0 -63.5 -12t-26.5 -35q0 -14 11.5 -29.5t34.5 -23.5q7 -3 7 -9q0 -4 -4 -7.5t-10 -1.5q-26 10 -42 29.5t-16 41.5q0 29 27 47.5t81 18.5q52 0 96 -13t83 -31.5t77 -37.5t78 -32t86 -13
q64 0 110 25.5t71.5 66.5t25.5 88q0 40 -20 80q-1 2 -1 5q0 10 10 10q6 0 9 -5q11 -22 16.5 -44.5t5.5 -44.5q0 -53 -28 -99t-79 -74t-120 -28zM551 36q-48 0 -89.5 13t-80 32.5t-77 38.5t-81 32t-92.5 13q-56 0 -94 -17t-57.5 -41t-19.5 -47v-12q0 -9 -10 -9q-9 0 -10 8
q-1 3 -1 6v6q0 36 25.5 64.5t69.5 45t99 16.5q51 0 94 -13t82 -32t77 -38.5t78.5 -32.5t86.5 -13q64 0 96.5 29.5t32.5 80.5q0 38 -20 90q-1 1 -1 4q0 10 11 10q5 0 8 -6q21 -52 21 -98q0 -58 -36.5 -94t-111.5 -36z" />
    <glyph glyph-name="bracketleft" unicode="[" horiz-adv-x="306" 
d="M128 -71q-18 0 -41.5 6t-40.5 22t-17 45v7.5t1 7.5q2 15 8 53t14.5 91t18 113t19 120.5t17.5 114.5t14 92q6 35 23 64t42.5 46.5t54.5 17.5h111q16 0 23.5 -10.5t7.5 -24.5q0 -13 -7.5 -24t-22.5 -11h-92q-8 0 -27 -15.5t-24 -52.5q-6 -41 -15 -99t-19 -122.5t-19.5 -128
t-18 -116.5t-13.5 -86q-1 -8 -10 -8q-4 0 -7.5 3t-2.5 9l85 551q7 41 30 63t41 22h92q10 0 10 15q0 5 -2.5 10t-8.5 5h-111q-34 0 -63.5 -31.5t-37.5 -79.5q-6 -38 -14.5 -92t-17.5 -114.5t-18.5 -120.5t-17.5 -113t-14 -91t-8 -53q-1 -3 -1 -6v-5q0 -31 25.5 -42.5
t53.5 -11.5h93q26 0 26 14q0 7 -7 13t-16 6h-89q-11 0 -11 10t10 10h90q20 0 31.5 -13t11.5 -27q0 -13 -11 -23t-35 -10h-93z" />
    <glyph glyph-name="backslash" unicode="\" horiz-adv-x="562" 
d="M378 9q-5 0 -8 6q-15 36 -41.5 95t-59 131t-66 145.5t-63 138.5t-50.5 111t-27 61q-7 18 -20 18q-8 0 -14.5 -7.5t-6.5 -19.5q0 -9 4 -18q11 -25 33 -74t50.5 -111.5t59.5 -129.5t60 -130.5t52 -114.5t35 -80q1 -1 1 -4q0 -4 -3.5 -7t-7.5 -3q-6 0 -9 6q-12 29 -35 80
t-52 114.5t-59.5 130.5t-59 129.5t-50.5 111.5t-33 74q-6 14 -6 26q0 21 13 34t29 13q11 0 21 -7t17 -23q6 -15 26.5 -61t50 -111t63 -138.5t66 -145.5t59 -131t41.5 -95q1 -1 1 -4q0 -10 -11 -10z" />
    <glyph glyph-name="bracketright" unicode="]" horiz-adv-x="336" 
d="M-4 -72q-15 0 -22.5 11t-7.5 24t7.5 24t22.5 11h92q8 0 26.5 16t24.5 53l85 551q1 8 10 8q4 0 7.5 -3t2.5 -8l-85 -551q-7 -42 -30 -64t-41 -22h-92q-5 0 -8 -5t-3 -10q0 -15 11 -15h112q33 0 63 32t37 79q6 39 14 92.5t17.5 114l19 121t18 113t14.5 90.5t8 53q1 3 1 6v5
q0 31 -25.5 42.5t-53.5 11.5q-40 0 -66.5 0.5l-26.5 0.5q-14 0 -20 -4.5t-6 -9.5q0 -7 7 -13.5t16 -6.5l89 1q11 0 11 -10t-11 -10l-89 -1q-19 -1 -31 12.5t-12 28.5q0 13 11 23t35 10l26.5 -0.5t66.5 -0.5q18 0 41 -6t40.5 -21.5t17.5 -45.5v-7.5t-1 -7.5q-2 -15 -8 -53
t-14.5 -90.5t-18 -113t-18.5 -121t-17.5 -114t-14.5 -92.5q-5 -34 -22.5 -63.5t-43 -47t-54.5 -17.5h-112z" />
    <glyph glyph-name="asciicircum" unicode="^" horiz-adv-x="407" 
d="M368 369q-7 0 -16.5 3.5t-18.5 10.5q-7 6 -23.5 20.5t-35 32.5t-34.5 32q-4 3 -4 8t6 8.5t11 -1.5q16 -14 34.5 -31.5t35 -32t23.5 -20.5q13 -10 23 -10q11 0 11 10q0 5 -5 13.5t-17 18.5q-31 27 -61 54.5t-59 55.5q-7 7 -14 10q-5 2 -23.5 -6.5t-42.5 -23t-49 -32
t-44 -33t-27 -25.5q-4 -6 -4 -12q0 -7 4.5 -13t11.5 -6q9 0 18 8q29 23 57.5 42.5t56.5 39.5q2 2 6 2q9 0 9 -10q0 -5 -4 -8q-27 -20 -55.5 -39.5t-56.5 -42.5q-12 -9 -28 -9t-29 8.5t-13 23.5q0 14 11 28q7 9 27 25.5t47 35.5t54 35.5t49 25.5t32 5q11 -4 19 -13t17 -17
q26 -23 52.5 -47.5t51.5 -45.5q16 -13 22.5 -25.5t6.5 -23.5q0 -13 -9 -21t-23 -8z" />
    <glyph glyph-name="underscore" unicode="_" horiz-adv-x="826" 
d="M759 -110q-10 0 -10 10t10 10q11 0 20 11.5t9 23.5q0 9 -6.5 16t-22.5 7h-695q-14 0 -21 -9t-7 -20t7 -19.5t21 -8.5h639q11 0 11 -10t-11 -10h-639q-24 0 -36 15.5t-12 32.5q0 18 12 33.5t36 15.5h695q22 0 35.5 -17.5t13.5 -37.5q0 -16 -11.5 -29.5t-37.5 -13.5z" />
    <glyph glyph-name="grave" unicode="`" horiz-adv-x="156" 
d="M136 427q-9 0 -17 7q-4 3 -19 15.5t-34 28t-35 29t-23 19.5q-8 8 -8 15q0 13 27 34q11 9 22 9q12 0 21 -11q3 -4 10 -11t14 -15q2 -2 2 -6q0 -5 -5.5 -9t-10.5 0q-6 7 -26 29q-3 3 -6 3q-2 0 -9 -5q-13 -10 -15.5 -13.5t-1.5 -5.5q6 -5 22 -18.5t34.5 -28.5t33.5 -27.5
t19 -15.5t5.5 -3t1.5 6q0 8 -1 12.5t-8 11.5l-25 25q-3 3 -3 6q0 6 6.5 9.5t10.5 -1.5l27 -27q8 -8 9.5 -16t1.5 -20q0 -26 -20 -26z" />
    <glyph glyph-name="a" unicode="a" horiz-adv-x="459" 
d="M76 59q-24 0 -31.5 19.5t-7.5 32.5q0 25 17 59t44 67t58 55t59 22q14 0 14 -10q0 -4 -3 -7.5t-8 -2.5q-22 2 -49.5 -17.5t-53 -50t-42 -61.5t-16.5 -54q0 -14 5 -23t14 -9q17 0 39.5 20.5t46.5 52t46.5 66t40 63t26.5 42.5q19 28 38 39.5t35 11.5q18 0 29.5 -11t11.5 -28
q0 -15 -11 -32q-8 -12 -26 -39.5t-37 -59t-32 -57.5q-14 -30 -14 -48q0 -20 20 -20q18 0 40.5 12t45.5 31t43 39.5t33 37.5q3 4 7 4q6 0 9.5 -5.5t-0.5 -10.5q-13 -19 -35.5 -41t-48.5 -42t-52 -32.5t-46 -12.5q-19 0 -27.5 11t-8.5 28q0 21 12 48q13 28 32.5 61.5t39 63
t29.5 44.5q7 10 7 20q0 19 -20 19q-11 0 -26.5 -10t-31.5 -33q-22 -33 -48.5 -76t-53.5 -81q-27 -37 -55.5 -66t-57.5 -29zM0 182q-5 0 -8.5 5t0.5 11q17 24 39.5 52.5t50.5 54t60 42t67 16.5q11 0 22 -2.5t21 -6.5q6 -3 6 -9q0 -4 -4 -7.5t-10 -1.5l-3 1t-8 2q-5 2 -11 3
t-13 1q-41 0 -78 -25t-68.5 -61t-54.5 -70q-3 -5 -8 -5zM253 -5q-45 0 -64.5 24.5t-19.5 53.5q0 24 12 46q3 5 9 5q5 0 8.5 -4.5t0.5 -10.5q-10 -18 -10 -36q0 -22 15 -40t49 -18q38 0 72.5 16.5t65.5 39.5q2 2 6 2q10 0 10 -10q0 -5 -4 -8q-32 -24 -69 -42t-81 -18zM62 -4
q-33 0 -58.5 22t-23.5 68q0 9 10 9q4 0 7.5 -2.5t2.5 -7.5q-1 -36 18 -52.5t44 -16.5q20 0 40 9.5t33 27.5q3 4 8 4t9 -5t-1 -11q-16 -22 -40 -33.5t-49 -11.5z" />
    <glyph glyph-name="b" unicode="b" horiz-adv-x="396" 
d="M0 182q-5 0 -8.5 6t0.5 11q25 28 59.5 70.5t76 91t86.5 96t91 86.5t90.5 62.5t84.5 23.5q12 0 29.5 -5t31.5 -16.5t14 -31.5q0 -18 -10 -25.5t-24 -9.5t-27 -2q-30 0 -62 -15.5t-62 -39.5t-56 -51.5t-44 -51.5q-3 -4 -8 -4t-8.5 5t0.5 11q18 24 44.5 52.5t59 54.5
t67.5 42.5t69 16.5q9 0 25 1.5t16 15.5t-18.5 23.5t-36.5 9.5q-37 0 -79.5 -23.5t-87.5 -62.5t-89.5 -86t-85 -94.5t-74 -88.5t-56.5 -68q-3 -4 -8 -4zM86 1q-24 0 -49 8t-41.5 26t-16.5 48q0 12 9 12q11 0 11 -13q0 -23 14 -36.5t34.5 -19t38.5 -5.5q47 0 92.5 19.5
t82.5 53.5t59 77.5t22 91.5q0 36 -20 60t-56 24q-24 0 -47.5 -9.5t-45.5 -23.5q-4 -2 -6 -2q-9 0 -9 10q0 5 4 8q23 15 49.5 26t54.5 11q47 0 71.5 -31t24.5 -73q0 -52 -24 -99.5t-63.5 -84t-88.5 -57.5t-100 -21zM103 53q-46 0 -66.5 32t-18.5 72q0 9 10 9q4 0 7.5 -2.5
t2.5 -7.5q-1 -32 13.5 -57.5t51.5 -25.5q27 0 56.5 19.5t54.5 49.5t41 62.5t16 57.5q0 30 -28 30q-23 0 -50 -17t-51 -43.5t-38 -55.5t-11 -53v-1q0 -10 -10 -10t-10 9q-3 28 12.5 61t42 62.5t57 48.5t58.5 19q23 0 35.5 -14t12.5 -36q0 -28 -17 -63.5t-44.5 -69t-60.5 -55
t-66 -21.5z" />
    <glyph glyph-name="c" unicode="c" horiz-adv-x="315" 
d="M-7 176q-6 0 -6 7q0 8 7 18q28 36 62 74.5t76.5 65t94.5 26.5q29 0 49.5 -18t20.5 -49q0 -24 -16.5 -48t-45.5 -24q-14 0 -29.5 9t-15.5 25q0 13 11 13q9 0 9 -12v-1q0 -7 10 -10.5t15 -3.5q18 0 30 16.5t12 35.5q0 21 -14 34t-36 13q-46 0 -85.5 -25t-72.5 -61.5
t-61 -73.5q-8 -11 -15 -11zM95 60q-26 0 -46 16t-20 46q0 23 19 55.5t47.5 63.5t59.5 51.5t55 20.5q14 0 27 -7t13 -23q0 -13 -5 -13t-11.5 9t-8.5 10q-7 4 -15 4q-19 0 -46 -19t-53.5 -47t-44 -56.5t-17.5 -48.5q0 -19 13 -30.5t33 -11.5q62 0 118.5 33.5t93.5 85.5
q3 4 7 4q5 0 9 -6t-1 -11q-38 -52 -98 -89t-129 -37zM97 1q-26 0 -53 8t-45 26.5t-18 49.5q0 11 10 11t10 -11q-1 -19 7 -30.5t26 -19.5q16 -7 33 -10.5t30 -3.5q38 0 73 14t65 36q2 2 6 2q10 0 10 -10q0 -5 -4 -8q-31 -24 -70 -39t-80 -15z" />
    <glyph glyph-name="d" unicode="d" horiz-adv-x="459" 
d="M76 59q-24 0 -31.5 19.5t-7.5 32.5q0 25 17 60t44.5 68.5t58.5 56t59 22.5q12 0 12 -10q0 -4 -2.5 -7.5t-7.5 -2.5q-22 1 -49.5 -19t-53 -51t-42 -62.5t-16.5 -54.5q0 -14 5 -23t14 -9q12 0 30.5 17t39 41t36.5 45.5t22 29.5q24 32 47 64t48 60q15 18 39.5 49t52 66.5
t53 68t41.5 51.5q11 13 26 19t29 6q17 0 29 -7.5t12 -21.5t-14 -31q-13 -15 -40.5 -47.5t-62 -75.5t-70 -89.5t-66 -90t-49 -78t-18.5 -51.5q0 -24 19 -24q24 0 55 17t62.5 44.5t53.5 57.5q3 4 8 4t9 -5t-1 -11q-22 -30 -55 -59t-68 -48.5t-64 -19.5q-21 0 -30 13.5t-9 30.5
q0 20 19 56.5t50.5 82t67.5 93.5t71.5 92t62.5 76.5t39 45.5q9 11 9 17q0 10 -16 10q-10 0 -23 -5t-20 -13q-16 -19 -41.5 -51.5t-53.5 -68.5t-52 -67t-39 -48q-51 -60 -95.5 -124.5t-100.5 -118.5q-7 -7 -18 -14.5t-25 -7.5zM-2 181q-5 0 -8.5 4.5t0.5 10.5q20 24 43 53.5
t50.5 56.5t59 44t66.5 17q15 0 31.5 -3.5t29.5 -14.5q4 -3 4 -8t-5.5 -8.5t-10.5 0.5q-10 8 -22.5 11t-26.5 3q-41 0 -76.5 -26.5t-66 -63.5t-58.5 -71q-5 -5 -10 -5zM245 -11q-36 0 -57 18t-21 57q0 15 3.5 29.5t10.5 27.5q3 5 8 5t9 -4.5t1 -10.5q-12 -21 -12 -47
q0 -29 14.5 -42t43.5 -13q38 0 76.5 19.5t69.5 42.5q2 2 6 2q10 0 10 -11q0 -4 -4 -7q-31 -25 -72.5 -45.5t-85.5 -20.5zM76 -11q-40 0 -68.5 28.5t-27.5 68.5q0 9 10 9q4 0 7.5 -2.5t2.5 -7.5q-1 -32 22 -54t54 -22q26 0 50 13q4 2 5 2q10 0 10 -11q0 -6 -5 -9
q-28 -15 -60 -15z" />
    <glyph glyph-name="e" unicode="e" horiz-adv-x="332" 
d="M125 154q-18 0 -31 8q-6 3 -6 8t4.5 8.5t10.5 0.5q12 -5 22 -5q21 0 46 12.5t48 32.5t37.5 43t14.5 44q0 41 -42 41q-47 0 -87.5 -24.5t-74 -61t-59.5 -74.5q-3 -5 -8 -5t-8.5 5t0.5 11q26 38 61 77t79.5 65.5t96.5 26.5q27 0 44.5 -16t17.5 -45q0 -27 -16.5 -53.5
t-42 -49t-54.5 -36t-53 -13.5zM102 61q-27 0 -49.5 14t-22.5 48q0 28 20.5 60t51 61.5t62.5 51.5t55 29q1 0 1.5 0.5t1.5 0.5q10 0 10 -11q0 -6 -7 -9q-22 -7 -51.5 -28t-58 -48.5t-47 -55.5t-18.5 -51q0 -22 14.5 -32t37.5 -10q59 0 119.5 31.5t103.5 87.5q3 4 7 4
q6 0 9.5 -5.5t-1.5 -11.5q-45 -58 -109.5 -92t-128.5 -34zM97 1q-26 0 -53 8t-45.5 26.5t-18.5 49.5q0 11 10 11t10 -11q0 -19 7.5 -30t26.5 -20q15 -7 32.5 -10.5t30.5 -3.5q37 0 72.5 14t65.5 36q2 2 6 2q10 0 10 -10q0 -5 -4 -8q-32 -24 -70.5 -39t-79.5 -15z" />
    <glyph glyph-name="f" unicode="f" horiz-adv-x="415" 
d="M83 140q-4 0 -8 4.5t-1 9.5q12 25 38.5 64t62.5 84.5t77.5 91t84.5 83t83.5 60t73.5 22.5q9 0 25 1.5t16 15.5t-18.5 23.5t-36.5 9.5q-37 0 -79.5 -23.5t-87.5 -62.5t-89.5 -86t-85 -94.5t-74 -88.5t-56.5 -68q-3 -4 -8 -4t-8.5 6t0.5 11q25 28 59.5 70.5t76 91t86.5 96
t91 86.5t90.5 62.5t84.5 23.5q12 0 29.5 -5t31.5 -16.5t14 -31.5q0 -18 -10 -25.5t-24 -9.5t-27 -2q-29 0 -67 -21.5t-78.5 -57.5t-81 -80t-75.5 -88t-61 -82.5t-39 -63.5q-3 -6 -9 -6zM278 69q-27 0 -40 13t-21.5 30.5t-19.5 30.5t-32 13q-10 0 -10 10t10 10q27 0 40.5 -13
t22 -30.5t19 -30.5t31.5 -13q23 0 48 20t47 46.5t34 43.5q3 4 7 4q5 0 9.5 -5t-0.5 -11q-14 -20 -37.5 -48t-51.5 -49t-56 -21zM-105 -264q-4 0 -7.5 3t-2.5 8q4 73 30 137t64 112.5t77 76t69 27.5q22 0 32 -12.5t10 -34.5q0 -26 -13 -60.5t-36 -70.5t-52 -67t-60.5 -50
t-62.5 -19q-10 0 -10 10t10 10q29 0 61.5 22.5t63 58t51.5 75.5t27 76q1 4 1 7.5v6.5q0 28 -22 28q-24 0 -59 -25.5t-70.5 -71t-61 -106.5t-29.5 -132q0 -9 -10 -9zM-102 -314q-51 0 -71.5 25t-20.5 64q0 37 14 81t35.5 87t43.5 78.5t38 54.5q3 3 7 3q5 0 8.5 -5.5
t-1.5 -11.5q-14 -17 -35 -50.5t-41.5 -75t-34.5 -83t-14 -75.5q0 -32 16 -52t56 -20q39 0 81 18t81 49.5t70 70t49.5 80.5t18.5 82q0 10 10 10q32 0 73 13t66 32q2 2 6 2q10 0 10 -11q0 -4 -4 -7q-27 -20 -67 -33.5t-75 -15.5q-2 -42 -22 -86t-53 -84t-74 -71.5t-84.5 -50
t-85.5 -18.5z" />
    <glyph glyph-name="g" unicode="g" horiz-adv-x="453" 
d="M96 59q-24 0 -31.5 19.5t-7.5 32.5q0 25 17.5 60t45.5 69t60 56.5t60 22.5q12 0 12 -10q0 -4 -3 -7.5t-8 -2.5q-22 1 -50 -19t-54 -51t-43 -63t-17 -55q0 -14 5 -23t14 -9q15 0 34 21t42 54.5t48 69.5q26 39 52.5 74.5t52 58t48.5 22.5q13 0 24 -8t11 -25q0 -2 -6 -21.5
t-14.5 -47.5t-17.5 -55.5t-15.5 -48t-8.5 -24.5q-3 -6 -8 -6t-8.5 4t-1.5 10q2 4 8.5 24t15 47l17 54t14 45t5.5 19q0 13 -15 13q-13 0 -26 -10q-25 -16 -54 -55.5t-58 -83.5q-25 -37 -49.5 -72t-47.5 -57t-42 -22zM-3 181q-5 0 -8 4.5t1 10.5q37 44 75 83t79.5 64t88.5 25
q14 0 25.5 -2t19.5 -8q4 -3 4 -8t-5 -8.5t-11 0.5q-7 6 -33 6q-41 0 -79 -22.5t-74 -59.5t-73 -80q-4 -5 -10 -5zM-40 -231q-13 -1 -27.5 6.5t-14.5 26.5q0 22 21 46.5t52.5 48t63.5 43.5t54 34q4 2 5 2q5 0 7.5 -3.5t2.5 -7.5q0 -5 -4 -8q-18 -12 -47 -30t-58 -38.5
t-50.5 -41.5t-26.5 -39q0 -1 -0.5 -2.5t-0.5 -2.5q0 -14 19 -14q35 0 76.5 29t82.5 77.5t77 107t61 117.5t33 108q1 8 10 8q4 0 7.5 -3t2.5 -9q-8 -49 -33 -109t-62 -120t-80 -110.5t-87 -82t-84 -33.5zM-48 -301q-24 0 -45.5 13.5t-17.5 45.5q0 9 9 9q4 0 7.5 -3t2.5 -8
q-2 -19 10.5 -28t33.5 -9q48 0 92.5 23.5t85 63t74 87.5t60 97.5t42.5 93.5q4 11 5.5 14.5t12.5 8.5q22 10 55 30t68 65q3 4 8 4t8.5 -5.5t-0.5 -10.5q-30 -40 -64 -62.5t-72 -42.5q-16 -43 -42 -95t-61.5 -103t-78 -93.5t-91.5 -68.5t-102 -26zM69 -6q-37 0 -62 23t-25 63
q0 5 0.5 11t1.5 12q1 8 9 8q11 0 11 -10q0 -5 -1 -10.5t-1 -9.5q0 -31 19 -49t47 -18q31 0 68 22t69 73q3 5 8 5t8.5 -4.5t-0.5 -10.5q-34 -54 -74.5 -79.5t-77.5 -25.5z" />
    <glyph glyph-name="h" unicode="h" horiz-adv-x="486" 
d="M0 182q-5 0 -8.5 6t0.5 11q25 28 59.5 70.5t76 91t86.5 96t91 86.5t90.5 62.5t84.5 23.5q12 0 29.5 -5t31.5 -16.5t14 -31.5q0 -18 -10 -25.5t-24 -9.5t-27 -2q-30 0 -62 -15.5t-62 -39.5t-56 -51.5t-44 -51.5q-3 -4 -8 -4t-8.5 5t0.5 11q18 24 44.5 52.5t59 54.5
t67.5 42.5t69 16.5q9 0 25 1.5t16 15.5t-18.5 23.5t-36.5 9.5q-37 0 -79.5 -23.5t-87.5 -62.5t-89.5 -86t-85 -94.5t-74 -88.5t-56.5 -68q-3 -4 -8 -4zM349 69q-17 0 -29.5 11t-12.5 30q0 14 14.5 41t33 58.5t33 58t14.5 38.5q0 23 -19.5 35t-44.5 12q-38 0 -76 -20.5
t-70.5 -50.5t-56.5 -60q-3 -4 -8 -4t-8.5 5.5t1.5 10.5q24 29 58.5 61.5t75.5 55t84 22.5q18 0 37.5 -6.5t33 -21.5t13.5 -39q0 -15 -14.5 -43t-33 -59.5t-33 -57t-14.5 -36.5q0 -21 22 -21q23 0 48 20t47 46.5t34 43.5q3 4 7 4q5 0 9.5 -5t-0.5 -11q-14 -20 -37.5 -48
t-51.5 -49t-56 -21zM33 -3q-21 0 -30.5 14t-9.5 30t9 38t20.5 43.5t18.5 36.5q3 6 9 6q5 0 8.5 -4.5t0.5 -10.5q-6 -12 -17 -33t-20 -42t-9 -34q0 -24 20 -24t37.5 26t39.5 66t52 83t73 78t105 51h3q10 0 10 -10q0 -7 -8 -9q-62 -16 -107.5 -56.5t-80 -94t-64.5 -109.5
q-7 -14 -22 -29.5t-38 -15.5zM298 -4q-20 0 -41.5 5.5t-36 21t-14.5 44.5q0 32 17 69t40 71t41 56q3 4 8 4t9 -6t-1 -11q-19 -22 -41 -55t-37.5 -67t-15.5 -61q0 -29 20.5 -40t51.5 -11q32 0 63 13t56 32q2 2 6 2q10 0 10 -10q0 -5 -4 -8q-28 -21 -61 -35t-70 -14z" />
    <glyph glyph-name="i" unicode="i" horiz-adv-x="309" 
d="M275 402q-24 0 -41 17t-17 41q0 25 17 42t41 17q25 0 42 -17t17 -42q0 -24 -17 -41t-42 -17zM275 422q17 0 28 11t11 27q0 17 -11 28t-28 11q-16 0 -27 -11t-11 -28q0 -16 11 -27t27 -11zM140 56q-19 0 -26.5 14t-7.5 31q0 14 7 40t19.5 56.5t28.5 57t33 42.5q9 9 19 16
q10 14 10 26q0 15 -13.5 23.5t-29.5 8.5q-17 0 -26 -8q-14 -13 -29.5 -30.5t-32.5 -40.5q-18 -23 -38 -49.5t-46 -56.5q-3 -4 -8 -4t-8.5 6t0.5 11q26 29 46.5 56t37.5 49q18 23 33.5 41.5t31.5 32.5q15 14 37 14q26 0 47 -17.5t21 -40.5q0 -20 -21 -37l-5 -4
q-10 -9 -20.5 -19t-17.5 -22q-11 -23 -24.5 -50.5t-23 -54.5t-9.5 -48q0 -23 19 -23q9 0 22 5q31 13 64 41t71 77q3 4 7 4q6 0 10 -5.5t-1 -10.5q-31 -40 -57.5 -65t-61.5 -45q-19 -11 -33 -16t-25 -5zM135 -5q-49 0 -76.5 34t-23.5 84q1 15 9 42.5t20.5 56t25.5 46.5
q3 4 8 4t9 -5t-1 -11q-12 -16 -23.5 -43t-19 -53t-8.5 -39q-3 -37 18 -67t63 -30q26 0 61 15.5t76 52.5q2 2 6 2q7 0 10.5 -6.5t-2.5 -11.5q-43 -38 -81.5 -54.5t-70.5 -16.5z" />
    <glyph glyph-name="j" unicode="j" horiz-adv-x="212" 
d="M183 401q-24 0 -41.5 17.5t-17.5 41.5t17.5 41.5t41.5 17.5q25 0 42 -17.5t17 -41.5t-17 -41.5t-42 -17.5zM183 421q17 0 28 11.5t11 27.5t-11 27.5t-28 11.5q-16 0 -27.5 -11.5t-11.5 -27.5t11.5 -27.5t27.5 -11.5zM103 124q-5 0 -8.5 4t-1.5 10q2 5 9 23.5t16 43
t17.5 48t14 39.5t5.5 17q0 13 -15 13q-16 0 -36 -16.5t-39 -40t-34 -45.5t-23 -34q-3 -4 -8 -4t-9 5t0 11q11 15 27.5 38.5t36.5 48t42 41t43 16.5q13 0 24 -8t11 -25q0 -2 -5.5 -19t-14.5 -41.5t-18 -49.5t-16.5 -44t-9.5 -25q-3 -6 -8 -6zM-216 -231q-14 -1 -30 7.5
t-16 29.5t19.5 44.5t48.5 46.5t58.5 43t49.5 34q4 2 6 2q10 0 10 -11q0 -5 -4 -8q-17 -12 -44 -29.5t-54 -38.5t-46.5 -41.5t-22.5 -38.5v-3q0 -17 22 -17q29 0 58 24t56.5 63t52 86t45 94t35 86.5t21.5 63.5q3 7 10 7q5 0 8.5 -3.5t1.5 -9.5q-7 -21 -21 -60.5t-35 -87.5
t-46.5 -97t-55 -90.5t-61.5 -67.5t-66 -28zM86 65q-10 0 -10 10q0 4 4 7q36 26 69 57.5t55 59.5q3 4 8 4t9 -5.5t-1 -10.5q-24 -31 -58 -62.5t-70 -57.5q-2 -2 -6 -2zM-217 -301q-24 0 -46 13.5t-22 44.5q0 10 10 10t10 -10q0 -19 13.5 -28.5t34.5 -9.5q27 0 57.5 17.5
t58 42t44.5 44.5q35 42 61.5 91t45.5 95q3 6 9 6q29 0 58 21.5t54 48.5q4 4 8 4q6 0 9.5 -5.5t-1.5 -10.5q-23 -25 -54.5 -50t-66.5 -28q-19 -46 -46 -94.5t-62 -89.5q-17 -20 -46 -46.5t-63 -46t-66 -19.5z" />
    <glyph glyph-name="k" unicode="k" horiz-adv-x="486" 
d="M0 182q-5 0 -8.5 6t0.5 11q25 28 59.5 70.5t76 91t86.5 96t91 86.5t90.5 62.5t84.5 23.5q12 0 29.5 -5t31.5 -16.5t14 -31.5q0 -18 -10 -25.5t-24 -9.5t-27 -2q-30 0 -62 -15.5t-62 -39.5t-56 -51.5t-44 -51.5q-3 -4 -8 -4t-8.5 5t0.5 11q18 24 44.5 52.5t59 54.5
t67.5 42.5t69 16.5q9 0 25 1.5t16 15.5t-18.5 23.5t-36.5 9.5q-37 0 -79.5 -23.5t-87.5 -62.5t-89.5 -86t-85 -94.5t-74 -88.5t-56.5 -68q-3 -4 -8 -4zM298 -4q-20 0 -41.5 5.5t-36 21t-14.5 44.5q0 5 1.5 22t3.5 37.5t3.5 37.5t1.5 21q1 12 17 13.5t50 11.5q15 5 40.5 14
t49.5 26t35 44q3 8 3 16q0 17 -17 30t-56 13q-38 0 -76 -20.5t-70.5 -50.5t-56.5 -60q-3 -4 -8 -4t-8.5 5.5t1.5 10.5q24 29 58.5 61.5t75.5 55t84 22.5q42 0 67.5 -17.5t25.5 -44.5q0 -29 -30.5 -60t-92.5 -52q-16 -5 -39 -10t-33 -7q-1 -14 -3.5 -39t-4.5 -47t-2 -29
q0 -29 20.5 -40t51.5 -11q32 0 63 13t56 32q2 2 6 2q10 0 10 -10q0 -5 -4 -8q-28 -21 -61 -35t-70 -14zM33 -3q-21 0 -30.5 14t-9.5 30t9 38t20.5 43.5t18.5 36.5q3 6 9 6q5 0 8.5 -4.5t0.5 -10.5q-6 -12 -17 -33t-20 -42t-9 -34q0 -24 20 -24t37.5 26t39.5 66t52 83t73 78
t105 51h3q10 0 10 -10q0 -7 -8 -9q-62 -16 -107.5 -56.5t-80 -94t-64.5 -109.5q-7 -14 -22 -29.5t-38 -15.5zM333 65q-27 0 -34.5 17.5t-7.5 42.5q0 8 0.5 16.5t0.5 17.5q0 10 10 10t10 -11q-1 -10 -1 -19v-17q0 -19 4.5 -28t17.5 -9q17 0 37.5 12t41.5 30.5t38.5 38
t27.5 33.5q3 4 7 4q5 0 9.5 -5t-0.5 -11q-9 -13 -27.5 -33.5t-41 -40.5t-47 -34t-45.5 -14z" />
    <glyph glyph-name="l" unicode="l" horiz-adv-x="313" 
d="M0 182q-5 0 -8.5 6t0.5 11q20 23 37 48t33 50q27 40 59.5 86t70 91t77.5 82.5t81 60.5q35 19 61 19t39.5 -16.5t13.5 -42.5q0 -12 -2.5 -24.5t-8.5 -26.5q-3 -7 -22.5 -30.5t-48.5 -57t-61.5 -69.5t-62.5 -69t-51.5 -55t-27.5 -27q-3 -3 -6 -3q-11 0 -11 12q0 3 4 7
q6 5 27 27t51 54t62 67.5t60.5 68t47.5 55.5t21 28q10 23 10 44q0 17 -8.5 27.5t-25.5 10.5q-21 0 -51 -17q-39 -22 -78 -58.5t-76 -81t-69 -89.5t-58 -84q-17 -25 -34 -51t-37 -49q-3 -4 -8 -4zM103 62q-31 0 -43.5 13t-12.5 32q0 20 9.5 43.5t19.5 40.5q15 26 41 62
t57.5 75.5t64 76.5t61.5 65.5t48 42.5q2 2 6 2q10 0 10 -10q0 -5 -4 -8q-19 -13 -47 -41t-60 -64.5t-63.5 -75.5t-57 -74t-39.5 -61q-7 -13 -17 -33t-10 -37q0 -13 8 -21t29 -8q27 0 62.5 13t72.5 39.5t68 65.5q3 4 7 4q6 0 9.5 -5.5t-1.5 -11.5q-32 -41 -71 -69t-77.5 -42
t-69.5 -14zM94 0q-50 0 -84.5 21.5t-34.5 63.5q0 11 10 11t10 -11q0 -28 29.5 -46.5t75.5 -18.5q38 0 83.5 16t89.5 53q2 2 6 2q10 0 10 -10q0 -5 -4 -8q-43 -37 -94 -55t-97 -18z" />
    <glyph glyph-name="m" unicode="m" horiz-adv-x="687" 
d="M0 182q-5 0 -8.5 6t0.5 11q47 53 90.5 107.5t92.5 105.5q13 13 26.5 18.5t26.5 5.5q20 0 35.5 -10.5t15.5 -24.5q0 -8 -8 -18q-3 -3 -7 -3q-6 0 -9.5 5.5t1.5 11.5q2 2 2 4q0 8 -14 13q-3 1 -6.5 1.5t-8.5 0.5q-9 0 -19.5 -4t-20.5 -14q-48 -50 -91.5 -104.5
t-89.5 -107.5q-3 -4 -8 -4zM127 218q-5 0 -8.5 5.5t1.5 10.5q24 29 58.5 61.5t75.5 55t84 22.5q14 0 28.5 -4t27.5 -12q5 -3 5 -8t-5 -8.5t-12 0.5q-9 6 -21 9t-23 3q-38 0 -76 -20.5t-70.5 -50.5t-56.5 -60q-3 -4 -8 -4zM551 69q-17 0 -30 11t-13 30q0 14 14.5 41
t33.5 58.5t33.5 58t14.5 38.5q0 23 -20 35t-45 12q-38 0 -75.5 -20.5t-70 -51t-56.5 -59.5q-3 -4 -8 -4t-8.5 5.5t0.5 10.5q24 29 58.5 61.5t75.5 55t84 22.5q18 0 38 -6.5t33.5 -21.5t13.5 -39q0 -15 -14.5 -43t-33.5 -59.5t-33.5 -57t-14.5 -36.5q0 -21 23 -21t48 20
t46.5 46.5t33.5 43.5q3 4 7 4q5 0 9.5 -5t-0.5 -11q-14 -20 -37.5 -48t-51 -49t-55.5 -21zM234 -3q-20 0 -30 14t-10 30t9 38t20.5 43.5t18.5 36.5q3 6 9 6q5 0 8.5 -4.5t0.5 -10.5q-6 -12 -17 -33t-20 -42t-9 -34q0 -24 20 -24t37.5 26t39.5 66t52 83t73 78t105 51h3
q10 0 10 -10q0 -7 -8 -9q-62 -16 -107.5 -56.5t-80 -94t-64.5 -109.5q-7 -14 -22 -29.5t-38 -15.5zM33 -3q-21 0 -30.5 14t-9.5 30t9 38t20.5 43.5t18.5 36.5q3 6 9 6q5 0 8.5 -4.5t0.5 -10.5q-6 -12 -17 -33t-20 -42t-9 -34q0 -24 20 -24t37.5 26t39.5 66t52 83t73 78
t105 51h3q10 0 10 -10q0 -7 -8 -9q-62 -16 -107.5 -56.5t-80 -94t-64.5 -109.5q-7 -14 -22 -29.5t-38 -15.5zM500 -4q-21 0 -42 5.5t-35.5 21t-14.5 44.5q0 32 17 69t40 71t41 56q3 4 7 4q6 0 9.5 -6t-1.5 -11q-18 -22 -40 -55t-37.5 -67t-15.5 -61q0 -29 20.5 -40t51.5 -11
q32 0 62.5 13t56.5 32q2 2 6 2q10 0 10 -10q0 -5 -4 -8q-28 -21 -61.5 -35t-69.5 -14z" />
    <glyph glyph-name="n" unicode="n" horiz-adv-x="486" 
d="M0 182q-5 0 -8.5 6t0.5 11q31 35 53.5 62.5t43 55.5t44.5 62q11 15 25 21.5t27 6.5q21 0 36.5 -12t15.5 -27q0 -9 -7 -17q-3 -3 -7 -3q-5 0 -8.5 5.5t1.5 11.5q1 1 1 4t-3 7t-14 8q-7 3 -15 3q-9 0 -18.5 -4.5t-17.5 -15.5q-25 -34 -45.5 -62t-42.5 -56t-53 -63
q-3 -4 -8 -4zM349 69q-16 0 -29.5 7.5t-13.5 22.5q0 10 5 19q7 13 22 39.5t31 56t27 55t11 37.5q0 23 -19.5 35t-44.5 12q-39 0 -73 -21.5t-62 -51.5t-51 -58q-3 -4 -8 -4t-8.5 5.5t0.5 10.5q26 31 56 63t66.5 54t79.5 22q18 0 37.5 -6.5t33 -21.5t13.5 -39
q0 -15 -11.5 -41.5t-27.5 -57t-31 -57.5t-23 -42q-3 -4 -3 -8q0 -7 8 -9t15 -2q23 0 48 20t47 46.5t34 43.5q3 4 7 4q5 0 9.5 -5t-0.5 -11q-14 -20 -37.5 -48t-51.5 -49t-56 -21zM33 -3q-21 0 -30.5 14t-9.5 30q0 13 11 36t26.5 49t29.5 49t21 37q3 6 9 6q5 0 8.5 -4
t0.5 -10q-6 -12 -19.5 -35t-29 -49t-26.5 -47.5t-11 -31.5q0 -24 20 -24t36 18.5t32 48.5t36 65t47 69.5t65 62t91 40.5h3q10 0 10 -10q0 -7 -8 -9q-51 -13 -87.5 -40t-62.5 -61.5t-45.5 -70.5t-36.5 -66t-36 -48.5t-44 -18.5zM298 -4q-31 0 -54.5 19t-23.5 55v7.5t1 7.5
q3 23 15.5 52t29 57t29.5 47q3 5 8 5t8.5 -5t-0.5 -12l-10 -14.5t-22 -37.5q-15 -27 -27 -56t-12 -50q0 -27 16.5 -41t41.5 -14q32 0 63 13t56 32q2 2 6 2q10 0 10 -10q0 -5 -4 -8q-28 -21 -61 -35t-70 -14z" />
    <glyph glyph-name="o" unicode="o" horiz-adv-x="343" 
d="M259 177q-6 0 -9.5 5t0.5 11q30 44 30 85q0 29 -17.5 47.5t-52.5 18.5q-52 0 -101.5 -45.5t-101.5 -113.5q-3 -3 -6 -3q-5 0 -8.5 6t0.5 12q34 45 68 82t70.5 59t76.5 22q50 0 71 -24t21 -58q0 -25 -9 -51t-25 -49q-3 -4 -7 -4zM79 53q-21 0 -32.5 14.5t-11.5 37.5
q0 30 18 66t46.5 68.5t59.5 53.5t56 21q14 0 14 -10q0 -4 -3 -7.5t-8 -2.5q-21 2 -48.5 -17t-53.5 -49t-43.5 -63.5t-17.5 -60.5q0 -13 5 -22t19 -9q16 0 34 10.5t33 25.5t22 28q3 5 8 5t9 -4.5t0 -10.5q-9 -15 -26 -32.5t-38 -29.5t-42 -12zM247 133q-33 0 -57 20t-24 54
q0 12 3.5 25.5t10.5 28.5q3 6 9 6q5 0 8.5 -4t0.5 -10q-6 -12 -8.5 -23t-2.5 -21q0 -27 18 -41.5t43 -14.5q22 0 45 11t42 35q3 4 7 4q5 0 9 -5.5t0 -10.5q-23 -28 -50.5 -41t-53.5 -13zM77 -10q-43 0 -72 28.5t-25 67.5q0 10 10 10q4 0 7.5 -3.5t2.5 -8.5
q-2 -26 20.5 -50.5t57.5 -24.5q23 0 49 14t52 47l6.5 8t14.5 17.5t11 15.5t8 6t8.5 -4.5t0.5 -10.5q-6 -12 -16 -23t-18 -22q-28 -36 -58.5 -51.5t-58.5 -15.5z" />
    <glyph glyph-name="p" unicode="p" horiz-adv-x="396" 
d="M-236 -258q-25 0 -44 17.5t-19 36.5q0 14 13 24.5t44 11.5q29 1 62.5 35t71 91.5t78.5 127.5q23 39 52 89.5t61.5 102.5t67.5 97.5t69 74.5q8 7 24.5 18t37 22.5t39.5 19t31 7.5q28 0 45.5 -7.5t26.5 -18.5q8 -11 8 -23q0 -16 -13.5 -28.5t-30.5 -13.5q-26 -1 -51.5 -12
t-48.5 -28q-4 -2 -6 -2q-10 0 -10 11q0 5 4 8q26 17 53.5 29t57.5 14q12 1 19 7t7 13q0 11 -14.5 21t-46.5 10q-12 0 -36.5 -12t-48.5 -26.5t-35 -24.5q-33 -27 -67 -72t-66.5 -96.5t-61 -101.5t-50.5 -88q-39 -67 -78 -127t-76.5 -98t-73.5 -39q-21 -1 -30 -6t-9 -12
q0 -11 14.5 -21.5t28.5 -10.5q36 0 72 28t70 72t64 94.5t54 96t40 75.5q14 25 32.5 56.5t41 60.5t49.5 48t57 19q23 0 35.5 -14t12.5 -36q0 -28 -17 -63.5t-44.5 -69t-60.5 -55t-66 -21.5q-10 0 -10 10t10 10q27 0 56.5 19.5t54.5 49.5t41 62.5t16 57.5q0 30 -28 30
q-24 0 -47 -16.5t-43.5 -43t-38.5 -57t-33 -57.5q-17 -32 -42 -79.5t-56 -99t-66.5 -96.5t-74 -73t-78.5 -28zM86 1q-10 0 -10 10t10 10q47 0 92.5 19.5t82.5 53.5t59 77.5t22 91.5q0 36 -20 60t-56 24q-25 0 -37.5 -5.5t-23.5 -16.5q-3 -3 -7 -3q-5 0 -8.5 6t1.5 11
q14 14 30.5 21t44.5 7q47 0 71.5 -31t24.5 -73q0 -52 -24 -99.5t-63.5 -84t-88.5 -57.5t-100 -21z" />
    <glyph glyph-name="q" unicode="q" horiz-adv-x="459" 
d="M1 182q-6 0 -9 6t1 12q20 24 42.5 52.5t49.5 53.5t58 41t66 16q15 0 31.5 -3.5t29.5 -14.5q4 -3 4 -8t-5.5 -8.5t-10.5 0.5q-10 8 -22.5 11t-26.5 3q-41 0 -76.5 -25.5t-66.5 -61.5t-58 -70q-3 -4 -7 -4zM76 59q-24 0 -31.5 19.5t-7.5 32.5q0 25 17 59t44 67t58 55t59 22
q14 0 14 -10q0 -4 -3 -7.5t-8 -2.5q-22 2 -49.5 -17.5t-53 -50t-42 -61.5t-16.5 -54q0 -14 5 -23t14 -9q10 0 21 8.5t23 22.5q16 18 33 42.5t35 50.5q17 25 35.5 49.5t35.5 43.5q20 20 38.5 33t35.5 13q10 0 20 -5q8 -4 11 -10.5t3 -14.5q0 -11 -4 -23t-7 -22
q-15 -46 -30 -92.5t-31 -92.5q37 10 81 43.5t75 73.5q3 4 8 4t9 -5t-1 -11q-21 -28 -54.5 -57.5t-68.5 -49.5t-64 -20q-14 0 -9 13q17 50 33.5 99.5t32.5 98.5l5.5 16.5t3.5 19.5q0 15 -13 15q-14 0 -29 -11t-32 -30t-34.5 -43.5t-35.5 -50.5q-19 -27 -37.5 -52.5
t-35.5 -43.5q-30 -32 -53 -32zM230 -305q-38 0 -64.5 27t-26.5 88q0 40 11 90.5t28 105.5t34.5 106.5t30.5 93.5q3 7 10 7q5 0 8.5 -3.5t1.5 -9.5q-12 -35 -29 -86.5t-34.5 -108t-29 -108t-11.5 -86.5q0 -52 21 -74t51 -22q29 0 60 16t57 43.5t39 60.5q3 6 9 6q5 0 8 -4
t1 -10q-15 -39 -44 -68.5t-63.5 -46.5t-67.5 -17zM76 -11q-40 0 -68.5 28.5t-27.5 68.5q0 9 10 9q4 0 7.5 -2.5t2.5 -7.5q-1 -32 22 -54t54 -22q14 0 35.5 6.5t35.5 25.5q3 4 8 4t9 -5t-1 -11q-19 -25 -45 -32.5t-42 -7.5zM256 -226q-27 3 -37 20t-10 40q0 29 9 59t14 47
q7 23 13.5 41.5t7.5 25.5q2 8 10 8q38 0 67.5 16t60.5 40q2 2 6 2q10 0 10 -10q0 -5 -4 -8q-30 -22 -60.5 -40t-71.5 -20q-13 -39 -25.5 -78t-17.5 -80q-2 -18 8 -30.5t25 -12.5q16 0 38 15.5t46 58.5q3 5 9 5q5 0 9 -4.5t0 -10.5q-26 -47 -54 -66.5t-53 -17.5z" />
    <glyph glyph-name="r" unicode="r" horiz-adv-x="382" 
d="M0 183q-5 0 -8.5 5t0.5 11q23 30 45.5 66.5t39 68t22.5 45.5q16 39 38 55.5t42 16.5q22 0 37.5 -15t15.5 -38q0 -12 -8 -30q-3 -6 -9 -6q-5 0 -8.5 4t-0.5 10q5 12 5 21q0 14 -9 24t-23 10q-15 0 -31.5 -14t-30.5 -46q-6 -15 -23 -47t-40 -69t-46 -68q-3 -4 -8 -4z
M229 64q-13 0 -22 6q-17 11 -17 32q0 22 14.5 47.5t32 48t24.5 35.5l16 26t8 28q0 8 -5 16.5t-21 15t-51 6.5q-7 0 -16 -1t-20 -1h-1q-10 0 -10 10t9 10q8 1 17 1.5t17 0.5q39 0 70.5 -11.5t31.5 -43.5q0 -20 -14 -45q-18 -34 -41.5 -63.5t-38.5 -64.5q-1 -3 -1.5 -6
t-0.5 -6q0 -13 8 -18q5 -3 11 -3q15 0 36.5 14.5t44 35t40.5 39t25 27.5q3 4 7 4q5 0 9 -5.5t-1 -11.5q-11 -14 -41 -43.5t-62 -54.5t-58 -25zM-7 95q-6 0 -9.5 6t2.5 11q33 32 63 71.5t51.5 72.5t26.5 46q3 6 9 6q5 0 8 -4t1 -10q-5 -14 -27 -48t-53 -74.5t-65 -73.5
q-3 -3 -7 -3zM180 -10q-34 0 -59.5 17t-25.5 57q0 32 18 70.5t42 75t43 62.5q3 4 8 4t9 -5t-1 -11q-17 -24 -40.5 -59t-41 -71.5t-17.5 -65.5q0 -27 16.5 -40.5t44.5 -13.5q36 0 78.5 19t65.5 48q3 4 8 4t9 -5.5t-1 -10.5q-27 -32 -71 -53.5t-85 -21.5z" />
    <glyph glyph-name="s" unicode="s" horiz-adv-x="356" 
d="M216 86q-10 0 -10 8q0 5 4 9q25 27 32 58t7 62q0 21 -1.5 40t-1.5 35q0 28 8 41q3 4 15 9t23 13.5t11 21.5q0 6 -3 12q-1 4 -6.5 8t-15.5 4t-26 -6.5t-39 -23.5q-35 -26 -84.5 -69.5t-120.5 -120.5q-3 -3 -7 -3q-5 0 -8.5 5.5t1.5 11.5q12 13 36.5 40.5t57 59.5t67.5 61
t67.5 48t57.5 19q26 0 38 -26q2 -4 3 -8.5t1 -9.5q0 -18 -13.5 -35t-39.5 -25q-3 -9 -3 -28q0 -17 1.5 -36t1.5 -29q1 -28 -4 -58.5t-22 -60.5q29 13 56.5 34.5t49.5 52.5q3 4 7 4q5 0 8.5 -6t-0.5 -11q-19 -27 -47 -50t-55.5 -37t-45.5 -14zM93 55q-24 1 -40.5 18t-16.5 43
q0 20 10 40q12 27 36.5 59.5t56 63t62.5 50.5q4 2 6 2q9 0 9 -10q0 -5 -5 -8q-29 -18 -58.5 -47.5t-52.5 -61t-35 -56.5q-4 -9 -6 -17t-2 -15q0 -19 12 -30t28 -11q23 0 47 22.5t31 73.5q5 34 6 50t2 39q0 10 10 10t10 -10q-1 -25 -4.5 -60.5t-14.5 -69.5t-33 -55.5
t-58 -19.5zM94 -6q-12 0 -31 3.5t-38 12.5t-32 26t-13 43v7.5t1 7.5q1 8 10 8q10 0 10 -9q0 -4 -0.5 -7.5t-0.5 -5.5q0 -25 16 -39.5t38.5 -20.5t40.5 -6q45 0 82.5 11.5t65 27.5t42.5 30q3 3 7 3q6 0 9.5 -6t-2.5 -11q-16 -15 -46.5 -32.5t-70.5 -30t-88 -12.5z" />
    <glyph glyph-name="t" unicode="t" horiz-adv-x="276" 
d="M240 384q-6 0 -9.5 5.5t1.5 11.5l71 77q5 5 5 13q0 9 -8.5 16t-19.5 7q-10 0 -21 -9q-12 -10 -37 -38t-57 -67q0 -1 -3 -2.5t-4 -1.5h-79q-10 0 -10 10t10 10h74q30 38 55 65.5t37 38.5q15 14 35 14t34 -12.5t14 -29.5q0 -15 -10 -26q-2 -3 -13.5 -16t-27.5 -30t-30 -33
q-3 -3 -7 -3zM-1 183q-9 0 -9 9q0 3 5 10q26 32 60 76t68 92q3 4 7 4q6 0 9.5 -5.5t-0.5 -10.5q-34 -48 -68 -92.5t-63 -78.5q-4 -4 -9 -4zM111 59q-37 0 -55 29q-4 8 -7 16.5t-3 18.5q0 17 8.5 39.5t27.5 48.5q11 16 32 41.5t44.5 54t40.5 52.5q0 1 3.5 2.5t4.5 1.5h86
q10 0 10 -10t-10 -10h-81q-17 -24 -39.5 -51.5t-43 -52.5t-31.5 -40q-17 -25 -24 -43.5t-7 -32.5q0 -15 6 -24q12 -20 38 -20t53.5 17.5t54.5 45t49 57.5q3 4 8 4t9 -5t-1 -11q-37 -52 -84 -90t-89 -38zM79 -1q-39 0 -62.5 22.5t-21.5 64.5q0 9 10 9q4 0 7.5 -2.5t2.5 -7.5
q-1 -28 16.5 -47.5t51.5 -19.5q24 0 55.5 12.5t68.5 40.5q2 2 6 2q10 0 10 -10q0 -5 -4 -8q-37 -28 -73.5 -42t-66.5 -14z" />
    <glyph glyph-name="u" unicode="u" horiz-adv-x="485" 
d="M119 53q-7 0 -14.5 9.5t-7.5 29.5q0 21 9 46.5t22.5 51t26 45t19.5 28.5q15 19 26 33t13 17q10 14 10 26q0 15 -13.5 23.5t-29.5 8.5q-17 0 -26 -8q-14 -13 -29.5 -30.5t-32.5 -40.5q-18 -23 -38 -49t-46 -56q-3 -4 -8 -4t-8.5 5.5t0.5 10.5q26 29 46.5 56t37.5 49
q18 23 33.5 41.5t31.5 32.5q14 13 38 13t44.5 -14.5t20.5 -37.5q0 -9 -6 -21.5t-28 -41.5q-54 -71 -73 -112t-19 -73q0 -15 6 -20q4 -3 4 -8q0 -10 -9 -10zM159 75q-10 0 -10 10q0 6 6 9q48 26 82 71t60 97t50 97q6 12 17.5 17.5t24.5 5.5q23 0 43.5 -15t20.5 -38
q0 -17 -13 -34q-3 -4 -8 -4t-8.5 5t0.5 11q9 12 9 23q0 15 -14 23t-28 8q-8 0 -15.5 -3t-10.5 -9q-25 -47 -52 -100.5t-62.5 -99.5t-86.5 -73q-2 -1 -5 -1zM99 -4q-36 1 -57.5 25t-21.5 65q0 7 0.5 14t1.5 14q3 15 17 47t36.5 68.5t47.5 63.5q3 4 7 4q6 0 9 -6t-2 -11
q-24 -27 -45 -61.5t-34.5 -64.5t-15.5 -43q-1 -7 -1.5 -13.5t-0.5 -12.5q0 -35 18 -52t44 -17q32 0 74 27t82 87q3 5 8 5t9 -5t-1 -12q-42 -62 -88.5 -92t-86.5 -30zM340 53q-6 0 -9 1q-14 5 -19.5 15t-5.5 23q0 17 7 35.5t15.5 35.5t13.5 26q11 21 22.5 42t21.5 34q3 4 8 4
t9 -5t-1 -11q-22 -29 -39 -63.5t-32 -67.5q-6 -13 -6 -27q0 -21 16 -21q8 0 23 9q34 22 61 54t52 62q3 4 7 4q6 0 9.5 -5.5t-1.5 -11.5q-7 -9 -24.5 -30t-40.5 -45t-46 -41t-41 -17zM310 -5q-19 0 -41 6.5t-35 25.5q-2 4 -2 6q0 10 10 10q5 0 8 -4q9 -13 26 -18.5t34 -5.5
q26 0 58.5 11t65.5 36q2 2 6 2q10 0 10 -10q0 -5 -4 -8q-35 -27 -70.5 -39t-65.5 -12z" />
    <glyph glyph-name="v" unicode="v" horiz-adv-x="455" 
d="M164 54q-26 0 -36.5 17.5t-10.5 45.5t8 62t19.5 66t22 55.5t14.5 30.5q9 15 9 28t-8 21t-21 8t-29.5 -11t-30.5 -37q-19 -34 -41.5 -76t-51.5 -77q-4 -4 -9 -4t-8 5t1 11q29 35 50.5 76t40.5 75q18 32 38.5 45.5t39.5 13.5q21 0 35 -14t14 -36q0 -18 -12 -38
q-3 -6 -13 -28.5t-21.5 -54.5t-19.5 -64.5t-8 -57.5q0 -19 6.5 -30.5t21.5 -11.5q7 0 26.5 13.5t29.5 29.5q3 5 9 5q5 0 8.5 -4.5t0.5 -10.5q-7 -13 -21 -25t-28.5 -20t-24.5 -8zM323 99q-47 0 -64.5 29t-17.5 66q0 29 7 58t17 49q11 23 27.5 35.5t32.5 12.5t27 -13t11 -41
q0 -8 -1.5 -18t-3.5 -21q-6 -27 -16.5 -53t-20.5 -43q-2 -5 -9 -5q-5 0 -9 4.5t0 10.5q9 15 19.5 40t16.5 50q2 11 3.5 20t1.5 16q0 17 -6 25t-14 8q-10 0 -21.5 -9.5t-19.5 -26.5t-15.5 -44.5t-7.5 -54.5q0 -30 13.5 -52.5t49.5 -22.5q18 0 41 12.5t45 31t38 36.5q3 4 8 4
t8.5 -6t-1.5 -11q-16 -17 -40 -37.5t-50 -35t-49 -14.5zM-7 95q-6 0 -9.5 6t2.5 11q38 37 58.5 69t45.5 76q3 5 9 5q5 0 9 -4.5t0 -10.5q-25 -45 -47 -78t-61 -71q-3 -3 -7 -3zM137 -4q-33 0 -53.5 16t-29.5 41t-8 50q0 10 10 10t10 -10q-1 -35 16.5 -61t54.5 -26
q38 0 67 20.5t54 51.5q3 4 8 4t9 -5.5t-1 -10.5q-27 -33 -59.5 -56.5t-77.5 -23.5z" />
    <glyph glyph-name="w" unicode="w" horiz-adv-x="690" 
d="M397 65q-20 0 -28.5 10.5t-8.5 27.5q0 23 11 52.5t26.5 60t30.5 54.5t23 36q7 10 21 27t14 29v5q0 18 -19 18q-15 0 -38 -14t-50 -48q-14 -17 -35 -48t-46.5 -66t-53 -67t-54.5 -52t-50 -20q-22 0 -31 12t-9 28q0 23 10.5 49.5t16.5 38.5q12 26 27.5 50.5t28.5 43.5
q12 17 21.5 29t15.5 22q10 14 10 26q0 18 -16 18q-10 0 -36.5 -14t-55.5 -50q-18 -22 -42 -53t-73 -84q-3 -3 -7 -3q-5 0 -8.5 5.5t1.5 11.5q48 51 72 82t41 53q32 40 63 55.5t47 15.5q17 0 26 -9.5t9 -24.5q0 -8 -3 -18t-11 -21q-7 -11 -17.5 -25t-22.5 -32
q-13 -21 -31 -52.5t-31.5 -62t-13.5 -50.5q0 -21 19 -21t43.5 20t51 51.5t51.5 66t45 63.5t32 44q30 38 57.5 54t46.5 16t29 -10.5t10 -27.5q0 -18 -12 -33.5t-29 -41.5q-16 -24 -36.5 -59.5t-35.5 -70t-15 -55.5q0 -22 19 -22q9 0 29.5 8.5t33.5 24.5q3 4 7 4q5 0 9 -5.5
t-1 -10.5q-15 -20 -40 -30.5t-38 -10.5zM561 99q-40 0 -56.5 21.5t-16.5 51.5q0 35 14.5 72.5t29.5 58.5q16 22 36.5 33.5t38.5 11.5q16 0 26.5 -9.5t10.5 -29.5t-15 -55q-13 -27 -29.5 -53t-29.5 -42q-3 -4 -8 -4t-8.5 5.5t1.5 10.5q4 5 15 21.5t24 38t22 42.5t9 36
q0 19 -19 19q-11 0 -28 -9.5t-30 -27.5q-8 -11 -17.5 -31t-16 -43t-6.5 -44q0 -22 11.5 -38t41.5 -16q27 0 60.5 25.5t61.5 56.5q3 3 7 3q5 0 8.5 -5.5t-1.5 -11.5q-17 -19 -40 -39.5t-48 -34.5t-48 -14zM-22 95q-10 0 -10 11q0 4 4 7q45 36 74 69t64 76q3 4 8 4t8.5 -5
t-1.5 -11q-24 -30 -44.5 -54.5t-43 -47t-53.5 -47.5q-2 -2 -6 -2zM351 -4q-34 0 -56.5 21t-22.5 58q0 20 7 45t23 53q3 5 8 5t8.5 -4.5t0.5 -10.5q-15 -27 -21.5 -48t-6.5 -38q0 -31 18.5 -46t41.5 -15q38 0 72 20.5t68 52.5q3 3 7 3q5 0 8.5 -6t-2.5 -11
q-34 -32 -71.5 -55.5t-81.5 -23.5zM94 -4q-40 0 -56.5 22.5t-16.5 51.5q0 17 5 35q2 8 9 8q5 0 8.5 -3.5t1.5 -8.5q-5 -18 -5 -32q0 -23 13 -38t41 -15q38 0 72 20.5t68 52.5q3 3 7 3q5 0 8.5 -6t-2.5 -11q-34 -32 -71.5 -55.5t-81.5 -23.5z" />
    <glyph glyph-name="x" unicode="x" horiz-adv-x="421" 
d="M290 73q-16 0 -30.5 10t-27.5 33q-15 27 -25 60.5t-16.5 65t-9.5 54t-3 29.5q-1 20 -10.5 33t-23.5 13q-10 0 -24 -10.5t-28 -36.5q-13 -22 -34 -57t-50 -80q-3 -4 -7 -4q-6 0 -9.5 5t0.5 11q29 43 49 78t33 57q17 31 35.5 44t34.5 13q22 0 37.5 -18.5t16.5 -46.5
q0 -6 3 -28t9 -52.5t16 -62t24 -57.5q9 -17 20 -24.5t23 -7.5q23 0 46.5 20t43 45t30.5 40q3 4 8 4t9 -5t-1 -11q-14 -18 -36.5 -45t-49 -48t-53.5 -21zM253 187q-5 0 -8.5 5.5t1.5 11.5q31 35 63.5 70t59.5 73q3 5 3 7q0 7 -7.5 11t-15.5 4q-12 0 -18 -7l-30 -35t-32.5 -38
t-17.5 -21t-8 -4t-8.5 5.5t0.5 10.5l81 96q6 8 14.5 11t16.5 3q17 0 31 -10.5t14 -26.5q0 -9 -6 -18q-28 -38 -61 -74t-65 -71q-3 -3 -7 -3zM-7 95q-6 0 -9.5 6t2.5 11q50 48 80.5 95t41.5 67q3 5 9 5q5 0 9 -4.5t0 -10.5q-11 -20 -43 -68t-83 -98q-3 -3 -7 -3zM286 -10
q-36 0 -70 22t-59.5 64.5t-34.5 105.5v2q0 9 10 9q9 0 10 -8q9 -60 32 -99t53.5 -57.5t58.5 -18.5q30 0 57.5 15.5t36.5 28.5q3 4 7 4q6 0 10 -5t-1 -11q-12 -16 -43.5 -34t-66.5 -18zM47 -27q-16 0 -30.5 10.5t-14.5 25.5q0 11 7 19q10 14 32.5 41t49.5 59q3 3 7 3
q6 0 10 -5.5t-1 -11.5q-28 -31 -50 -57.5t-32 -40.5q-2 -2 -2 -7q0 -7 7 -11t16 -4q11 0 17 7q19 21 35 40.5t20 24.5q3 4 8 4t8.5 -5.5t-1.5 -10.5q-4 -5 -20 -24.5t-35 -42.5q-6 -7 -14.5 -10.5t-16.5 -3.5z" />
    <glyph glyph-name="y" unicode="y" horiz-adv-x="452" 
d="M146 62q-16 0 -22.5 12t-8.5 25q-2 26 4 64.5t21 82.5t41 85q2 4 -2 12.5t-23 12.5q-3 1 -6 1.5t-7 0.5q-13 0 -26.5 -7.5t-24.5 -26.5q-13 -22 -35.5 -62t-48.5 -75q-3 -4 -8 -4t-8.5 5t0.5 11q26 35 48 74t34 61q14 24 32 34t37 10q24 0 42 -12.5t18 -29.5q0 -7 -5 -15
q-34 -55 -49 -112t-15 -94q0 -19 3.5 -26t9.5 -7q9 0 20.5 10.5t20 22t9.5 13.5q17 24 34 61t32 76t26 67q8 22 30 33.5t44 11.5q19 0 32.5 -9t13.5 -29v-7.5t-2 -8.5q-2 -9 -11 -35t-20 -56.5t-20 -54t-11 -28.5q-3 -6 -8 -6t-8.5 4t-1.5 10q2 5 10.5 28.5t19 53t19.5 55
t11 33.5q1 4 1 10q0 11 -7 15.5t-17 4.5q-16 0 -33.5 -9.5t-23.5 -23.5q-6 -16 -18 -47.5t-27.5 -68t-34.5 -70t-39.5 -55t-41.5 -21.5zM-7 95q-6 0 -9.5 6t2.5 11q38 37 58.5 69t45.5 76q3 5 9 5q5 0 9 -4.5t0 -10.5q-25 -45 -47 -78t-61 -71q-3 -3 -7 -3zM-49 -301
q-24 0 -45.5 13.5t-17.5 45.5q0 9 9 9q4 0 7.5 -3t2.5 -8q-2 -19 10.5 -28t33.5 -9q49 0 95 24.5t86.5 65.5t75 91t60 101t41.5 94q3 5 13 11q34 18 66.5 40t55.5 53q3 5 8 5t9 -6t-1 -11q-29 -39 -65.5 -62t-68.5 -40q-16 -43 -42 -95t-61.5 -103t-78 -93.5t-91.5 -68.5
t-102 -26zM137 -4q-33 0 -53.5 16t-29.5 41t-8 50q0 10 10 10t10 -10q-1 -35 16.5 -61t54.5 -26q24 0 51 25t53.5 65t48.5 85q3 6 9 6q5 0 8.5 -4t0.5 -10q-21 -43 -49 -86.5t-59 -72t-63 -28.5zM-44 -231q-13 0 -26.5 7.5t-13.5 24.5q0 3 0.5 6t1.5 6q5 18 25.5 40.5
t49.5 45t57.5 39.5t47.5 24q1 1 4 1q10 0 10 -11q0 -5 -6 -8q-18 -7 -44.5 -23t-54 -36.5t-47 -41t-23.5 -35.5q0 -1 -0.5 -2.5t-0.5 -2.5q0 -14 19 -14q28 0 62.5 20.5t69.5 53t64.5 67.5t46.5 65q3 5 9 5q5 0 9 -4.5t0 -10.5q-17 -30 -47.5 -67t-68 -71t-75 -56t-69.5 -22
z" />
    <glyph glyph-name="z" unicode="z" horiz-adv-x="412" 
d="M178 124q-5 0 -8.5 5.5t1.5 11.5q36 40 70.5 64t80.5 46q18 8 39 25t21 39q0 8 -5.5 15t-20.5 7q-7 0 -13 -0.5t-13 -0.5q-34 0 -67 6.5t-66 6.5q-47 0 -81.5 -23.5t-34.5 -61.5q0 -27 20 -49q3 -3 3 -7q0 -11 -10 -11q-4 0 -8 4q-26 27 -26 62q0 33 19.5 57t51 37
t66.5 13q38 0 75 -8.5t77 -4.5q27 3 40 -9t13 -30q0 -16 -10 -34t-29 -33q-16 -12 -34.5 -19.5t-36.5 -17.5q-21 -11 -47.5 -30.5t-59.5 -56.5q-3 -3 -7 -3zM138 227q-4 0 -7 4q-11 14 -11 32q0 29 21.5 45t54.5 16q31 0 68.5 -7t62.5 -11q9 -1 9 -10q0 -12 -11 -10
q-23 4 -60.5 11t-66.5 7q-58 0 -58 -41q0 -9 7 -20q2 -2 2 -6q0 -10 -11 -10zM99 128q-5 0 -8.5 5.5t1.5 11.5q49 50 82 76t50 35l17 9q1 1 4 1q10 0 10 -11q0 -5 -6 -8l-9 -4.5t-26 -16.5t-44.5 -35t-63.5 -60q-3 -3 -7 -3zM276 -19q-40 0 -72.5 15t-60.5 30.5t-57 15.5
q-18 0 -25 -9t-7 -17q0 -10 4 -13q3 -3 3 -7q0 -11 -10 -11q-4 0 -8 4q-11 11 -11 26q0 20 15.5 33.5t40.5 13.5q28 0 59.5 -16t64.5 -31.5t64 -15.5q36 0 56 21.5t20 46.5q0 14 -6 27.5t-20 23.5q-4 3 -4 8t5.5 9t10.5 -1q18 -14 26 -31.5t8 -34.5q0 -34 -26 -60.5
t-70 -26.5zM297 42q-29 0 -53.5 9.5t-47 21.5t-47.5 21.5t-55 9.5q-40 0 -59 -16.5t-19 -32.5v-2q0 -10 -10 -10q-3 0 -6.5 2.5t-3.5 6.5q0 32 28 52t72 20q30 0 55.5 -9.5t48 -21.5t46.5 -21.5t51 -9.5q11 0 11 -10t-11 -10z" />
    <glyph glyph-name="braceleft" unicode="{" horiz-adv-x="300" 
d="M237 -73q-83 0 -130.5 34t-47.5 113q0 20 3 40t5 38q2 11 -7 30.5t-21.5 43.5t-21 46t-6.5 37q0 15 12.5 38t28.5 47.5t28.5 45t12.5 31.5q-1 36 1.5 73t20.5 70q19 35 61 57.5t116 23.5q23 0 32.5 -9t9.5 -21q0 -16 -13 -30t-34 -14q-42 0 -64 -8t-30.5 -30.5
t-8.5 -67.5q0 -16 0.5 -27.5t0.5 -22.5q0 -17 -3.5 -31t-14 -30.5t-33.5 -43.5q-5 -7 -9 -11.5t-6 -8.5q-3 -5 -8 -5t-9 5t0 11q10 16 24.5 32.5t26 34.5t11.5 38q0 17 -0.5 33t-0.5 31q0 36 7.5 63.5t34 43t82.5 14.5q10 0 19 8t9 15q0 11 -23 11q-78 0 -117 -25t-51 -70.5
t-11 -108.5q0 -14 -12 -36.5t-28 -47t-28.5 -45.5t-13.5 -33l-1 -2q-1 -12 8.5 -32.5t21 -44t20 -45.5t6.5 -36q-3 -19 -5 -37.5t-2 -35.5q0 -39 13.5 -68t48 -45t96.5 -16q14 0 19.5 4t5.5 10q0 7 -7 13t-16 6q-59 0 -85.5 17.5t-26.5 65.5q0 35 6.5 59.5t6.5 46.5
q0 14 -3.5 27.5t-13.5 29.5q-9 16 -18 29t-14 21q-1 2 -1 5q0 10 10 10q6 0 9 -6q14 -26 33 -52t19 -58q0 -6 -3.5 -26t-7 -44t-3.5 -45q0 -15 3 -26q5 -16 24 -25t65 -9q20 0 31.5 -13t11.5 -27q0 -13 -10.5 -23t-34.5 -10z" />
    <glyph glyph-name="bar" unicode="|" horiz-adv-x="562" 
d="M153 -173q-10 0 -10 10l-1 915q0 26 15 38.5t34 12.5q21 0 38.5 -14.5t17.5 -43.5l-1 -844q0 -10 -10 -10t-10 10l1 844q0 19 -11 28.5t-25 9.5q-11 0 -20 -7.5t-9 -23.5l1 -915q0 -10 -10 -10z" />
    <glyph glyph-name="braceright" unicode="}" horiz-adv-x="296" 
d="M25 -73q-23 0 -33 9t-10 21q0 15 13.5 29t33.5 14q43 0 65.5 8t31 32.5t8.5 71.5q0 14 -0.5 25t-0.5 20q0 17 3.5 31t14 31t32.5 43q5 6 9 11t6 9q3 5 8 5t9 -5t0 -11q-10 -16 -25 -32.5t-26.5 -34t-11.5 -38.5q0 -18 0.5 -34.5t0.5 -32.5q0 -35 -8 -62t-34 -42t-82 -15
q-9 0 -18 -7t-9 -15q0 -11 23 -11q79 0 117.5 24.5t50.5 70.5t11 108q0 14 12 36.5t28.5 47t29 46t12.5 33.5v2q0 12 -9.5 32.5t-21 44t-19.5 45.5t-6 36q3 20 5 39t2 36q0 39 -13.5 67.5t-47.5 44t-96 15.5q-14 0 -20 -4.5t-6 -9.5q0 -7 7 -13.5t16 -6.5q59 0 85.5 -17.5
t26.5 -64.5q0 -35 -6.5 -59.5t-6.5 -47.5q0 -13 3.5 -26.5t13.5 -30.5q9 -16 19 -28.5t14 -20.5q1 -2 1 -5q0 -4 -3.5 -7t-7.5 -3q-5 0 -8 5q-14 27 -33 53t-19 58q0 7 3.5 25.5t7 42.5t3.5 44q0 18 -4 29q-5 16 -23.5 24.5t-65.5 8.5q-19 0 -31 13t-12 27t11 24t35 10
q84 -1 131 -35t47 -114q0 -19 -2.5 -39t-5.5 -38q-1 -10 7.5 -30t20.5 -44t21 -46t7 -37q0 -15 -12.5 -37.5t-29 -47t-28.5 -45t-12 -31.5q1 -36 -2 -73t-21 -70q-19 -35 -60.5 -58t-115.5 -23z" />
    <glyph glyph-name="asciitilde" unicode="~" horiz-adv-x="1000" 
d="M368 381q-27 0 -47 9.5t-36 22.5t-31.5 22.5t-33.5 9.5q-6 0 -17 -7t-21.5 -15t-17.5 -11q-8 -4 -18 -4q-16 0 -26 14t-10 31q0 11 4 21.5t14 18.5q23 20 40 31t52 11q31 0 54 -9.5t39.5 -22.5t29.5 -22.5t25 -9.5q10 0 10 -10t-10 -10q-16 0 -30.5 9.5t-30.5 22.5
t-37 22.5t-50 9.5q-31 0 -45 -10t-34 -27q-12 -10 -12 -28q0 -8 4 -14.5t12 -6.5q10 0 23 9q11 7 25 17t27 10q22 0 39 -9.5t32.5 -22.5t34 -22.5t42.5 -9.5q25 0 50 10.5t43.5 27t23.5 34.5q3 11 3 17q0 12 -12 12q-11 0 -26 -7t-22 -7q-4 0 -4 4t4 11q7 13 16 18t18 5
q17 0 30.5 -14t13.5 -33q0 -3 -0.5 -6t-1.5 -6q-7 -23 -29 -43t-50.5 -31.5t-56.5 -11.5z" />
    <glyph glyph-name="uni00A0" unicode="&#xa0;" horiz-adv-x="237" 
 />
    <glyph glyph-name="exclamdown" unicode="&#xa1;" horiz-adv-x="259" 
d="M149 267q-19 14 -19 38q0 19 13.5 32.5t32.5 13.5q20 0 33.5 -13.5t13.5 -32.5t-13 -32q-3 -3 -7 -3q-6 0 -9.5 5.5t1.5 10.5q8 8 8 19t-8 18.5t-19 7.5q-10 0 -18 -7.5t-8 -18.5q0 -14 11 -22q4 -3 4 -8t-5 -8.5t-11 0.5zM-47 -192q-20 0 -35 10t-15 29q0 12 7 25
q14 26 51.5 88t87.5 165q3 5 9 5q5 0 8.5 -4t0.5 -10q-61 -124 -102.5 -189.5t-41.5 -79.5q0 -10 8 -15t19 -5q15 0 31.5 9t23.5 26q8 19 40.5 102t90.5 210q3 6 8 6t8.5 -4t1.5 -10q-58 -127 -90 -209.5t-40 -101.5q-10 -25 -30.5 -36t-40.5 -11z" />
    <glyph glyph-name="cent" unicode="&#xa2;" horiz-adv-x="484" 
d="M121 291q-5 0 -8 4q-17 24 -17 61q0 41 21 86t56.5 84.5t80 64.5t92.5 25q11 6 23 27.5t26 46t30.5 42.5t36.5 18h6t7 -2q11 -4 15.5 -11t4.5 -15q0 -17 -11 -35.5t-18 -29.5q-8 -12 -17.5 -25t-17.5 -27q-3 -5 -8 -5t-9 5t0 11q10 15 24 34.5t25.5 38t11.5 30.5t-11 12
q-16 0 -28 -17q-7 -9 -18 -28t-24 -39.5t-25.5 -35.5t-21.5 -15q-46 0 -87.5 -24t-74 -61t-51 -79t-18.5 -78q0 -29 13 -48q2 -4 2 -6q0 -9 -10 -9zM215 309q-26 0 -46 16t-20 46q0 23 19 55.5t47.5 63.5t59.5 51.5t55 20.5q14 0 27 -7t13 -23v-2q0 -11 -5 -11q-4 0 -11 9
t-9 10q-7 4 -15 4q-19 0 -46 -19t-53.5 -47t-44 -56.5t-17.5 -48.5q0 -19 13 -30.5t33 -11.5q41 0 78.5 16.5t70.5 41.5q2 2 6 2q10 0 10 -11q0 -4 -4 -7q-34 -28 -75 -45t-86 -17zM375 459q-15 0 -30 8.5t-15 24.5q0 13 10 13q4 0 7.5 -3t2.5 -8v-1q0 -7 9.5 -10.5
t15.5 -3.5q17 0 29.5 16.5t12.5 35.5q0 10 10 10t10 -10q0 -24 -16.5 -48t-45.5 -24zM85 58q-16 0 -27 9t-11 25q0 13 10 29q21 33 40 71t44 82q3 5 8 5t8.5 -4.5t0.5 -9.5q-25 -45 -44 -83t-39 -71q-7 -10 -7 -19q0 -14 16 -14q10 0 21.5 7t18.5 22q5 9 15.5 32t23.5 50
t25 49t20 29q3 3 9 3q38 0 73.5 14t64.5 36q2 2 7 2q9 0 9 -9q0 -5 -4 -8q-31 -25 -69 -39.5t-78 -15.5q-7 -8 -18.5 -28.5t-23.5 -45t-22 -46t-15 -32.5q-10 -21 -26 -30.5t-30 -9.5z" />
    <glyph glyph-name="sterling" unicode="&#xa3;" horiz-adv-x="906" 
d="M171 -3q-31 0 -57 9q-24 8 -39 24t-15 34q0 23 20.5 35.5t57.5 12.5q18 0 39 -3q32 -4 61 -13.5t57 -23.5q5 -2 5 -7q0 -4 -3.5 -7t-8.5 -1q-27 12 -54.5 21.5t-58.5 13.5q-22 3 -38 3q-36 0 -48 -10.5t-12 -18.5q0 -11 10.5 -24t30.5 -21q11 -4 24 -5.5t26 -1.5
q18 0 37 3t35 7q65 18 114.5 67t90.5 115t78 133q29 52 57.5 100.5t59.5 85.5q35 42 79.5 64t87.5 22q34 0 60 -13q38 -18 54 -45.5t16 -58.5q0 -37 -20 -74.5t-52 -67.5t-70 -44q-1 0 -1.5 -0.5t-1.5 -0.5q-8 0 -8 9q0 5 6 8q37 14 66 41.5t46 61t17 66.5q0 27 -13.5 51
t-44.5 39q-24 12 -53 12q-38 0 -79.5 -20.5t-75.5 -61.5q-31 -37 -59.5 -85t-57.5 -100q-37 -68 -78.5 -134.5t-93 -116.5t-119.5 -70q-17 -4 -36 -7t-38 -3zM173 -45q-34 0 -67 9t-58 30.5t-35 57.5q-3 11 -3 20q0 38 39 62t98 24q20 0 42 -3q37 -5 72 -19.5t70 -31.5
q6 -3 6 -8q0 -4 -3.5 -7t-8.5 -1q-36 17 -69.5 31t-67.5 19q-12 2 -22.5 3t-21.5 1q-57 0 -87 -22.5t-30 -50.5q0 -5 2 -13q14 -46 55.5 -65t89.5 -19q22 0 43.5 3.5t40.5 8.5q51 15 94.5 49.5t81.5 82.5t71.5 102t64.5 108q24 42 47.5 81.5t47.5 72.5q33 46 70.5 66.5
t68.5 20.5q10 0 18.5 -2t16.5 -5q26 -11 37 -29t11 -39q0 -24 -11 -49t-29 -46t-37 -34t-36 -13q-9 0 -9 9q0 8 9 8q17 0 39.5 19.5t39.5 48t17 55.5q0 17 -8.5 31t-28.5 22q-12 6 -29 6q-27 0 -60 -18.5t-65 -62.5q-25 -33 -49.5 -73t-49.5 -84q-38 -66 -79.5 -132
t-91.5 -117q3 2 7 0q38 -18 74.5 -30.5t72.5 -12.5q47 0 79 13.5t60.5 40t64.5 66.5q3 3 6 3q5 0 8.5 -5t-1.5 -10q-36 -40 -66 -68t-65 -42.5t-86 -14.5q-38 0 -76.5 13t-76.5 31q-6 3 -6 8q0 2 1 4q-15 -15 -30 -27l4 -1q44 -22 87 -39.5t89 -17.5q107 0 180 72q5 5 9 8.5
t7 7.5l7 7t5 6q4 2 5 2q6 0 9.5 -5t-1.5 -10l-7.5 -7.5t-7.5 -6.5q-14 -13 -27.5 -26t-29.5 -24q-27 -17 -63 -29t-86 -12q-48 0 -94 18t-90 41q-5 3 -5 7v1q-24 -19 -49.5 -33t-54.5 -22q-41 -13 -89 -13zM330 229q-16 0 -24 10.5t-8 21.5t8 21t24 10h132q9 0 9 -9
q0 -8 -9 -8h-132q-14 0 -14 -14t14 -14h109q9 0 9 -9t-9 -9h-109zM569 229q-9 0 -9 9q0 8 9 8h78q14 0 14 14t-14 14h-54q-9 0 -9 9t9 9h54q15 0 22.5 -10.5t8.5 -21.5q0 -10 -8 -20.5t-23 -10.5h-78z" />
    <glyph glyph-name="currency" unicode="&#xa4;" horiz-adv-x="683" 
d="M155 227q-16 0 -26.5 11.5t-10.5 27.5q0 22 19 40q16 14 47 42.5t63 59.5q-12 26 -12 57q0 15 3 31q7 32 24.5 59t41.5 48q5 3 9 3q10 0 10 -7q0 -5 -9 -13q-19 -16 -33 -39.5t-21 -50.5q-3 -13 -3 -26q0 -46 30.5 -77t79.5 -31q37 0 70.5 18.5t57.5 49t31 66.5
q3 15 3 30q0 44 -29.5 74t-76.5 30q-36 0 -77 -23h-1q-1 -1 -2 -1.5t0 0.5q-2 -1 -3 -1h-1v0q-6 0 -10 4q-16 18 -32.5 35t-27.5 27q-7 8 -13.5 15t-12.5 13q-3 2 -5 4.5t-4 3.5q-5 5 -13 5q-9 0 -17 -5t-8 -14q0 -6 6 -15q2 -1 3.5 -3.5t3.5 -5.5q3 -4 7 -9l8 -10
q8 -8 14.5 -16t7.5 -10q3 -4 3 -9q0 -10 -12 -10q-8 0 -13 5q-2 3 -11.5 13.5t-19 22t-12.5 16.5q-11 15 -11 28q0 21 20.5 32t39.5 11q17 0 25 -8q12 -13 37 -39t54 -54q19 9 40 14.5t41 5.5q37 0 66 -17q37 29 67.5 53.5t45.5 36.5q10 8 27 8t33 -8.5t16 -25.5t-20 -37
q-4 -5 -17 -16.5t-25 -22t-16 -13.5q-7 -6 -14 -6q-9 0 -9 8q0 5 6 12q2 2 10.5 10t18.5 16q5 5 11 10t10 9l9 9q11 11 11 19t-6 11.5t-14 3.5q-9 0 -16 -5q-2 -1 -4.5 -3.5t-5.5 -4.5q-7 -6 -15.5 -13t-19.5 -15q-13 -10 -28 -22t-32 -26q-2 -1 -3 -2q40 -35 40 -92
q0 -18 -4 -33q-9 -41 -35 -76q25 -34 47.5 -61t33.5 -40q10 -11 10 -28q0 -19 -13.5 -36.5t-33.5 -17.5q-18 0 -34 15q-4 4 -14.5 15t-20 21.5t-11.5 13.5q-5 7 -5 12q0 12 10 12q6 0 10 -4q7 -5 24 -25q3 -4 12 -13t12 -13q10 -8 17 -8q10 0 16 8.5t6 15.5q0 6 -3 9
q-2 4 -9 13l-14 18t-11 12q-10 12 -20 25.5t-22 27.5q-3 4 -4 8q-27 -28 -62.5 -44.5t-72.5 -16.5q-33 0 -60 13.5t-43 36.5q-2 -4 -7 -10q-16 -13 -30.5 -27t-26.5 -25q-6 -5 -21 -19.5t-20 -19.5q-10 -9 -10 -19q0 -18 17 -18q9 0 16 7q2 2 14.5 12t18.5 15
q10 8 18.5 15.5t11.5 8.5q7 5 11 5q7 0 7 -9q0 -8 -7 -16q-3 -2 -15.5 -12.5t-25.5 -21.5t-19 -15q-19 -13 -36 -13zM379 416q-28 0 -45.5 18t-17.5 45v7.5t1 7.5q3 13 15 13q10 0 10 -10q0 -4 -0.5 -7.5t-0.5 -6.5q0 -18 12 -29.5t31 -11.5q23 0 44 18.5t21 43.5
q0 18 -11.5 30.5t-30.5 12.5q-12 0 -12 9q0 5 4.5 10t10.5 5q28 0 46 -18t18 -44q0 -24 -14 -45t-35.5 -34.5t-45.5 -13.5z" />
    <glyph glyph-name="yen" unicode="&#xa5;" horiz-adv-x="600" 
d="M182 248q-16 0 -24 10.5t-8 21.5t8 21t24 10h127q-4 18 -10.5 44.5t-13.5 55.5t-14 53.5t-13 38.5l-1 1q-3 9 -3 17q0 18 11.5 28t26.5 10q12 0 23.5 -7t18.5 -23q10 -25 18.5 -56t15.5 -61.5t10 -52.5q26 20 57.5 49.5t61 61t49.5 56.5q16 20 33 20q14 0 23.5 -13
t9.5 -28q0 -4 -1 -9t-4 -9q-12 -21 -34.5 -45.5t-62 -60.5t-105.5 -93q-5 -5 -9 -5q-7 0 -9.5 6.5t2.5 10.5q5 5 23 20.5t43.5 37.5t52 47t49 49t34.5 43q4 5 4 13q0 7 -3.5 12t-9.5 5q-10 0 -20 -13q-22 -28 -56 -63.5t-68.5 -67.5t-60.5 -50q-2 -2 -7 -2q-8 0 -9 9
q-2 18 -9 50.5t-16.5 68t-19.5 62.5q-4 10 -11 14t-13 4q-17 0 -17 -18v-5t1 -5q7 -16 15 -43.5t15.5 -59t14 -59.5t9.5 -43q0 -5 -3 -8.5t-13 -3.5h-132q-14 0 -14 -14t14 -14h74q9 0 9 -9t-9 -9h-74zM259 -22q-15 0 -27 10t-12 28q0 8 6.5 33t17.5 61t24 75t26 75
q3 9 11 9q5 0 7.5 -3t0.5 -9q-14 -43 -29.5 -90.5t-27 -87t-15.5 -57.5q0 -1 -0.5 -2.5t-0.5 -2.5q0 -9 5.5 -14t12.5 -5q13 0 17 16q7 26 20.5 67.5t31 88t35.5 87.5l2 4l2 2q2 2 5 2h1v0h127q14 0 14 14t-14 14h-40q-9 0 -9 9t9 9h40q15 0 22.5 -10.5t8.5 -21.5
q0 -10 -8 -20.5t-23 -10.5h-120q-18 -41 -34.5 -87t-29.5 -87t-20 -66q-4 -15 -14.5 -22.5t-21.5 -7.5zM162 131q-16 0 -24 10.5t-8 21.5t8 21t24 10h84q9 0 9 -9q0 -8 -9 -8h-84q-14 0 -14 -14t14 -14h61q9 0 9 -9t-9 -9h-61zM353 131q-9 0 -9 9q0 8 9 8h78q14 0 14 14
t-14 14h-54q-9 0 -9 9t9 9h54q15 0 22.5 -10.5t8.5 -21.5q0 -10 -8 -20.5t-23 -10.5h-78z" />
    <glyph glyph-name="brokenbar" unicode="&#xa6;" horiz-adv-x="562" 
d="M227 412v333q0 19 -11 28.5t-25 9.5q-11 0 -20 -7.5t-9 -23.5v-336h-20v336q0 26 15 38.5t34 12.5q21 0 38.5 -14.5t17.5 -43.5v-333h-20zM191 -74q-19 0 -34 12.5t-15 38.5v348h20v-348q0 -16 9 -23.5t20 -7.5q14 0 25 9.5t11 28.5v345h20v-345q0 -29 -17.5 -43.5
t-38.5 -14.5z" />
    <glyph glyph-name="section" unicode="&#xa7;" horiz-adv-x="748" 
d="M798 69q-10 0 -10 10q0 5 4 8q17 13 27 34t14 42.5t4 37.5q0 39 -24 78.5t-86.5 75t-180.5 63.5q-93 23 -131.5 53t-38.5 63t32.5 65t81.5 55q31 15 84 26t109 11q48 0 92 -10.5t74 -36t36 -70.5q1 -12 13 -12q8 0 17.5 7.5t10.5 15.5q4 40 -14.5 67t-52.5 43.5t-77 23.5
t-90 7q-46 0 -90.5 -5.5t-81 -14.5t-57.5 -20q-67 -34 -109.5 -78.5t-42.5 -89.5q0 -40 41 -75.5t134 -58.5q134 -32 207 -77.5t73 -104.5q0 -21 -9 -42q-3 -6 -8 -6t-8.5 4t-1.5 10q3 8 5 16t2 16q0 46 -63 88.5t-202 75.5q-103 25 -146.5 65t-43.5 85q0 35 21.5 70t59 66
t83.5 54q23 11 60 20.5t82.5 15.5t92.5 6q50 0 97.5 -8t85 -27t57.5 -50t16 -78q-1 -17 -16.5 -29t-32.5 -12q-11 0 -20.5 7t-11.5 23q-5 37 -32.5 58.5t-68 31.5t-85.5 10q-50 0 -99 -10t-82 -26q-44 -22 -73 -48t-29 -53q0 -26 35.5 -51.5t118.5 -45.5q119 -28 185.5 -66
t94 -81t27.5 -90q0 -17 -4.5 -41t-16 -48t-32.5 -41q-2 -2 -6 -2zM279 -238q-96 0 -168.5 28t-112.5 72.5t-40 91.5q0 37 26.5 71t83 60.5t147.5 38.5q8 1 14.5 1.5t12.5 0.5q29 0 41 -9.5t12 -22.5q0 -16 -17 -31t-43 -15q-90 0 -137 -29.5t-47 -67.5q0 -27 26.5 -53
t80.5 -42.5t137 -16.5q32 0 78 8t95 24t91 38.5t68.5 51.5t26.5 64q0 31 -26.5 64.5t-99.5 64.5q-45 20 -92 31t-91 36q-33 20 -55 48.5t-22 71.5q0 17 4 37t13 42q3 6 9 6q5 0 8 -4t1 -10q-16 -41 -16 -72q0 -43 25.5 -70t65 -43t82 -28t76.5 -27q74 -32 106 -69t32 -78
q0 -42 -29 -75t-75 -57.5t-98 -41t-99 -24.5t-78 -8q-90 0 -148.5 19.5t-87 50t-28.5 62.5q0 30 23.5 57t69 43.5t111.5 16.5q16 0 28 8.5t12 16.5q0 14 -31 14q-5 0 -11.5 -0.5t-14.5 -1.5q-127 -18 -183.5 -60.5t-56.5 -90.5q0 -42 38 -81.5t106 -65t157 -25.5
q82 0 163.5 18.5t149 52.5t108 80.5t40.5 102.5q0 32 -15 63.5t-52.5 62t-106.5 56.5q-17 7 -44.5 15t-58.5 18t-59 24.5t-45.5 33t-17.5 42.5q0 15 7 30q3 6 9 6q5 0 8.5 -4.5t0.5 -10.5q-5 -12 -5 -20q0 -20 17.5 -36t44 -28.5t56.5 -22t55.5 -16.5t38.5 -12
q107 -41 147 -93t40 -108q0 -51 -29 -93.5t-78 -76t-111.5 -57t-130 -35.5t-132.5 -12z" />
    <glyph glyph-name="dieresis" unicode="&#xa8;" horiz-adv-x="209" 
d="M46 426q-19 0 -32.5 13.5t-13.5 32.5q0 22 19 38q4 2 6 2q10 0 10 -11q0 -5 -4 -8q-11 -6 -11 -21q0 -11 8 -18.5t19 -7.5t18.5 7.5t7.5 18.5q0 9 -7 18q-3 3 -3 7q0 6 6 9.5t11 -2.5q13 -13 13 -32t-13.5 -32.5t-33.5 -13.5zM135 428q-19 16 -19 38q0 20 13.5 33
t32.5 13q20 0 33.5 -13t13.5 -33q0 -19 -13 -32q-3 -3 -7 -3q-5 0 -8.5 5.5t1.5 11.5q7 9 7 18q0 11 -7.5 18.5t-18.5 7.5t-19 -7.5t-8 -18.5q0 -15 11 -21q4 -3 4 -8t-5 -9t-11 0z" />
    <glyph glyph-name="copyright" unicode="&#xa9;" horiz-adv-x="648" 
d="M297 -34q-49 0 -99 16t-91.5 49t-67 84.5t-25.5 123.5q0 62 24 121.5t68 108.5t105.5 82.5t137.5 44.5q21 3 42 3q74 0 134 -34t96 -93t36 -136q0 -66 -27 -131t-74 -117t-107 -81q-2 -1 -5 -1q-10 0 -10 10q0 6 6 9q57 27 101.5 76t70 111t25.5 124q0 71 -32.5 125.5
t-88.5 86t-125 31.5q-19 0 -40 -3q-72 -10 -130.5 -41.5t-100 -78.5t-64 -102.5t-22.5 -114.5q0 -66 23.5 -114t62 -78.5t84.5 -45.5t92 -15q40 0 78 11q1 0 1.5 0.5t1.5 0.5q10 0 10 -11q0 -6 -7 -9q-37 -12 -83 -12zM303 25q-60 0 -113 28t-85.5 78t-32.5 116
q0 51 20.5 99t57.5 88.5t88 67.5t111 36q9 2 17.5 2h16.5q60 0 108.5 -27.5t77.5 -75t29 -109.5q0 -49 -18.5 -98.5t-51 -90.5t-74.5 -66q-4 -2 -5 -2q-10 0 -10 11q0 6 5 8q39 23 69.5 61.5t47.5 85t17 91.5q0 56 -26 99t-69.5 68t-98.5 25h-16.5t-16.5 -2
q-76 -10 -134.5 -51.5t-91.5 -99.5t-33 -120q0 -60 29.5 -105.5t77.5 -71.5t103 -26q40 0 80 15q1 1 4 1q5 0 7.5 -3.5t2.5 -7.5q0 -6 -7 -9q-21 -8 -43 -11.5t-43 -3.5zM276 108q-70 0 -100 30.5t-30 73.5q0 39 20.5 83t56 82t82 62t97.5 24q28 0 48 -17.5t20 -48.5
q0 -22 -15.5 -45.5t-44.5 -23.5q-14 0 -29 8.5t-15 24.5q0 12 10 12q12 0 10 -11v-1q0 -7 9.5 -10t14.5 -3q17 0 28.5 15t11.5 34q0 21 -13.5 33.5t-34.5 12.5q-45 0 -87.5 -22t-76 -57.5t-53 -75t-19.5 -74.5q0 -37 25.5 -61.5t84.5 -24.5q36 0 70.5 13t63.5 35q2 2 6 2
q10 0 10 -11q0 -4 -4 -7q-31 -23 -68.5 -37.5t-77.5 -14.5zM274 165q-25 0 -44.5 16t-19.5 44q0 23 18 54t46 61t58 50t54 20q13 0 26 -7t13 -22q0 -13 -5 -13t-11.5 9t-8.5 10q-6 3 -14 3q-19 0 -45 -18t-51.5 -45t-42.5 -55t-17 -47t12.5 -29.5t31.5 -10.5q60 0 113 34.5
t92 80.5q3 4 7 4q5 0 9 -6t-1 -11q-26 -31 -60.5 -59t-74.5 -45.5t-85 -17.5z" />
    <glyph glyph-name="ordfeminine" unicode="&#xaa;" horiz-adv-x="275" 
d="M171 521q-26 0 -26 28q0 12 8 31q8 17 19.5 37t23 37.5t17.5 26.5q4 5 4 11q0 7 -7 7q-5 0 -13 -5t-18 -19q-4 -4 -7 -9.5t-7 -10.5q-3 -4 -5.5 -8.5t-5.5 -8.5l-10 -15q-7 -11 -13.5 -22t-13.5 -20q-41 -59 -71 -59q-18 0 -23 13.5t-5 21.5q0 15 10.5 36.5t27.5 42
t36.5 34t36.5 13.5q13 0 13 -11q0 -9 -12 -9q-13 0 -29 -11.5t-30.5 -29t-23.5 -35t-9 -30.5q0 -15 8 -15q13 0 30.5 20.5t36 48.5t32.5 50q2 4 4.5 7t3.5 6q7 9 8 12q11 17 24 24.5t23 7.5q13 0 21 -8t8 -20q0 -9 -6 -20q-5 -7 -15.5 -23.5t-22 -35t-19.5 -34.5
q-9 -18 -9 -27q0 -8 8 -8q14 0 32 12t35 28.5t27 29.5q3 4 8 4t8.5 -5t0.5 -10q-12 -15 -32 -34t-41.5 -32.5t-39.5 -13.5zM0 596q-5 0 -9 5t0 10q14 20 34 43.5t45.5 40.5t54.5 17q11 0 28 -5q6 -3 6 -8t-4 -8.5t-11 -2.5v1h-2q-1 0 -1.5 0.5t-1.5 0.5q-8 2 -14 2
q-23 0 -44.5 -14.5t-39.5 -35.5t-32 -41q-2 -5 -9 -5zM152 483q-29 0 -41.5 16t-12.5 35q0 8 2 15.5t5 14.5q3 5 9 5q5 0 8.5 -4.5t0.5 -10.5q-6 -9 -6 -20q0 -12 8.5 -21.5t26.5 -9.5q21 0 41.5 10t39.5 24q4 2 5 2q10 0 10 -11q0 -5 -4 -9q-19 -14 -41.5 -25t-50.5 -11z
M37 485q-22 0 -38 14t-15 43q0 10 10 10t10 -9q0 -21 10 -30.5t23 -9.5q25 0 40 21q5 5 9 5q5 0 8.5 -5t0.5 -11q-10 -13 -26 -20.5t-32 -7.5z" />
    <glyph glyph-name="guillemotleft" unicode="&#xab;" horiz-adv-x="565" 
d="M380 -19q-13 0 -27.5 11.5t-25.5 36.5q-17 44 -36 86.5t-39 85.5q-4 8 -6 15.5t-2 13.5q0 10 5 18.5t13 16.5q9 9 23 21t31 25q32 24 76.5 59t88.5 62q20 12 37 12q25 0 35 -28q2 -4 2 -7.5v-7.5q0 -13 -7 -26.5t-22 -23.5q-40 -25 -77 -54t-75 -55q-4 -2 -5 -2
q-10 0 -10 13q0 6 4 9q38 26 75 53.5t77 55.5q10 7 14.5 16t4.5 17q0 18 -16 18q-8 0 -17 -5q-17 -10 -48.5 -32.5t-66.5 -48.5t-64 -50q-13 -11 -23.5 -20.5t-18.5 -17.5q-8 -7 -8 -20q0 -7 3.5 -17.5t7.5 -23.5q17 -38 34 -76.5t31 -73.5q8 -19 17 -27.5t16 -8.5
q19 0 19 27q0 8 -3 18t-13.5 33t-22.5 50.5t-22 49.5q-1 1 -1 4q0 10 12 10q6 0 9 -6q10 -23 22.5 -50t22.5 -50t14 -34t4 -24q0 -21 -12.5 -34.5t-29.5 -13.5zM136 -19q-13 0 -27.5 11.5t-25.5 36.5q-17 44 -36 86.5t-39 85.5q-4 8 -6 15.5t-2 13.5q0 10 5 18.5t13 16.5
q9 9 23 21t31 25q32 24 76.5 59t88.5 62q20 12 37 12q25 0 35 -28q2 -4 2 -7.5v-7.5q0 -13 -7 -26.5t-22 -23.5q-40 -25 -77 -54t-75 -55q-4 -2 -5 -2q-10 0 -10 13q0 6 4 9q38 26 75 53.5t77 55.5q10 7 14.5 16t4.5 17q0 18 -16 18q-8 0 -17 -5q-17 -10 -48.5 -32.5
t-66.5 -48.5t-64 -50q-13 -11 -23.5 -20.5t-18.5 -17.5q-8 -7 -8 -20q0 -7 3.5 -17.5t7.5 -23.5q17 -38 34 -76.5t31 -73.5q8 -19 17 -27.5t16 -8.5q19 0 19 27q0 8 -3 18t-13.5 33t-22.5 50.5t-22 49.5q-1 1 -1 4q0 10 12 10q6 0 9 -6q10 -23 22.5 -50t22.5 -50t14 -34
t4 -24q0 -21 -12.5 -34.5t-29.5 -13.5z" />
    <glyph glyph-name="logicalnot" unicode="&#xac;" horiz-adv-x="600" 
d="M442 52q-17 0 -30.5 9t-13.5 28q0 11 4 20q4 10 11.5 32.5t15.5 46t11 34.5q3 9 3 15q0 11 -10.5 14.5t-34.5 3.5h-307q-16 0 -16 11q0 9 16 9h307q32 0 49.5 -5.5t17.5 -26.5q0 -5 -1 -12t-4 -15q-3 -11 -11 -33.5t-16 -45.5t-13 -36q-2 -4 -2 -10q0 -10 7.5 -14.5
t17.5 -4.5q9 0 18 4.5t13 14.5q8 19 19.5 52t24.5 68.5t22 63.5q5 17 5 24q0 29 -52 29h-390q-15 0 -15 9q0 4 4 7.5t11 3.5h390q71 0 71 -47q0 -14 -6 -32q-9 -28 -22 -64t-24.5 -69t-19.5 -53q-6 -16 -20.5 -23.5t-29.5 -7.5z" />
    <glyph glyph-name="uni00AD" unicode="&#xad;" horiz-adv-x="387" 
d="M64 230q-24 0 -36 15.5t-12 33.5q0 17 12 32.5t36 15.5h254q29 0 44 -15t15 -33t-15 -33.5t-44 -15.5q-10 0 -10 10t10 10q18 0 27 9.5t9 19.5q0 11 -8.5 19.5t-27.5 8.5h-254q-14 0 -21 -8.5t-7 -19.5t7 -20t21 -9h199q10 0 10 -10t-10 -10h-199z" />
    <glyph glyph-name="registered" unicode="&#xae;" horiz-adv-x="648" 
d="M297 -34q-49 0 -99 16t-91.5 49t-67 84.5t-25.5 123.5q0 62 24 121.5t68 108.5t105.5 82.5t137.5 44.5q21 3 42 3q74 0 134 -34t96 -93t36 -136q0 -66 -27 -131t-74 -117t-107 -81q-2 -1 -5 -1q-10 0 -10 10q0 6 6 9q57 27 101.5 76t70 111t25.5 124q0 71 -32.5 125.5
t-88.5 86t-125 31.5q-19 0 -40 -3q-72 -10 -130.5 -41.5t-100 -78.5t-64 -102.5t-22.5 -114.5q0 -66 23.5 -114t62 -78.5t84.5 -45.5t92 -15q40 0 78 11q1 0 1.5 0.5t1.5 0.5q10 0 10 -11q0 -6 -7 -9q-37 -12 -83 -12zM303 25q-60 0 -113 28t-85.5 78t-32.5 116
q0 51 20.5 99t57.5 88.5t88 67.5t111 36q9 2 17.5 2h16.5q60 0 108.5 -27.5t77.5 -75t29 -109.5q0 -49 -18.5 -98.5t-51 -90.5t-74.5 -66q-4 -2 -5 -2q-10 0 -10 11q0 6 5 8q39 23 69.5 61.5t47.5 85t17 91.5q0 56 -26 99t-69.5 68t-98.5 25h-16.5t-16.5 -2
q-76 -10 -134.5 -51.5t-91.5 -99.5t-33 -120q0 -60 29.5 -105.5t77.5 -71.5t103 -26q40 0 80 15q1 1 4 1q5 0 7.5 -3.5t2.5 -7.5q0 -6 -7 -9q-21 -8 -43 -11.5t-43 -3.5zM402 235q-10 0 -10 10q0 6 7 9q36 16 64 41.5t28 57.5q0 30 -18 50.5t-46.5 32.5t-59.5 17t-57 5
q-10 0 -10 10t10 10q24 0 58 -5t66.5 -18.5t54.5 -38t22 -63.5q0 -28 -16 -50.5t-40 -39t-48 -27.5q-2 -1 -5 -1zM375 86q-24 0 -35 24q-8 20 -21.5 42t-23.5 45.5t-10 45.5v1q-11 -30 -21 -59t-17 -52q-5 -16 -17 -24t-26 -8t-25.5 8t-11.5 24q0 3 0.5 6t1.5 7q14 45 32 95
t36 99t32 90q3 7 10 7q5 0 8 -3.5t1 -9.5q-14 -41 -32 -90t-36 -99t-32 -95q-1 -2 -1 -6q0 -7 5 -10t11 -3q8 0 15.5 4.5t9.5 13.5q9 30 23.5 70.5t29.5 80.5t27.5 72t17.5 46q2 7 10 7q12 0 31.5 -3.5t38.5 -10.5t32 -19t13 -29t-14.5 -28t-36.5 -19.5t-44 -16.5
t-36.5 -18.5t-14.5 -27.5q0 -19 10 -41.5t23 -44t20 -39.5q6 -12 18 -12q8 0 14.5 5.5t6.5 13.5q0 3 -2 9q-10 24 -24.5 46t-22.5 47q0 1 -0.5 1.5t-0.5 1.5q0 10 11 10q6 0 9 -7q8 -24 22 -46t24 -45q4 -8 4 -17q0 -17 -13 -28t-29 -11zM343 395q-7 -17 -19.5 -49
t-26.5 -69q15 17 39.5 26t49.5 17.5t39 22.5q6 5 6 10q0 14 -18 23t-39 14t-31 5z" />
    <glyph glyph-name="macron" unicode="&#xaf;" horiz-adv-x="274" 
d="M48 433q-24 0 -36 13t-12 26t12 23.5t36 10.5h174q24 0 38 -10t14 -24t-14 -26.5t-38 -12.5q-10 0 -10 9t10 9q29 0 29 22q0 7 -8 11t-21 4h-174q-28 0 -28 -16q0 -7 7 -14t21 -7h119q10 0 10 -9t-10 -9h-119z" />
    <glyph glyph-name="degree" unicode="&#xb0;" horiz-adv-x="364" 
d="M121 523q-19 14 -30 35t-11 46q0 42 29.5 71.5t70.5 29.5q42 0 71.5 -29.5t29.5 -71.5q0 -40 -27 -69q-3 -3 -7 -3q-6 0 -9.5 5.5t1.5 11.5q22 22 22 55q0 34 -23.5 57.5t-57.5 23.5q-33 0 -56.5 -23.5t-23.5 -57.5q0 -42 33 -65q4 -3 4 -8t-5 -8.5t-11 0.5z" />
    <glyph glyph-name="plusminus" unicode="&#xb1;" horiz-adv-x="492" 
d="M283 287q-10 0 -10 10v185q0 14 -9 21.5t-20 7.5t-20 -7.5t-9 -21.5v-123q0 -10 -10 -10t-10 10v123q0 24 15.5 36.5t33.5 12.5t33.5 -12.5t15.5 -36.5v-185q0 -10 -10 -10zM64 230q-24 0 -36 15.5t-12 33.5q0 17 12 32.5t36 15.5h113q10 0 10 -10t-10 -10h-113
q-14 0 -21 -8.5t-7 -19.5t7 -20t21 -9h109q10 0 10 -10t-10 -10h-109zM307 230q-10 0 -10 10t10 10h116q15 0 22 8.5t7 19.5t-7 20t-22 9h-98q-10 0 -10 10t10 10h98q25 0 37 -15.5t12 -33.5t-12 -33t-37 -15h-116zM244 23q-18 0 -33.5 12t-15.5 36v190q0 11 10 11t10 -11
v-190q0 -14 9 -21t20 -7t20 7t9 21v141q0 10 10 10t10 -10v-141q0 -24 -15.5 -36t-33.5 -12zM64 -117q-24 0 -36 15.5t-12 33.5t12 33t36 15h359q30 0 44.5 -14.5t14.5 -32.5q0 -19 -15 -34.5t-44 -15.5q-10 0 -10 10t10 10q17 0 26 10t9 21q0 10 -8.5 18t-26.5 8h-359
q-14 0 -21 -8.5t-7 -19.5t7 -20t21 -9h304q10 0 10 -10t-10 -10h-304z" />
    <glyph glyph-name="uni00B2" unicode="&#xb2;" horiz-adv-x="368" 
d="M13 367q-10 0 -10 12q0 17 14 29.5t36 17.5q-2 4 2 9q13 14 37.5 32.5t50.5 38.5q33 25 61.5 47t33.5 32q10 16 10 31q0 20 -17 31.5t-39 11.5q-20 0 -38.5 -12t-23.5 -38q0 -1 -0.5 -2.5t-0.5 -3.5q0 -7 2.5 -13t5.5 -12t5.5 -12.5t2.5 -12.5q0 -11 -10 -21
q-9 -10 -21 -10q-20 0 -38 26t-18 60q0 31 20.5 62t74.5 49q20 7 42 7q34 0 64.5 -15t50 -40t19.5 -56q0 -17 -7.5 -35.5t-24.5 -37.5q-17 -20 -39.5 -34.5t-45.5 -28.5q-21 -13 -40.5 -25t-33.5 -28q-3 -3 -6 -3q-4 0 -7 5t2 10q15 17 35 30t41 26q23 13 44.5 27t38.5 33
q25 29 25 60q0 26 -15 47.5t-40 35t-55 13.5q-22 0 -42 -7q-40 -13 -62.5 -40.5t-22.5 -57.5q0 -14 5.5 -28.5t17.5 -27.5q11 -9 17 -9q13 0 13 15q0 6 -5 13q-11 14 -11 34q0 28 23 51.5t58 23.5q28 0 51 -17t23 -46q0 -8 -2.5 -17.5t-8.5 -20.5q-8 -13 -37.5 -36
t-63.5 -48q-23 -18 -45 -34.5t-37 -29.5h3q20 0 44.5 -6.5t48.5 -14.5q29 -8 56 -15t51 -7q9 0 9 -9t-9 -9q-25 0 -53 7t-55 15q-19 6 -38.5 11t-36.5 8q-5 1 -9.5 1.5t-9.5 0.5q-27 0 -40 -11t-12 -22v-2q0 -8 -8 -8zM261 325q-25 0 -52.5 7t-55.5 14q-20 6 -39.5 11.5
t-38.5 7.5h-7q-12 0 -16.5 -5t-4.5 -10t3 -8t3 -6q0 -5 -5.5 -8t-10.5 2q-8 8 -8 19q0 13 10.5 24t29.5 11q20 0 42 -6.5t44 -13.5q28 -7 55 -14t51 -7t37.5 14t13.5 30q0 20 -17 33q-4 3 -4 8t5 8t9 0q25 -21 25 -48q0 -24 -18.5 -43.5t-50.5 -19.5z" />
    <glyph glyph-name="uni00B3" unicode="&#xb3;" horiz-adv-x="367" 
d="M140 309q-62 0 -95.5 30t-31.5 83q0 8 9 8q11 0 9 -9q-1 -46 27 -70t82 -24t92 22t57.5 54t19.5 61q0 27 -17.5 46t-54.5 19q-9 0 -9 9t9 9q16 0 30 -4v1q0 5 5 8q24 14 37 35.5t13 43.5q0 26 -20.5 45t-66.5 19q-24 0 -55 -5.5t-54 -27.5q-3 -3 -6 -3q-5 0 -8 5.5
t1 10.5q19 18 42.5 26t45.5 10t35 2q56 0 79.5 -23.5t23.5 -54.5q0 -28 -15.5 -55t-39.5 -42q22 -11 32.5 -30t10.5 -43q0 -34 -21.5 -70.5t-63.5 -61t-102 -24.5zM148 350q-37 0 -60 20.5t-23 48.5q0 10 2.5 19.5t9.5 19.5q3 4 8 4t8 -4t0 -10q-10 -14 -10 -29
q0 -21 17.5 -36t47.5 -15q26 0 50 14t39.5 35t15.5 40q0 21 -22 35t-76 11q-23 -1 -32.5 6t-9.5 17q0 12 12 23.5t29 11.5q38 0 62 10t37 26q15 18 15 32t-13 20.5t-30 6.5q-19 0 -37.5 -7t-26.5 -20q-3 -5 -8 -5q-4 0 -7 4.5t0 9.5q11 18 32 26.5t43 8.5q26 0 46 -11
t20 -32q0 -20 -20 -44q-36 -43 -113 -43q-7 0 -15 -5t-8 -10q0 -8 23 -7q65 4 91.5 -15t26.5 -46q0 -24 -17.5 -49.5t-45.5 -43t-61 -17.5z" />
    <glyph glyph-name="acute" unicode="&#xb4;" horiz-adv-x="207" 
d="M115 420q-20 0 -20 26q0 12 1.5 20t9.5 16l27 27q1 2 5 2q5 0 10 -5t-1 -11l-25 -25q-7 -7 -8 -11.5t-1 -12.5q0 -6 1.5 -6t5.5 3t19 15.5t33.5 27.5t34.5 28.5t22 18.5l0.5 0.5t0.5 1.5q0 2 -3.5 5.5t-14.5 11.5q-9 8 -15 2q-19 -22 -26 -29q-2 -2 -5 -2q-6 0 -9.5 6.5
t0.5 10.5q8 8 14.5 15t9.5 11q9 11 21 11t22 -9q27 -21 27 -34q0 -7 -8 -15q-7 -6 -23 -19.5t-35 -29t-34 -28t-19 -15.5q-8 -7 -17 -7z" />
    <glyph glyph-name="uni03BC" unicode="&#xb5;" horiz-adv-x="485" 
d="M111 56q-14 11 -14 36q0 21 9 46.5t22.5 51t26 45t19.5 28.5q15 19 26 33t13 17q10 14 10 26q0 15 -13.5 23.5t-29.5 8.5q-17 0 -26 -8q-14 -13 -29.5 -30.5t-32.5 -40.5q-18 -23 -38 -49t-46 -56q-3 -4 -8 -4t-8.5 5.5t0.5 10.5q26 29 46.5 56t37.5 49q18 23 33.5 41.5
t31.5 32.5q14 13 38 13t44.5 -14.5t20.5 -37.5q0 -17 -15 -38q-21 -27 -45.5 -61t-43 -70t-22.5 -72v-7q0 -15 6 -20q4 -3 4 -8t-6 -8.5t-11 1.5zM159 75q-10 0 -10 10q0 6 6 9q48 26 82 71t60 97t50 97q6 12 17.5 17.5t24.5 5.5q23 0 43.5 -15t20.5 -38q0 -17 -13 -34
q-3 -4 -8 -4t-8.5 5t0.5 11q9 12 9 23q0 15 -14 23t-28 8q-8 0 -15.5 -3t-10.5 -9q-25 -47 -52 -100.5t-62.5 -99.5t-86.5 -73q-2 -1 -5 -1zM340 53q-6 0 -9 1q-14 5 -19.5 15t-5.5 23q0 17 7 35.5t15.5 35.5t13.5 26q11 21 22.5 42t21.5 34q3 4 8 4t9 -5t-1 -11
q-22 -29 -39 -63.5t-32 -67.5q-6 -13 -6 -27q0 -21 16 -21q8 0 23 9q34 22 61 54t52 62q3 4 7 4q6 0 9.5 -5.5t-1.5 -11.5q-7 -9 -24.5 -30t-40.5 -45t-46 -41t-41 -17zM-29 -263q-36 0 -52 18.5t-16 52.5q0 39 18 93q12 35 30.5 80t40 90.5t40 81.5t30.5 53l16 -10
q-11 -17 -29.5 -53t-39 -80.5t-39 -88.5t-29.5 -79q-8 -25 -12 -45.5t-4 -36.5q0 -56 46 -56q26 0 40.5 18.5t14.5 36.5q0 12 -7 20.5t-22 8.5q-10 0 -15.5 2t-5.5 11q0 12 7.5 33t19 44.5t22.5 41.5q4 7 11 7q8 0 8 -8q0 -4 -3 -9q-9 -15 -19.5 -39t-17.5 -43.5l-7 -19.5
q26 0 37.5 -14t11.5 -34q0 -26 -20 -51t-55 -25zM99 -4q-31 0 -51 18q-4 3 -4 8t5.5 9t10.5 -1q17 -14 42 -14q32 0 74 27t82 87q3 5 8 5t9 -5t-1 -12q-42 -62 -88.5 -92t-86.5 -30zM310 -5q-19 0 -41 6.5t-35 25.5q-2 4 -2 6q0 10 10 10q5 0 8 -4q9 -13 26 -18.5t34 -5.5
q26 0 58.5 11t65.5 36q2 2 6 2q10 0 10 -10q0 -5 -4 -8q-35 -27 -70.5 -39t-65.5 -12z" />
    <glyph glyph-name="paragraph" unicode="&#xb6;" horiz-adv-x="562" 
d="M171 -286q-12 0 -20 6.5t-8 20.5q0 11 8 32q6 15 20.5 56.5t35.5 100t45 127.5t49.5 141t49 139t42.5 121.5t31 89t14 41.5q5 15 5 23q0 18 -26 18t-60 -6t-66.5 -21t-56.5 -41.5t-32 -67.5q-3 -15 -3 -27q0 -29 12.5 -44.5t30.5 -20.5t32 -5t14 -11q0 -9 -14 -9
q-15 0 -37.5 7t-40 27t-17.5 57q0 14 3 30q8 46 35.5 75.5t63.5 46t72.5 23.5t63.5 7q45 0 45 -37q0 -13 -6 -30q-2 -7 -14 -41.5t-31 -89t-42.5 -121.5t-49 -139t-49.5 -141t-45 -128.5t-35.5 -100.5t-20.5 -57q-1 -5 -2.5 -9t-1.5 -8q0 -15 16 -15t39 14.5t32 32.5
q4 7 16.5 42t32 89.5t43 121.5t48.5 140t50 144t46.5 134t37.5 109q11 33 18.5 56t11.5 31q6 20 6 32q0 31 -34 31h-94q-89 0 -158.5 -26t-112.5 -73.5t-53 -111.5q-3 -19 -3 -37q0 -69 41 -111t112 -42q16 0 16 -9q0 -4 -4 -7.5t-12 -3.5q-80 0 -126.5 48t-46.5 126
q0 19 3 40q11 69 57 120t119.5 79t167.5 28h94q8 0 21 -3.5t23 -13.5t10 -32q0 -8 -1.5 -18t-6.5 -22l-10.5 -31.5t-19.5 -55.5q-16 -47 -37.5 -110t-46 -134t-49.5 -144t-48.5 -140t-43 -122t-32.5 -89.5t-17 -42.5q-6 -13 -23.5 -26.5t-38 -22.5t-37.5 -9zM320 -278
q-6 0 -6 7q0 6 2 10l350 976q6 15 15 15q8 0 8 -10q0 -3 -2 -9l-351 -976q-6 -13 -16 -13z" />
    <glyph glyph-name="periodcentered" unicode="&#xb7;" horiz-adv-x="200" 
d="M85 202q-19 16 -19 38q0 20 13.5 33t32.5 13q20 0 33.5 -13t13.5 -33q0 -19 -13 -32q-3 -3 -7 -3q-5 0 -8.5 5.5t1.5 11.5q7 9 7 18q0 11 -7.5 18.5t-18.5 7.5t-19 -7.5t-8 -18.5q0 -15 11 -21q4 -3 4 -8t-5 -9t-11 0z" />
    <glyph glyph-name="cedilla" unicode="&#xb8;" horiz-adv-x="171" 
d="M79 -184q-13 0 -28.5 3.5t-25.5 9.5q-13 8 -19 19.5t-6 23.5t6.5 21t18.5 9q2 0 4.5 -0.5t5.5 -1.5l3 -1q11 -6 21.5 -11.5t19.5 -5.5q7 0 10 2t3 7q0 9 -10 22q-5 6 -14 19t-9 28q0 11 4.5 16t8.5 5q12 0 7 -14q-4 -11 4 -22t15 -20q14 -19 14 -35q0 -17 -13 -24
q-10 -5 -18 -5q-14 0 -27.5 7t-24.5 13h-1q-8 0 -8 -10q0 -15 15 -24q18 -11 44 -11q66 0 72 43q2 11 -9.5 28t-24 35t-14.5 31q-2 22 6 34.5t21 16.5q2 1 5 1q10 0 10 -8t-9 -11q-7 -3 -11 -10t-2 -23q2 -12 15 -28t24.5 -33t8.5 -35q-8 -61 -92 -61z" />
    <glyph glyph-name="uni00B9" unicode="&#xb9;" horiz-adv-x="361" 
d="M120 398q-10 0 -10 10q1 7 10.5 31t24 56t28.5 62q-7 -4 -14 -4q-13 0 -23 10.5t-10 21.5q0 10 7 16q15 15 39 37.5t47.5 44t37.5 33.5q11 10 27 10q19 0 34 -12.5t15 -29.5q0 -13 -15 -27l-3 -3q-1 -2 -3 -4l-4 -4q-5 -4 -10 -9.5t-9 -11.5q-5 -10 -20 -38.5t-31 -60.5
q-17 -33 -30.5 -61.5t-15.5 -37.5q-1 -8 -10 -8q-11 0 -8 10q3 14 15.5 41.5t29 59.5t31.5 60.5t23 43.5q5 10 12.5 17t15.5 14q4 4 6 5q7 8 7 17q0 11 -9 16.5t-19 5.5q-11 0 -17 -6q-14 -12 -38 -33.5t-47.5 -43.5t-38.5 -37q-2 -2 -2 -4q0 -4 4 -8.5t10 -4.5t11 4
q2 1 5 1q5 0 8 -5q11 22 19.5 38.5t12.5 22.5q4 4 7 4q5 0 8.5 -5t0.5 -10q-5 -7 -17 -29t-26 -51.5t-27 -58.5t-21.5 -50t-9.5 -26q0 -9 -8 -9zM36 333q-17 0 -25 8t-8 18q0 15 14.5 29.5t38.5 14.5h40q9 0 9 -9t-9 -9h-10t-10 1h-20q-15 0 -24.5 -8.5t-9.5 -16.5
q0 -10 14 -10h190q4 0 11.5 8.5t7.5 15.5q0 10 -18 10h-60q-9 0 -9 9t9 9h60q20 0 27.5 -7.5t7.5 -18.5q0 -15 -11 -29.5t-25 -14.5h-190z" />
    <glyph glyph-name="ordmasculine" unicode="&#xba;" horiz-adv-x="206" 
d="M155 592q-5 0 -9 5t0 11q18 26 18 49q0 16 -9.5 25.5t-28.5 9.5q-30 0 -58.5 -26t-59.5 -67q-3 -4 -8 -4t-8.5 5.5t0.5 11.5q30 41 63 70.5t71 29.5q32 0 45 -16t13 -38q0 -33 -20 -61q-4 -5 -9 -5zM47 518q-29 0 -29 35q0 19 11 41t28 42t36 33t36 13q13 0 13 -10
t-13 -10q-12 0 -27.5 -11t-30 -28.5t-24 -36t-9.5 -33.5t9 -15q2 0 4.5 0.5t5.5 1.5q13 5 24 15t16 19q3 5 9 5q5 0 8.5 -4.5t0.5 -10.5q-6 -11 -20.5 -24.5t-30.5 -18.5q-9 -3 -17 -3zM149 565q-22 0 -37.5 13.5t-15.5 36.5q0 8 2 16.5t6 17.5q4 5 10 5q5 0 8 -4t1 -10
q-7 -14 -7 -26q0 -14 9.5 -22t22.5 -8q27 0 49 27q5 5 9 5q5 0 8.5 -5t0.5 -11q-15 -18 -32 -26.5t-34 -8.5zM48 480q-28 0 -47 19t-17 43q0 10 10 10q4 0 7.5 -3.5t2.5 -8.5q-1 -14 11 -27.5t31 -13.5q13 0 28 8t29 27l12 14t8 11q3 5 8 5t8.5 -4t1.5 -11q-6 -9 -15 -18
l-6 -9q-17 -22 -36 -32t-36 -10z" />
    <glyph glyph-name="guillemotright" unicode="&#xbb;" horiz-adv-x="565" 
d="M291 -19q-25 0 -35 28q-1 4 -1.5 7.5t-0.5 7.5q0 14 7 27.5t22 22.5q41 26 78 54.5t74 54.5q4 2 5 2q10 0 10 -13q0 -6 -4 -9q-37 -26 -74 -53t-78 -56q-10 -7 -14.5 -16t-4.5 -17q0 -18 16 -18q8 0 17 5q17 11 48.5 33t67 48.5t63.5 49.5q14 11 24.5 21t17.5 17
q8 7 8 20q0 8 -3 18t-8 23q-16 38 -33.5 76.5t-31.5 73.5q-7 20 -16 28t-17 8q-19 0 -19 -27q0 -7 3 -18q4 -10 14 -33t22 -50t22 -50q1 -1 1 -4q0 -10 -12 -10q-6 0 -9 6q-10 23 -22 50t-22.5 50.5t-14.5 33.5q-4 11 -4 24q0 21 12.5 34.5t29.5 13.5q14 0 28.5 -11
t24.5 -37q17 -43 36.5 -86t38.5 -86q5 -8 6.5 -15.5t1.5 -13.5q0 -10 -5 -18.5t-13 -16.5q-9 -9 -23 -21t-31 -25q-31 -24 -76 -59t-89 -62q-19 -12 -37 -12zM47 -19q-25 0 -35 28q-1 4 -1.5 7.5t-0.5 7.5q0 14 7 27.5t22 22.5q41 26 78 54.5t74 54.5q4 2 5 2q10 0 10 -13
q0 -6 -4 -9q-37 -26 -74 -53t-78 -56q-10 -7 -14.5 -16t-4.5 -17q0 -18 16 -18q8 0 17 5q17 11 48.5 33t67 48.5t63.5 49.5q14 11 24.5 21t17.5 17q8 7 8 20q0 8 -3 18t-8 23q-16 38 -33.5 76.5t-31.5 73.5q-7 20 -16 28t-17 8q-19 0 -19 -27q0 -7 3 -18q4 -10 14 -33
t22 -50t22 -50q1 -1 1 -4q0 -10 -12 -10q-6 0 -9 6q-10 23 -22 50t-22.5 50.5t-14.5 33.5q-4 11 -4 24q0 21 12.5 34.5t29.5 13.5q14 0 28.5 -11t24.5 -37q17 -43 36.5 -86t38.5 -86q5 -8 6.5 -15.5t1.5 -13.5q0 -10 -5 -18.5t-13 -16.5q-9 -9 -23 -21t-31 -25
q-31 -24 -76 -59t-89 -62q-19 -12 -37 -12z" />
    <glyph glyph-name="onequarter" unicode="&#xbc;" horiz-adv-x="803" 
d="M79 9q-5 0 -8.5 6t1.5 11q26 30 69.5 78.5t97 107.5t110.5 122t112 124t102 112.5t79.5 87.5t43.5 49q13 15 28 21.5t28 6.5q19 0 32 -10.5t13 -27.5q0 -18 -17 -38q-19 -22 -54.5 -61t-81.5 -89.5t-97 -107t-103 -113.5t-99 -109t-84 -93.5t-59 -66.5q-3 -4 -7 -4
q-5 0 -9 6t1 12q22 25 59 66t84 93t99 109t103 113.5t97 107t81.5 89.5t54.5 61q12 15 12 25q0 18 -24 18q-10 0 -21 -5t-21 -16q-11 -13 -43.5 -49t-79.5 -87.5t-102 -112.5t-112 -124t-110.5 -122t-97 -107.5t-69.5 -78.5q-3 -4 -8 -4zM149 405q-10 0 -10 10q1 7 10.5 31
t24 56t28.5 62q-7 -4 -14 -4q-13 0 -23 10.5t-10 21.5q0 10 7 16q15 15 39 37.5t47.5 44t37.5 33.5q11 10 27 10q19 0 34 -12.5t15 -29.5q0 -13 -15 -27l-3 -3q-1 -2 -3 -4l-4 -4q-5 -4 -10 -9.5t-9 -11.5q-5 -10 -20 -38.5t-31 -60.5q-17 -33 -30.5 -61.5t-15.5 -37.5
q-1 -8 -10 -8q-11 0 -8 10q3 14 15.5 41.5t29 59.5t31.5 60.5t23 43.5q5 10 12.5 17t15.5 14q4 4 6 5q7 8 7 17q0 11 -9 16.5t-19 5.5q-11 0 -17 -6q-14 -12 -38 -33.5t-47.5 -43.5t-38.5 -37q-2 -2 -2 -4q0 -4 4 -8.5t10 -4.5t11 4q2 1 5 1q5 0 8 -5q11 22 19.5 38.5
t12.5 22.5q4 4 7 4q5 0 8.5 -5t0.5 -10q-5 -7 -17 -29t-26 -51.5t-27 -58.5t-21.5 -50t-9.5 -26q0 -9 -8 -9zM65 340q-17 0 -25 8t-8 18q0 15 14.5 29.5t38.5 14.5h40q9 0 9 -9t-9 -9h-10t-10 1h-20q-15 0 -24.5 -8.5t-9.5 -16.5q0 -10 14 -10h190q4 0 11.5 8.5t7.5 15.5
q0 10 -18 10h-60q-9 0 -9 9t9 9h60q20 0 27.5 -7.5t7.5 -18.5q0 -15 -11 -29.5t-25 -14.5h-190zM567 -1q-13 0 -24 7.5t-11 23.5q0 11 4 20q1 5 10 25.5t22 48.5q-2 -1 -4 -1h-91q-19 0 -27 8.5t-8 20.5q0 23 19 42q11 12 45.5 38.5t73.5 54.5q11 8 21.5 16t20.5 15
q8 6 16 11.5t15 11.5q15 11 27 20t16 13q13 11 28 11q18 0 33 -12.5t15 -28.5q0 -14 -15 -28l-3 -3q-1 -2 -3 -4l-4 -4q-5 -4 -10 -9.5t-9 -11.5q-4 -7 -14 -29.5t-24 -52.5t-28 -62q2 1 4 1h58q4 0 11.5 8.5t7.5 15.5q0 11 -18 11h-27q-9 0 -9 9t9 9h27q20 0 27.5 -8
t7.5 -19q0 -15 -11 -29.5t-25 -14.5h-58q-6 0 -8 6q-17 -36 -29.5 -66t-16.5 -39q-4 -12 -16 -18.5t-25 -6.5zM550 31q0 -13 16 -13q8 0 15.5 3.5t9.5 10.5q3 8 14.5 34.5t27 61.5t31.5 70t28 61t16 34q5 8 10.5 14t11.5 11q6 6 9 8l2 3q7 10 7 18q0 10 -8.5 15.5t-18.5 5.5
q-11 0 -17 -6q-5 -6 -17 -15.5t-28 -20.5l-35 -26q-9 -7 -18.5 -13.5t-19.5 -14.5q-39 -29 -72.5 -54.5t-44.5 -35.5q-14 -14 -14 -26q0 -15 18 -15h91q5 0 7 -3t2 -5q3 3 6 3q5 0 8 -4t1 -9q-13 -30 -23 -52.5t-12 -27.5q-3 -7 -3 -12zM524 176q-9 0 -9 9t9 9h56
q15 0 19.5 3.5t10.5 15.5q3 7 7.5 16t8.5 19q6 14 12.5 27t9.5 17q4 4 7 4q5 0 8.5 -5t0.5 -10q-4 -4 -15.5 -27t-22.5 -48q-7 -17 -16.5 -23.5t-29.5 -6.5h-56z" />
    <glyph glyph-name="onehalf" unicode="&#xbd;" horiz-adv-x="875" 
d="M79 9q-5 0 -8.5 6t1.5 11q26 30 69.5 78.5t97 107.5t110.5 122t112 124t102 112.5t79.5 87.5t43.5 49q13 15 28 21.5t28 6.5q19 0 32 -10.5t13 -27.5q0 -18 -17 -38q-19 -22 -54.5 -61t-81.5 -89.5t-97 -107t-103 -113.5t-99 -109t-84 -93.5t-59 -66.5q-3 -4 -7 -4
q-5 0 -9 6t1 12q22 25 59 66t84 93t99 109t103 113.5t97 107t81.5 89.5t54.5 61q12 15 12 25q0 18 -24 18q-10 0 -21 -5t-21 -16q-11 -13 -43.5 -49t-79.5 -87.5t-102 -112.5t-112 -124t-110.5 -122t-97 -107.5t-69.5 -78.5q-3 -4 -8 -4zM169 405q-10 0 -10 10q1 7 10.5 31
t24 56t28.5 62q-7 -4 -14 -4q-13 0 -23 10.5t-10 21.5q0 10 7 16q15 15 39 37.5t47.5 44t37.5 33.5q11 10 27 10q19 0 34 -12.5t15 -29.5q0 -13 -15 -27l-3 -3q-1 -2 -3 -4l-4 -4q-5 -4 -10 -9.5t-9 -11.5q-5 -10 -20 -38.5t-31 -60.5q-17 -33 -30.5 -61.5t-15.5 -37.5
q-1 -8 -10 -8q-11 0 -8 10q3 14 15.5 41.5t29 59.5t31.5 60.5t23 43.5q5 10 12.5 17t15.5 14q4 4 6 5q7 8 7 17q0 11 -9 16.5t-19 5.5q-11 0 -17 -6q-14 -12 -38 -33.5t-47.5 -43.5t-38.5 -37q-2 -2 -2 -4q0 -4 4 -8.5t10 -4.5t11 4q2 1 5 1q5 0 8 -5q11 22 19.5 38.5
t12.5 22.5q4 4 7 4q5 0 8.5 -5t0.5 -10q-5 -7 -17 -29t-26 -51.5t-27 -58.5t-21.5 -50t-9.5 -26q0 -9 -8 -9zM85 340q-17 0 -25 8t-8 18q0 15 14.5 29.5t38.5 14.5h40q9 0 9 -9t-9 -9h-10t-10 1h-20q-15 0 -24.5 -8.5t-9.5 -16.5q0 -10 14 -10h190q4 0 11.5 8.5t7.5 15.5
q0 10 -18 10h-60q-9 0 -9 9t9 9h60q20 0 27.5 -7.5t7.5 -18.5q0 -15 -11 -29.5t-25 -14.5h-190zM477 29q-10 0 -10 12q0 17 14 29.5t36 17.5q-2 4 2 9q13 14 37.5 32.5t50.5 38.5q33 25 61.5 47t33.5 32q10 16 10 31q0 20 -17 31.5t-39 11.5q-20 0 -38.5 -12t-23.5 -38
q0 -1 -0.5 -2.5t-0.5 -3.5q0 -7 2.5 -13t5.5 -12t5.5 -12.5t2.5 -12.5q0 -11 -10 -21q-9 -10 -21 -10q-20 0 -38 26t-18 60q0 31 20.5 62t74.5 49q20 7 42 7q34 0 64.5 -15t50 -40t19.5 -56q0 -17 -7.5 -35.5t-24.5 -37.5q-17 -20 -39.5 -34.5t-45.5 -28.5
q-21 -13 -40.5 -25t-33.5 -28q-3 -3 -6 -3q-4 0 -7 5t2 10q15 17 35 30t41 26q23 13 44.5 27t38.5 33q25 29 25 60q0 26 -15 47.5t-40 35t-55 13.5q-22 0 -42 -7q-40 -13 -62.5 -40.5t-22.5 -57.5q0 -14 5.5 -28.5t17.5 -27.5q11 -9 17 -9q13 0 13 15q0 6 -5 13
q-11 14 -11 34q0 28 23 51.5t58 23.5q28 0 51 -17t23 -46q0 -8 -2.5 -17.5t-8.5 -20.5q-8 -13 -37.5 -36t-63.5 -48q-23 -18 -45 -34.5t-37 -29.5h3q20 0 44.5 -6.5t48.5 -14.5q29 -8 56 -15t51 -7q9 0 9 -9t-9 -9q-25 0 -53 7t-55 15q-19 6 -38.5 11t-36.5 8q-5 1 -9.5 1.5
t-9.5 0.5q-27 0 -40 -11t-12 -22v-2q0 -8 -8 -8zM725 -13q-25 0 -52.5 7t-55.5 14q-20 6 -39.5 11.5t-38.5 7.5h-7q-12 0 -16.5 -5t-4.5 -10t3 -8t3 -6q0 -5 -5.5 -8t-10.5 2q-8 8 -8 19q0 13 10.5 24t29.5 11q20 0 42 -6.5t44 -13.5q28 -7 55 -14t51 -7t37.5 14t13.5 30
q0 20 -17 33q-4 3 -4 8t5 8t9 0q25 -21 25 -48q0 -24 -18.5 -43.5t-50.5 -19.5z" />
    <glyph glyph-name="threequarters" unicode="&#xbe;" horiz-adv-x="803" 
d="M140 309q-62 0 -95.5 30t-31.5 83q0 8 9 8q11 0 9 -9q-1 -46 27 -70t82 -24t92 22t57.5 54t19.5 61q0 27 -17.5 46t-54.5 19q-9 0 -9 9t9 9q16 0 30 -4v1q0 5 5 8q24 14 37 35.5t13 43.5q0 26 -20.5 45t-66.5 19q-24 0 -55 -5.5t-54 -27.5q-3 -3 -6 -3q-5 0 -8 5.5
t1 10.5q19 18 42.5 26t45.5 10t35 2q56 0 79.5 -23.5t23.5 -54.5q0 -28 -15.5 -55t-39.5 -42q22 -11 32.5 -30t10.5 -43q0 -34 -21.5 -70.5t-63.5 -61t-102 -24.5zM148 350q-37 0 -60 20.5t-23 48.5q0 10 2.5 19.5t9.5 19.5q3 4 8 4t8 -4t0 -10q-10 -14 -10 -29
q0 -21 17.5 -36t47.5 -15q26 0 50 14t39.5 35t15.5 40q0 21 -22 35t-76 11q-23 -1 -32.5 6t-9.5 17q0 12 12 23.5t29 11.5q38 0 62 10t37 26q15 18 15 32t-13 20.5t-30 6.5q-19 0 -37.5 -7t-26.5 -20q-3 -5 -8 -5q-4 0 -7 4.5t0 9.5q11 18 32 26.5t43 8.5q26 0 46 -11
t20 -32q0 -20 -20 -44q-36 -43 -113 -43q-7 0 -15 -5t-8 -10q0 -8 23 -7q65 4 91.5 -15t26.5 -46q0 -24 -17.5 -49.5t-45.5 -43t-61 -17.5zM99 9q-5 0 -8.5 6t1.5 11q26 30 69.5 78.5t97 107.5t110.5 122t112 124t102 112.5t79.5 87.5t43.5 49q13 15 28 21.5t28 6.5
q19 0 32 -10.5t13 -27.5q0 -18 -17 -38q-19 -22 -54.5 -61t-81.5 -89.5t-97 -107t-103 -113.5t-99 -109t-84 -93.5t-59 -66.5q-3 -4 -7 -4q-5 0 -9 6t1 12q22 25 59 66t84 93t99 109t103 113.5t97 107t81.5 89.5t54.5 61q12 15 12 25q0 18 -24 18q-10 0 -21 -5t-21 -16
q-11 -13 -43.5 -49t-79.5 -87.5t-102 -112.5t-112 -124t-110.5 -122t-97 -107.5t-69.5 -78.5q-3 -4 -8 -4zM567 -1q-13 0 -24 7.5t-11 23.5q0 11 4 20q1 5 10 25.5t22 48.5q-2 -1 -4 -1h-91q-19 0 -27 8.5t-8 20.5q0 23 19 42q11 12 45.5 38.5t73.5 54.5q11 8 21.5 16
t20.5 15q8 6 16 11.5t15 11.5q15 11 27 20t16 13q13 11 28 11q18 0 33 -12.5t15 -28.5q0 -14 -15 -28l-3 -3q-1 -2 -3 -4l-4 -4q-5 -4 -10 -9.5t-9 -11.5q-4 -7 -14 -29.5t-24 -52.5t-28 -62q2 1 4 1h58q4 0 11.5 8.5t7.5 15.5q0 11 -18 11h-27q-9 0 -9 9t9 9h27
q20 0 27.5 -8t7.5 -19q0 -15 -11 -29.5t-25 -14.5h-58q-6 0 -8 6q-17 -36 -29.5 -66t-16.5 -39q-4 -12 -16 -18.5t-25 -6.5zM550 31q0 -13 16 -13q8 0 15.5 3.5t9.5 10.5q3 8 14.5 34.5t27 61.5t31.5 70t28 61t16 34q5 8 10.5 14t11.5 11q6 6 9 8l2 3q7 10 7 18
q0 10 -8.5 15.5t-18.5 5.5q-11 0 -17 -6q-5 -6 -17 -15.5t-28 -20.5l-35 -26q-9 -7 -18.5 -13.5t-19.5 -14.5q-39 -29 -72.5 -54.5t-44.5 -35.5q-14 -14 -14 -26q0 -15 18 -15h91q5 0 7 -3t2 -5q3 3 6 3q5 0 8 -4t1 -9q-13 -30 -23 -52.5t-12 -27.5q-3 -7 -3 -12zM524 176
q-9 0 -9 9t9 9h56q15 0 19.5 3.5t10.5 15.5q3 7 7.5 16t8.5 19q6 14 12.5 27t9.5 17q4 4 7 4q5 0 8.5 -5t0.5 -10q-4 -4 -15.5 -27t-22.5 -48q-7 -17 -16.5 -23.5t-29.5 -6.5h-56z" />
    <glyph glyph-name="questiondown" unicode="&#xbf;" horiz-adv-x="291" 
d="M160 278q-19 13 -19 37q0 20 13.5 33.5t32.5 13.5q20 0 33.5 -13.5t13.5 -33.5q0 -17 -13 -32q-3 -3 -7 -3q-6 0 -9.5 5.5t1.5 11.5q8 8 8 18q0 11 -8 19t-19 8t-18.5 -8t-7.5 -19q0 -13 10 -21q4 -3 4 -8t-5 -8.5t-10 0.5zM50 -192q-78 0 -111 33.5t-33 76.5q0 39 22 78
t59 61q39 23 58.5 39.5t34.5 41.5q3 5 8 5t9 -5t0 -11q-17 -28 -38.5 -46t-60.5 -41q-34 -21 -53.5 -53t-19.5 -64q0 -37 30 -66t96 -29q35 0 79.5 9.5t78.5 40.5q16 16 16 28q0 10 -7.5 15.5t-17.5 5.5q-15 0 -24 -12q-19 -25 -48.5 -37t-59.5 -12q-34 0 -60.5 15.5
t-26.5 43.5q0 13 6.5 28.5t21.5 33.5q10 12 27 26t35.5 28t30.5 25q28 26 49.5 55.5t24.5 63.5q1 12 -7 19t-17 7q-15 0 -15 -18q0 -10 -10 -10t-10 10q0 20 11 29t24 9q17 0 31.5 -12.5t12.5 -35.5q-3 -38 -25.5 -70t-52.5 -59t-58 -49q-13 -10 -22 -18t-14 -13
q-12 -14 -17 -26t-5 -22q0 -20 19 -30t44 -10q26 0 53 10.5t42 30.5q16 20 39 20q18 0 32 -11.5t14 -29.5q0 -10 -5 -21t-17 -22q-26 -24 -57.5 -35.5t-62 -15.5t-53.5 -4z" />
    <glyph glyph-name="Agrave" unicode="&#xc0;" horiz-adv-x="1166" 
d="M398 514q-16 0 -20.5 14t-2.5 26q9 44 47.5 75.5t97 51.5t128.5 30t143 10q10 0 44 -0.5t81.5 -3.5t97.5 -9.5t94 -18.5t71.5 -30.5t27.5 -45.5q0 -11 -4 -20q-3 -6 -9 -6q-4 0 -7.5 4t-1.5 10q2 3 2 6v6q0 21 -26 35.5t-68 24t-90 15.5t-93 8.5t-77.5 3.5t-41.5 1
q-75 0 -143 -10t-122 -29t-88.5 -47t-42.5 -65q0 -1 -0.5 -3t-0.5 -4q0 -9 4 -9q7 0 15.5 8t12.5 13q49 50 106 72.5t117 28.5t117 6q83 0 136 -5.5t85 -13t52 -13.5q7 -3 7 -9q0 -5 -4 -8.5t-9 -2.5q-19 6 -50 13.5t-83 13t-134 5.5q-64 0 -121.5 -7t-110 -30t-101.5 -72
q-7 -7 -15.5 -13t-19.5 -6zM186 -34q-37 0 -78.5 8.5t-78 27t-59.5 49t-23 75.5q0 53 25.5 98t69 81t98.5 61.5t115.5 39t118.5 13.5q19 0 51 -3t67.5 -11t67.5 -21.5t52 -34.5t20 -50q0 -4 -0.5 -7.5t-1.5 -8.5q-1 -7 -8 -18t-22 -11q-10 0 -23.5 13.5l-20.5 20.5
q-37 34 -80.5 49.5t-95.5 15.5q-78 0 -141.5 -20t-109.5 -52.5t-70.5 -69.5t-24.5 -72q0 -41 40 -70.5t127 -29.5q59 0 125 24.5t132.5 64t127 85.5t108.5 88q15 13 45.5 37.5t70 56t82 64.5t82 64t70.5 55t46 36q2 2 6 2q10 0 10 -11q0 -4 -4 -7q-15 -12 -45.5 -36
t-70 -54.5t-82 -64t-82 -64.5t-70 -55.5t-45.5 -37.5q-48 -42 -109 -88.5t-129 -87t-136.5 -66t-131.5 -25.5q-42 0 -85 10.5t-71.5 37.5t-28.5 75q0 8 1 16.5t3 17.5q10 48 48.5 85t92.5 62t112 37.5t107 12.5q67 0 114.5 -21.5t91.5 -65.5q3 -2 7 -6t8 -6q6 0 9 14
q1 3 1 6v6q0 24 -19.5 41t-49.5 28t-63 17.5t-61.5 9.5t-43.5 3q-70 0 -141.5 -19.5t-131.5 -56t-96.5 -86.5t-36.5 -110q0 -37 19.5 -64t51.5 -44t70.5 -25t76.5 -8q64 0 128.5 19.5t126.5 51.5t116 69.5t97 74.5l2.5 1t3.5 1h176q10 0 10 -10t-10 -10h-172
q-43 -37 -98 -75t-118 -70t-129.5 -52t-132.5 -20zM964 70q-32 0 -45 15.5t-13 38.5q0 27 11.5 58t25.5 58t22 40q20 34 51 80t66.5 94t66.5 88q3 4 8 4t9 -5.5t-1 -10.5q-5 -6 -24.5 -31t-46.5 -61.5t-56 -80t-54.5 -87t-41.5 -81t-16 -62.5q0 -37 38 -37q28 0 63.5 13.5
t70.5 38.5t60 57q3 4 8 4t8.5 -6t-1.5 -11q-25 -33 -62 -59.5t-75.5 -41.5t-71.5 -15zM776 232q-14 0 -28.5 0.5t-30.5 0.5q-10 0 -10 10t10 10q13 0 27 -0.5t28 -0.5q15 0 30.5 1t30.5 5q20 5 36 16t33 35q34 46 68 90t62.5 78t45.5 50q3 3 7 3q5 0 8.5 -6t-2.5 -11
q-16 -16 -44 -49.5t-61.5 -77t-67.5 -89.5q-31 -43 -66 -54t-76 -11zM765 277q-10 0 -10 10q0 5 4 8q23 19 61 50.5t79.5 67t75.5 64.5q2 2 6 2q11 0 11 -11q0 -3 -4 -7q-34 -29 -75.5 -64t-79.5 -66.5t-62 -51.5q-2 -2 -6 -2zM922 -5q-21 0 -47.5 9t-46 30t-19.5 57
q0 11 2 22t6 24q3 7 9 7q5 0 8.5 -3.5t1.5 -9.5q-7 -21 -7 -39q0 -29 15 -46t37 -24t41 -7q37 0 75 17t73 40q4 2 5 2q5 0 7.5 -3.5t2.5 -7.5q0 -5 -4 -8q-36 -23 -77 -41.5t-82 -18.5zM1220 750q-9 0 -17 7q-4 3 -20.5 17t-37 31t-38 32l-24.5 21q-8 8 -8 15q0 13 27 34
q11 9 22 9q12 0 21 -11q3 -4 14.5 -15.5t18.5 -19.5q2 -2 2 -6q0 -5 -5.5 -9t-10.5 0q-2 2 -13.5 14.5t-21.5 23.5q-3 3 -6 3q-2 0 -9 -5q-13 -10 -15.5 -13.5t-1.5 -5.5q6 -5 23 -19.5t37.5 -31.5t37 -31t20.5 -17t5.5 -3t1.5 6q0 8 -1 12.5t-8 11.5l-25 25q-3 3 -3 6
q0 6 6.5 9.5t10.5 -1.5l27 -27q8 -8 9.5 -16t1.5 -20q0 -26 -20 -26z" />
    <glyph glyph-name="Aacute" unicode="&#xc1;" horiz-adv-x="1166" 
d="M398 514q-16 0 -20.5 14t-2.5 26q9 44 47.5 75.5t97 51.5t128.5 30t143 10q10 0 44 -0.5t81.5 -3.5t97.5 -9.5t94 -18.5t71.5 -30.5t27.5 -45.5q0 -11 -4 -20q-3 -6 -9 -6q-4 0 -7.5 4t-1.5 10q2 3 2 6v6q0 21 -26 35.5t-68 24t-90 15.5t-93 8.5t-77.5 3.5t-41.5 1
q-75 0 -143 -10t-122 -29t-88.5 -47t-42.5 -65q0 -1 -0.5 -3t-0.5 -4q0 -9 4 -9q7 0 15.5 8t12.5 13q49 50 106 72.5t117 28.5t117 6q83 0 136 -5.5t85 -13t52 -13.5q7 -3 7 -9q0 -5 -4 -8.5t-9 -2.5q-19 6 -50 13.5t-83 13t-134 5.5q-64 0 -121.5 -7t-110 -30t-101.5 -72
q-7 -7 -15.5 -13t-19.5 -6zM186 -34q-37 0 -78.5 8.5t-78 27t-59.5 49t-23 75.5q0 53 25.5 98t69 81t98.5 61.5t115.5 39t118.5 13.5q19 0 51 -3t67.5 -11t67.5 -21.5t52 -34.5t20 -50q0 -4 -0.5 -7.5t-1.5 -8.5q-1 -7 -8 -18t-22 -11q-10 0 -23.5 13.5l-20.5 20.5
q-37 34 -80.5 49.5t-95.5 15.5q-78 0 -141.5 -20t-109.5 -52.5t-70.5 -69.5t-24.5 -72q0 -41 40 -70.5t127 -29.5q59 0 125 24.5t132.5 64t127 85.5t108.5 88q15 13 45.5 37.5t70 56t82 64.5t82 64t70.5 55t46 36q2 2 6 2q10 0 10 -11q0 -4 -4 -7q-15 -12 -45.5 -36
t-70 -54.5t-82 -64t-82 -64.5t-70 -55.5t-45.5 -37.5q-48 -42 -109 -88.5t-129 -87t-136.5 -66t-131.5 -25.5q-42 0 -85 10.5t-71.5 37.5t-28.5 75q0 8 1 16.5t3 17.5q10 48 48.5 85t92.5 62t112 37.5t107 12.5q67 0 114.5 -21.5t91.5 -65.5q3 -2 7 -6t8 -6q6 0 9 14
q1 3 1 6v6q0 24 -19.5 41t-49.5 28t-63 17.5t-61.5 9.5t-43.5 3q-70 0 -141.5 -19.5t-131.5 -56t-96.5 -86.5t-36.5 -110q0 -37 19.5 -64t51.5 -44t70.5 -25t76.5 -8q64 0 128.5 19.5t126.5 51.5t116 69.5t97 74.5l2.5 1t3.5 1h176q10 0 10 -10t-10 -10h-172
q-43 -37 -98 -75t-118 -70t-129.5 -52t-132.5 -20zM964 70q-32 0 -45 15.5t-13 38.5q0 27 11.5 58t25.5 58t22 40q20 34 51 80t66.5 94t66.5 88q3 4 8 4t9 -5.5t-1 -10.5q-5 -6 -24.5 -31t-46.5 -61.5t-56 -80t-54.5 -87t-41.5 -81t-16 -62.5q0 -37 38 -37q28 0 63.5 13.5
t70.5 38.5t60 57q3 4 8 4t8.5 -6t-1.5 -11q-25 -33 -62 -59.5t-75.5 -41.5t-71.5 -15zM776 232q-14 0 -28.5 0.5t-30.5 0.5q-10 0 -10 10t10 10q13 0 27 -0.5t28 -0.5q15 0 30.5 1t30.5 5q20 5 36 16t33 35q34 46 68 90t62.5 78t45.5 50q3 3 7 3q5 0 8.5 -6t-2.5 -11
q-16 -16 -44 -49.5t-61.5 -77t-67.5 -89.5q-31 -43 -66 -54t-76 -11zM765 277q-10 0 -10 10q0 5 4 8q23 19 61 50.5t79.5 67t75.5 64.5q2 2 6 2q11 0 11 -11q0 -3 -4 -7q-34 -29 -75.5 -64t-79.5 -66.5t-62 -51.5q-2 -2 -6 -2zM922 -5q-21 0 -47.5 9t-46 30t-19.5 57
q0 11 2 22t6 24q3 7 9 7q5 0 8.5 -3.5t1.5 -9.5q-7 -21 -7 -39q0 -29 15 -46t37 -24t41 -7q37 0 75 17t73 40q4 2 5 2q5 0 7.5 -3.5t2.5 -7.5q0 -5 -4 -8q-36 -23 -77 -41.5t-82 -18.5zM1183 750q-20 0 -20 26q0 12 1.5 20t9.5 16l27 27q2 2 6 2t7.5 -2.5t3.5 -7.5
q0 -3 -3 -6l-25 -25q-7 -7 -8 -11.5t-1 -12.5q0 -6 1.5 -6t5.5 3t20.5 17t37 31t37.5 31.5t23 19.5l0.5 0.5t0.5 1.5q0 2 -3.5 5.5t-14.5 11.5q-7 5 -9 5q-3 0 -6 -3q-10 -11 -21.5 -23.5t-13.5 -14.5t-5 -2q-4 0 -7.5 3.5t-3.5 7.5t2 6q8 8 19 19.5t14 15.5q9 11 21 11
t22 -9q27 -21 27 -34q0 -7 -8 -15l-24.5 -21t-38 -32t-37 -31t-20.5 -17q-8 -7 -17 -7z" />
    <glyph glyph-name="Acircumflex" unicode="&#xc2;" horiz-adv-x="1166" 
d="M398 514q-16 0 -20.5 14t-2.5 26q9 44 47.5 75.5t97 51.5t128.5 30t143 10q10 0 44 -0.5t81.5 -3.5t97.5 -9.5t94 -18.5t71.5 -30.5t27.5 -45.5q0 -11 -4 -20q-3 -6 -9 -6q-4 0 -7.5 4t-1.5 10q2 3 2 6v6q0 21 -26 35.5t-68 24t-90 15.5t-93 8.5t-77.5 3.5t-41.5 1
q-75 0 -143 -10t-122 -29t-88.5 -47t-42.5 -65q0 -1 -0.5 -3t-0.5 -4q0 -9 4 -9q7 0 15.5 8t12.5 13q49 50 106 72.5t117 28.5t117 6q83 0 136 -5.5t85 -13t52 -13.5q7 -3 7 -9q0 -5 -4 -8.5t-9 -2.5q-19 6 -50 13.5t-83 13t-134 5.5q-64 0 -121.5 -7t-110 -30t-101.5 -72
q-7 -7 -15.5 -13t-19.5 -6zM186 -34q-37 0 -78.5 8.5t-78 27t-59.5 49t-23 75.5q0 53 25.5 98t69 81t98.5 61.5t115.5 39t118.5 13.5q19 0 51 -3t67.5 -11t67.5 -21.5t52 -34.5t20 -50q0 -4 -0.5 -7.5t-1.5 -8.5q-1 -7 -8 -18t-22 -11q-10 0 -23.5 13.5l-20.5 20.5
q-37 34 -80.5 49.5t-95.5 15.5q-78 0 -141.5 -20t-109.5 -52.5t-70.5 -69.5t-24.5 -72q0 -41 40 -70.5t127 -29.5q59 0 125 24.5t132.5 64t127 85.5t108.5 88q15 13 45.5 37.5t70 56t82 64.5t82 64t70.5 55t46 36q2 2 6 2q10 0 10 -11q0 -4 -4 -7q-15 -12 -45.5 -36
t-70 -54.5t-82 -64t-82 -64.5t-70 -55.5t-45.5 -37.5q-48 -42 -109 -88.5t-129 -87t-136.5 -66t-131.5 -25.5q-42 0 -85 10.5t-71.5 37.5t-28.5 75q0 8 1 16.5t3 17.5q10 48 48.5 85t92.5 62t112 37.5t107 12.5q67 0 114.5 -21.5t91.5 -65.5q3 -2 7 -6t8 -6q6 0 9 14
q1 3 1 6v6q0 24 -19.5 41t-49.5 28t-63 17.5t-61.5 9.5t-43.5 3q-70 0 -141.5 -19.5t-131.5 -56t-96.5 -86.5t-36.5 -110q0 -37 19.5 -64t51.5 -44t70.5 -25t76.5 -8q64 0 128.5 19.5t126.5 51.5t116 69.5t97 74.5l2.5 1t3.5 1h176q10 0 10 -10t-10 -10h-172
q-43 -37 -98 -75t-118 -70t-129.5 -52t-132.5 -20zM964 70q-32 0 -45 15.5t-13 38.5q0 27 11.5 58t25.5 58t22 40q20 34 51 80t66.5 94t66.5 88q3 4 8 4t9 -5.5t-1 -10.5q-5 -6 -24.5 -31t-46.5 -61.5t-56 -80t-54.5 -87t-41.5 -81t-16 -62.5q0 -37 38 -37q28 0 63.5 13.5
t70.5 38.5t60 57q3 4 8 4t8.5 -6t-1.5 -11q-25 -33 -62 -59.5t-75.5 -41.5t-71.5 -15zM776 232q-14 0 -28.5 0.5t-30.5 0.5q-10 0 -10 10t10 10q13 0 27 -0.5t28 -0.5q15 0 30.5 1t30.5 5q20 5 36 16t33 35q34 46 68 90t62.5 78t45.5 50q3 3 7 3q5 0 8.5 -6t-2.5 -11
q-16 -16 -44 -49.5t-61.5 -77t-67.5 -89.5q-31 -43 -66 -54t-76 -11zM765 277q-10 0 -10 10q0 5 4 8q23 19 61 50.5t79.5 67t75.5 64.5q2 2 6 2q11 0 11 -11q0 -3 -4 -7q-34 -29 -75.5 -64t-79.5 -66.5t-62 -51.5q-2 -2 -6 -2zM922 -5q-21 0 -47.5 9t-46 30t-19.5 57
q0 11 2 22t6 24q3 7 9 7q5 0 8.5 -3.5t1.5 -9.5q-7 -21 -7 -39q0 -29 15 -46t37 -24t41 -7q37 0 75 17t73 40q4 2 5 2q5 0 7.5 -3.5t2.5 -7.5q0 -5 -4 -8q-36 -23 -77 -41.5t-82 -18.5zM1322 747q-16 0 -24.5 1.5t-12.5 7.5q-4 5 -10.5 14.5t-10.5 16.5q-1 2 -1 7
q2 10 11 10q6 0 8 -5q5 -7 10 -15.5t9 -13.5q2 -1 6.5 -2t18.5 -1q11 0 5 9t-16 22.5t-21 28.5q-11 17 -20.5 28t-13.5 17q-2 2 -3 2q-3 0 -14 -7q-4 -3 -23.5 -15t-42.5 -26.5t-41.5 -25.5t-21.5 -13t-9.5 -6.5t-8.5 -7.5t6 -3q11 0 17.5 2t11.5 5t22 11.5t34.5 18
t25.5 14.5q5 3 9 3q10 0 8 -10q-2 -6 -8 -9q-8 -5 -26.5 -15t-35.5 -18.5t-22 -11.5q-19 -10 -40 -10q-36 0 -33 18q2 10 18 20l151 95q17 11 28 11q9 0 16 -10l31 -43q10 -13 21.5 -29t16.5 -24q6 -8 4 -18q-1 -10 -8.5 -16.5t-20.5 -6.5z" />
    <glyph glyph-name="Atilde" unicode="&#xc3;" horiz-adv-x="1166" 
d="M398 514q-16 0 -20.5 14t-2.5 26q9 44 47.5 75.5t97 51.5t128.5 30t143 10q10 0 44 -0.5t81.5 -3.5t97.5 -9.5t94 -18.5t71.5 -30.5t27.5 -45.5q0 -11 -4 -20q-3 -6 -9 -6q-4 0 -7.5 4t-1.5 10q2 3 2 6v6q0 21 -26 35.5t-68 24t-90 15.5t-93 8.5t-77.5 3.5t-41.5 1
q-75 0 -143 -10t-122 -29t-88.5 -47t-42.5 -65q0 -1 -0.5 -3t-0.5 -4q0 -9 4 -9q7 0 15.5 8t12.5 13q49 50 106 72.5t117 28.5t117 6q83 0 136 -5.5t85 -13t52 -13.5q7 -3 7 -9q0 -5 -4 -8.5t-9 -2.5q-19 6 -50 13.5t-83 13t-134 5.5q-64 0 -121.5 -7t-110 -30t-101.5 -72
q-7 -7 -15.5 -13t-19.5 -6zM186 -34q-37 0 -78.5 8.5t-78 27t-59.5 49t-23 75.5q0 53 25.5 98t69 81t98.5 61.5t115.5 39t118.5 13.5q19 0 51 -3t67.5 -11t67.5 -21.5t52 -34.5t20 -50q0 -4 -0.5 -7.5t-1.5 -8.5q-1 -7 -8 -18t-22 -11q-10 0 -23.5 13.5l-20.5 20.5
q-37 34 -80.5 49.5t-95.5 15.5q-78 0 -141.5 -20t-109.5 -52.5t-70.5 -69.5t-24.5 -72q0 -41 40 -70.5t127 -29.5q59 0 125 24.5t132.5 64t127 85.5t108.5 88q15 13 45.5 37.5t70 56t82 64.5t82 64t70.5 55t46 36q2 2 6 2q10 0 10 -11q0 -4 -4 -7q-15 -12 -45.5 -36
t-70 -54.5t-82 -64t-82 -64.5t-70 -55.5t-45.5 -37.5q-48 -42 -109 -88.5t-129 -87t-136.5 -66t-131.5 -25.5q-42 0 -85 10.5t-71.5 37.5t-28.5 75q0 8 1 16.5t3 17.5q10 48 48.5 85t92.5 62t112 37.5t107 12.5q67 0 114.5 -21.5t91.5 -65.5q3 -2 7 -6t8 -6q6 0 9 14
q1 3 1 6v6q0 24 -19.5 41t-49.5 28t-63 17.5t-61.5 9.5t-43.5 3q-70 0 -141.5 -19.5t-131.5 -56t-96.5 -86.5t-36.5 -110q0 -37 19.5 -64t51.5 -44t70.5 -25t76.5 -8q64 0 128.5 19.5t126.5 51.5t116 69.5t97 74.5l2.5 1t3.5 1h176q10 0 10 -10t-10 -10h-172
q-43 -37 -98 -75t-118 -70t-129.5 -52t-132.5 -20zM964 70q-32 0 -45 15.5t-13 38.5q0 27 11.5 58t25.5 58t22 40q20 34 51 80t66.5 94t66.5 88q3 4 8 4t9 -5.5t-1 -10.5q-5 -6 -24.5 -31t-46.5 -61.5t-56 -80t-54.5 -87t-41.5 -81t-16 -62.5q0 -37 38 -37q28 0 63.5 13.5
t70.5 38.5t60 57q3 4 8 4t8.5 -6t-1.5 -11q-25 -33 -62 -59.5t-75.5 -41.5t-71.5 -15zM776 232q-14 0 -28.5 0.5t-30.5 0.5q-10 0 -10 10t10 10q13 0 27 -0.5t28 -0.5q15 0 30.5 1t30.5 5q20 5 36 16t33 35q34 46 68 90t62.5 78t45.5 50q3 3 7 3q5 0 8.5 -6t-2.5 -11
q-16 -16 -44 -49.5t-61.5 -77t-67.5 -89.5q-31 -43 -66 -54t-76 -11zM765 277q-10 0 -10 10q0 5 4 8q23 19 61 50.5t79.5 67t75.5 64.5q2 2 6 2q11 0 11 -11q0 -3 -4 -7q-34 -29 -75.5 -64t-79.5 -66.5t-62 -51.5q-2 -2 -6 -2zM922 -5q-21 0 -47.5 9t-46 30t-19.5 57
q0 11 2 22t6 24q3 7 9 7q5 0 8.5 -3.5t1.5 -9.5q-7 -21 -7 -39q0 -29 15 -46t37 -24t41 -7q37 0 75 17t73 40q4 2 5 2q5 0 7.5 -3.5t2.5 -7.5q0 -5 -4 -8q-36 -23 -77 -41.5t-82 -18.5zM1269 743q-18 0 -35 6t-27 12q-19 14 -44 14q-14 0 -21.5 -5t-17.5 -13
q-11 -10 -24 -10q-12 0 -20.5 8t-8.5 20q0 14 13 27q4 4 9 4q9 0 9 -9q0 -5 -4 -9q-7 -7 -7 -13q0 -8 8 -8q6 0 13 6q8 6 19.5 14t31.5 8q15 0 31 -5.5t25 -11.5t23 -10.5t27 -4.5q20 0 34.5 11t23 24t10.5 18q2 6 2 8q0 6 -4 6t-8 -4q-25 -25 -51 -25q-13 0 -29 5t-26 10
q-11 6 -26 10.5t-27 4.5q-13 0 -21 -3t-18 -11q-4 -3 -8 -3q-9 0 -9 10q0 7 5 9q22 18 51 18q16 0 34 -5.5t28 -11.5q10 -5 23.5 -9t22.5 -4q18 0 37 19q10 10 22 10q10 0 16.5 -7.5t6.5 -19.5q0 -7 -3 -15q-2 -5 -12.5 -21t-29 -30t-44.5 -14z" />
    <glyph glyph-name="Adieresis" unicode="&#xc4;" horiz-adv-x="1166" 
d="M398 514q-16 0 -20.5 14t-2.5 26q9 44 47.5 75.5t97 51.5t128.5 30t143 10q10 0 44 -0.5t81.5 -3.5t97.5 -9.5t94 -18.5t71.5 -30.5t27.5 -45.5q0 -11 -4 -20q-3 -6 -9 -6q-4 0 -7.5 4t-1.5 10q2 3 2 6v6q0 21 -26 35.5t-68 24t-90 15.5t-93 8.5t-77.5 3.5t-41.5 1
q-75 0 -143 -10t-122 -29t-88.5 -47t-42.5 -65q0 -1 -0.5 -3t-0.5 -4q0 -9 4 -9q7 0 15.5 8t12.5 13q49 50 106 72.5t117 28.5t117 6q83 0 136 -5.5t85 -13t52 -13.5q7 -3 7 -9q0 -5 -4 -8.5t-9 -2.5q-19 6 -50 13.5t-83 13t-134 5.5q-64 0 -121.5 -7t-110 -30t-101.5 -72
q-7 -7 -15.5 -13t-19.5 -6zM186 -34q-37 0 -78.5 8.5t-78 27t-59.5 49t-23 75.5q0 53 25.5 98t69 81t98.5 61.5t115.5 39t118.5 13.5q19 0 51 -3t67.5 -11t67.5 -21.5t52 -34.5t20 -50q0 -4 -0.5 -7.5t-1.5 -8.5q-1 -7 -8 -18t-22 -11q-10 0 -23.5 13.5l-20.5 20.5
q-37 34 -80.5 49.5t-95.5 15.5q-78 0 -141.5 -20t-109.5 -52.5t-70.5 -69.5t-24.5 -72q0 -41 40 -70.5t127 -29.5q59 0 125 24.5t132.5 64t127 85.5t108.5 88q15 13 45.5 37.5t70 56t82 64.5t82 64t70.5 55t46 36q2 2 6 2q10 0 10 -11q0 -4 -4 -7q-15 -12 -45.5 -36
t-70 -54.5t-82 -64t-82 -64.5t-70 -55.5t-45.5 -37.5q-48 -42 -109 -88.5t-129 -87t-136.5 -66t-131.5 -25.5q-42 0 -85 10.5t-71.5 37.5t-28.5 75q0 8 1 16.5t3 17.5q10 48 48.5 85t92.5 62t112 37.5t107 12.5q67 0 114.5 -21.5t91.5 -65.5q3 -2 7 -6t8 -6q6 0 9 14
q1 3 1 6v6q0 24 -19.5 41t-49.5 28t-63 17.5t-61.5 9.5t-43.5 3q-70 0 -141.5 -19.5t-131.5 -56t-96.5 -86.5t-36.5 -110q0 -37 19.5 -64t51.5 -44t70.5 -25t76.5 -8q64 0 128.5 19.5t126.5 51.5t116 69.5t97 74.5l2.5 1t3.5 1h176q10 0 10 -10t-10 -10h-172
q-43 -37 -98 -75t-118 -70t-129.5 -52t-132.5 -20zM964 70q-32 0 -45 15.5t-13 38.5q0 27 11.5 58t25.5 58t22 40q20 34 51 80t66.5 94t66.5 88q3 4 8 4t9 -5.5t-1 -10.5q-5 -6 -24.5 -31t-46.5 -61.5t-56 -80t-54.5 -87t-41.5 -81t-16 -62.5q0 -37 38 -37q28 0 63.5 13.5
t70.5 38.5t60 57q3 4 8 4t8.5 -6t-1.5 -11q-25 -33 -62 -59.5t-75.5 -41.5t-71.5 -15zM776 232q-14 0 -28.5 0.5t-30.5 0.5q-10 0 -10 10t10 10q13 0 27 -0.5t28 -0.5q15 0 30.5 1t30.5 5q20 5 36 16t33 35q34 46 68 90t62.5 78t45.5 50q3 3 7 3q5 0 8.5 -6t-2.5 -11
q-16 -16 -44 -49.5t-61.5 -77t-67.5 -89.5q-31 -43 -66 -54t-76 -11zM765 277q-10 0 -10 10q0 5 4 8q23 19 61 50.5t79.5 67t75.5 64.5q2 2 6 2q11 0 11 -11q0 -3 -4 -7q-34 -29 -75.5 -64t-79.5 -66.5t-62 -51.5q-2 -2 -6 -2zM922 -5q-21 0 -47.5 9t-46 30t-19.5 57
q0 11 2 22t6 24q3 7 9 7q5 0 8.5 -3.5t1.5 -9.5q-7 -21 -7 -39q0 -29 15 -46t37 -24t41 -7q37 0 75 17t73 40q4 2 5 2q5 0 7.5 -3.5t2.5 -7.5q0 -5 -4 -8q-36 -23 -77 -41.5t-82 -18.5zM1154 749q-19 0 -32.5 13.5t-13.5 32.5q0 22 19 38q4 2 6 2q10 0 10 -11q0 -5 -4 -8
q-11 -6 -11 -21q0 -11 8 -18.5t19 -7.5t18.5 7.5t7.5 18.5q0 9 -7 18q-3 3 -3 7q0 6 6 9.5t11 -2.5q13 -13 13 -32t-13.5 -32.5t-33.5 -13.5zM1243 751q-19 16 -19 38q0 20 13.5 33t32.5 13q20 0 33.5 -13t13.5 -33q0 -19 -13 -32q-3 -3 -7 -3q-5 0 -8.5 5.5t1.5 11.5
q7 9 7 18q0 11 -7.5 18.5t-18.5 7.5t-19 -7.5t-8 -18.5q0 -15 11 -21q4 -3 4 -8t-5 -9t-11 0z" />
    <glyph glyph-name="Aring" unicode="&#xc5;" horiz-adv-x="1166" 
d="M398 514q-16 0 -20.5 14t-2.5 26q9 44 47.5 75.5t97 51.5t128.5 30t143 10q10 0 44 -0.5t81.5 -3.5t97.5 -9.5t94 -18.5t71.5 -30.5t27.5 -45.5q0 -11 -4 -20q-3 -6 -9 -6q-4 0 -7.5 4t-1.5 10q2 3 2 6v6q0 21 -26 35.5t-68 24t-90 15.5t-93 8.5t-77.5 3.5t-41.5 1
q-75 0 -143 -10t-122 -29t-88.5 -47t-42.5 -65q0 -1 -0.5 -3t-0.5 -4q0 -9 4 -9q7 0 15.5 8t12.5 13q49 50 106 72.5t117 28.5t117 6q83 0 136 -5.5t85 -13t52 -13.5q7 -3 7 -9q0 -5 -4 -8.5t-9 -2.5q-19 6 -50 13.5t-83 13t-134 5.5q-64 0 -121.5 -7t-110 -30t-101.5 -72
q-7 -7 -15.5 -13t-19.5 -6zM186 -34q-37 0 -78.5 8.5t-78 27t-59.5 49t-23 75.5q0 53 25.5 98t69 81t98.5 61.5t115.5 39t118.5 13.5q19 0 51 -3t67.5 -11t67.5 -21.5t52 -34.5t20 -50q0 -4 -0.5 -7.5t-1.5 -8.5q-1 -7 -8 -18t-22 -11q-10 0 -23.5 13.5l-20.5 20.5
q-37 34 -80.5 49.5t-95.5 15.5q-78 0 -141.5 -20t-109.5 -52.5t-70.5 -69.5t-24.5 -72q0 -41 40 -70.5t127 -29.5q59 0 125 24.5t132.5 64t127 85.5t108.5 88q15 13 45.5 37.5t70 56t82 64.5t82 64t70.5 55t46 36q2 2 6 2q10 0 10 -11q0 -4 -4 -7q-15 -12 -45.5 -36
t-70 -54.5t-82 -64t-82 -64.5t-70 -55.5t-45.5 -37.5q-48 -42 -109 -88.5t-129 -87t-136.5 -66t-131.5 -25.5q-42 0 -85 10.5t-71.5 37.5t-28.5 75q0 8 1 16.5t3 17.5q10 48 48.5 85t92.5 62t112 37.5t107 12.5q67 0 114.5 -21.5t91.5 -65.5q3 -2 7 -6t8 -6q6 0 9 14
q1 3 1 6v6q0 24 -19.5 41t-49.5 28t-63 17.5t-61.5 9.5t-43.5 3q-70 0 -141.5 -19.5t-131.5 -56t-96.5 -86.5t-36.5 -110q0 -37 19.5 -64t51.5 -44t70.5 -25t76.5 -8q64 0 128.5 19.5t126.5 51.5t116 69.5t97 74.5l2.5 1t3.5 1h176q10 0 10 -10t-10 -10h-172
q-43 -37 -98 -75t-118 -70t-129.5 -52t-132.5 -20zM964 70q-32 0 -45 15.5t-13 38.5q0 27 11.5 58t25.5 58t22 40q20 34 51 80t66.5 94t66.5 88q3 4 8 4t9 -5.5t-1 -10.5q-5 -6 -24.5 -31t-46.5 -61.5t-56 -80t-54.5 -87t-41.5 -81t-16 -62.5q0 -37 38 -37q28 0 63.5 13.5
t70.5 38.5t60 57q3 4 8 4t8.5 -6t-1.5 -11q-25 -33 -62 -59.5t-75.5 -41.5t-71.5 -15zM776 232q-14 0 -28.5 0.5t-30.5 0.5q-10 0 -10 10t10 10q13 0 27 -0.5t28 -0.5q15 0 30.5 1t30.5 5q20 5 36 16t33 35q34 46 68 90t62.5 78t45.5 50q3 3 7 3q5 0 8.5 -6t-2.5 -11
q-16 -16 -44 -49.5t-61.5 -77t-67.5 -89.5q-31 -43 -66 -54t-76 -11zM765 277q-10 0 -10 10q0 5 4 8q23 19 61 50.5t79.5 67t75.5 64.5q2 2 6 2q11 0 11 -11q0 -3 -4 -7q-34 -29 -75.5 -64t-79.5 -66.5t-62 -51.5q-2 -2 -6 -2zM922 -5q-21 0 -47.5 9t-46 30t-19.5 57
q0 11 2 22t6 24q3 7 9 7q5 0 8.5 -3.5t1.5 -9.5q-7 -21 -7 -39q0 -29 15 -46t37 -24t41 -7q37 0 75 17t73 40q4 2 5 2q5 0 7.5 -3.5t2.5 -7.5q0 -5 -4 -8q-36 -23 -77 -41.5t-82 -18.5zM1199 740q-31 0 -51.5 19.5t-20.5 49.5q0 27 15 50t38.5 37t48.5 14q32 0 52 -20
t20 -50q0 -43 -29 -71.5t-73 -28.5zM1198 759q38 -1 61 24.5t23 58.5q0 21 -14 34.5t-38 13.5q-21 0 -40 -11.5t-31.5 -30t-12.5 -40.5q0 -21 14.5 -35.5t37.5 -13.5zM1207 781q-16 0 -26.5 10t-10.5 26q0 20 17 35.5t36 15.5q16 0 26 -10t10 -26q0 -20 -16 -35.5t-36 -15.5
zM1209 801q11 0 20.5 9t9.5 21q0 17 -18 17q-11 0 -21 -9t-10 -21q0 -17 19 -17z" />
    <glyph glyph-name="AE" unicode="&#xc6;" horiz-adv-x="1354" 
d="M585 551q-10 0 -18 9q-6 9 -6 20q0 3 0.5 6.5t1.5 7.5q13 62 52 97t95 49.5t121 14.5q57 0 117 -8t117.5 -20t107 -23.5t86.5 -19.5q21 -4 45 -7.5t48 -3.5q25 0 48 4.5t42 16.5q9 6 17.5 8.5t15.5 2.5q15 0 24 -9t9 -22q0 -10 -7 -22t-23 -21q-33 -19 -68.5 -27
t-72.5 -8q-45 0 -94 11q-32 7 -79.5 18.5t-104.5 24t-116 21t-113 8.5q-71 0 -125.5 -21t-73.5 -74q-4 -11 -18 -22t-28 -11zM583 573q4 -5 16 4t13 13q21 62 81 85.5t137 23.5q55 0 114 -8.5t115.5 -21t105 -24.5t82.5 -19q23 -4 45.5 -7t44.5 -3q35 0 68 7.5t63 24.5
q20 11 20 26q0 11 -13 11q-11 0 -23 -8q-21 -13 -46.5 -19t-52.5 -6q-50 0 -102 12.5t-93 21.5q-38 9 -91.5 20.5t-114 20.5t-119.5 9t-112 -13t-89.5 -44.5t-48.5 -88.5q-2 -9 -1.5 -12.5t1.5 -4.5zM186 -34q-37 0 -78.5 8.5t-78 27t-59.5 49t-23 75.5q0 8 1 17t3 19
q13 60 54.5 107.5t101.5 81t129 51t138 17.5q19 0 51 -3t67.5 -11t67.5 -21.5t52 -34.5t20 -50q0 -4 -0.5 -7.5t-1.5 -8.5q-1 -7 -8 -18t-22 -11q-10 0 -23.5 13.5l-20.5 20.5q-37 34 -80.5 49.5t-95.5 15.5q-78 0 -141.5 -20t-109.5 -52.5t-70.5 -69.5t-24.5 -72
q0 -41 40 -70.5t127 -29.5q59 0 125 24.5t132.5 64t127 85.5t108.5 88q15 13 45.5 37.5t70 56t82 64.5t82 64t70.5 55t46 36q2 2 6 2q10 0 10 -11q0 -4 -4 -7q-15 -12 -45.5 -36t-70 -54.5t-82 -64t-82 -64.5t-70 -55.5t-45.5 -37.5q-48 -42 -109 -88.5t-129 -87t-136.5 -66
t-131.5 -25.5q-97 0 -142 35t-45 84q0 39 25.5 80t73.5 76t115.5 57t151.5 22q67 0 114.5 -21.5t91.5 -65.5q3 -2 7 -6t8 -6q6 0 9 14q1 3 1 6v6q0 24 -19.5 41t-49.5 28t-63 17.5t-61.5 9.5t-43.5 3q-67 0 -133.5 -17t-123.5 -48.5t-95.5 -76t-50.5 -99.5q-3 -16 -3 -31
q0 -37 19.5 -64t51.5 -44t70.5 -25t76.5 -8q64 0 128.5 19.5t126.5 51.5t116 69.5t97 74.5l2.5 1t3.5 1h176q10 0 10 -10t-10 -10h-172q-43 -37 -98 -75t-118 -70t-129.5 -52t-132.5 -20zM717 233q-10 0 -10 10t10 10q41 0 69.5 1.5t52 9.5t46 27.5t50.5 55.5q12 15 37.5 43
t57 60.5t63 64t56.5 54t37 29.5q11 6 22 6q17 0 32 -12t15 -27q0 -14 -14 -25q-16 -12 -29.5 -26.5t-29.5 -31.5t-35.5 -37.5t-45.5 -45.5q-3 -3 -7 -3q-6 0 -9.5 6t2.5 11q35 33 71 74t71 69q6 5 6 10q0 8 -8.5 13t-18.5 5q-6 0 -11 -3q-11 -6 -35.5 -28t-55 -52.5t-62 -63
t-56.5 -60t-37 -42.5q-30 -39 -54.5 -60t-49.5 -30t-56 -10.5t-74 -1.5zM765 277q-10 0 -10 10q0 5 4 8q23 19 61 50.5t79.5 67t75.5 64.5q2 2 6 2q11 0 11 -11q0 -3 -4 -7q-34 -29 -75.5 -64t-79.5 -66.5t-62 -51.5q-2 -2 -6 -2zM905 -9q-25 0 -54.5 5.5t-50 22.5t-20.5 49
q0 6 1 13.5t3 14.5q4 14 11 30t16 33q3 6 9 6q5 0 8.5 -4.5t0.5 -10.5q-12 -23 -19.5 -44t-7.5 -38q0 -26 23 -41.5t80 -15.5q37 0 85 3t100 10t102.5 17.5t91.5 25.5q9 3 20 15.5t7 22.5q-1 0 -2 0.5t-3 0.5q-5 0 -16 -4q-17 -7 -57.5 -16t-90.5 -17.5t-97.5 -14
t-80.5 -5.5q-43 0 -60.5 15t-17.5 39q0 25 14.5 56t35.5 61.5t40 54t28 33.5q3 3 8 3h37q33 0 79.5 1t97 4t96 9t75.5 15q7 2 18.5 9t21 17t7.5 20h-3q-2 0 -6 -0.5t-10 -2.5q-31 -11 -78.5 -16t-101 -6.5t-101.5 -1.5h-88q-10 0 -10 10t10 10h88q48 0 100 1.5t98.5 6.5
t76.5 15q11 4 22 4q23 0 23 -22q0 -15 -15.5 -34t-45.5 -29q-31 -10 -77.5 -16t-98.5 -9t-99 -4t-80 -1h-32q-35 -41 -65 -84t-43 -89q-1 -4 -1.5 -8.5t-0.5 -8.5q0 -14 8.5 -21t24.5 -10q5 -1 11 -1.5t13 -0.5q31 0 78 5.5t96.5 14t89 17.5t55.5 15q15 6 25 6q13 0 18.5 -7
t5.5 -17q0 -14 -10.5 -30t-29.5 -23q-43 -15 -94.5 -26t-104.5 -18t-101.5 -10.5t-85.5 -3.5z" />
    <glyph glyph-name="Ccedilla" unicode="&#xc7;" horiz-adv-x="720" 
d="M242 -29q-69 0 -122 28t-82.5 79.5t-29.5 122.5q0 85 36 164.5t98 146.5t139.5 117.5t161 78.5t162.5 28q77 0 126 -20.5t72 -53.5t23 -72q0 -37 -19 -74t-55.5 -67.5t-87.5 -49t-114 -18.5q-24 0 -56 5t-63 17.5t-51.5 33.5t-20.5 54v1q0 10 10 10t10 -9q4 -34 32.5 -54
t67 -29t71.5 -9q77 0 134.5 29t89 72.5t31.5 87.5q0 34 -20.5 62.5t-64.5 46t-115 17.5q-76 0 -157 -27.5t-156 -76.5t-134.5 -114t-94.5 -140.5t-35 -156.5q0 -97 58.5 -153.5t155.5 -56.5q62 0 122.5 19.5t109.5 58t77 95.5q3 6 7.5 18t8.5 24t4 16q0 5 -0.5 6.5l-0.5 1.5
q-2 2 -8 2q-15 0 -23 -11.5t-13 -27t-14 -27.5q-25 -34 -68.5 -65.5t-92.5 -51.5t-93 -20q-80 0 -125.5 47.5t-45.5 126.5q0 68 32 137t85.5 131t120.5 110.5t137.5 76.5t135.5 28q97 0 138.5 -29.5t41.5 -69.5q0 -28 -17 -56.5t-47.5 -52.5t-70.5 -39t-85 -15q-16 0 -43 6
t-54.5 17t-46.5 28t-19 39v2q0 9 10 9q9 0 10 -8q3 -15 19 -28t39 -23.5t46 -16t39 -5.5q53 0 98.5 22t73.5 55t28 65t-36.5 56t-123.5 24q-62 0 -130 -27t-132 -74t-116 -106.5t-82.5 -125.5t-30.5 -130q0 -70 40 -112t111 -42q30 0 67.5 12.5t74.5 34t66 48.5t41 55
q9 20 18 36.5t37 16.5q29 0 29 -30q0 -7 -4.5 -21t-9.5 -27t-8 -19q-29 -61 -81.5 -102t-116.5 -61.5t-129 -20.5zM155 -217q-13 0 -28.5 3.5t-25.5 9.5q-13 8 -19 19.5t-6 23.5t6.5 21t18.5 9q2 0 4.5 -0.5t5.5 -1.5l3 -1q11 -6 21.5 -11.5t19.5 -5.5q7 0 10 2t3 7
q0 9 -10 22q-5 6 -14 19t-9 28q0 11 4.5 16t8.5 5q12 0 7 -14q-4 -11 4 -22t15 -20q14 -19 14 -35q0 -17 -13 -24q-10 -5 -18 -5q-14 0 -27.5 7t-24.5 13h-1q-8 0 -8 -10q0 -15 15 -24q18 -11 44 -11q66 0 72 43q2 11 -9.5 28t-24 35t-14.5 31q-2 22 6 34.5t21 16.5q2 1 5 1
q10 0 10 -8t-9 -11q-7 -3 -11 -10t-2 -23q2 -12 15 -28t24.5 -33t8.5 -35q-8 -61 -92 -61z" />
    <glyph glyph-name="Egrave" unicode="&#xc8;" horiz-adv-x="733" 
d="M13 390q-6 0 -9 6q-28 55 -28 111q0 51 21 97.5t58 82.5t85.5 57t103.5 21q51 0 94.5 -14t85 -32.5t86 -32.5t95.5 -14q35 0 59 6.5t37 15.5q9 6 18 8.5t16 2.5q15 0 24 -9t9 -22q0 -11 -7 -22.5t-23 -20.5q-32 -19 -69 -27.5t-75 -8.5q-63 0 -121 20q-40 13 -77 28.5
t-74.5 27t-81.5 11.5h-12t-13 -1q-45 -4 -80 -29t-55 -63.5t-20 -85.5q0 -44 19 -88q1 -1 2 -3.5t1 -4.5q0 -10 -11 -10q-5 0 -8 6q-22 50 -22 100q0 51 21.5 94.5t60.5 71.5t90 32q8 1 14.5 1h13.5q47 0 87 -12t78 -28t77 -29.5t84 -16.5q6 0 12 -0.5t12 -0.5q42 0 77 9
t60 24q20 11 20 26q0 11 -13 11q-11 0 -23 -8q-21 -13 -48 -19t-56 -6q-32 0 -64.5 6t-58.5 15q-41 14 -79 31t-76.5 29t-83.5 12q-52 0 -97.5 -19.5t-79.5 -53t-53.5 -76t-19.5 -89.5q0 -53 26 -102q1 -2 1 -5q0 -10 -10 -10zM146 303q-37 0 -54 14t-17 31q0 18 17.5 33.5
t51.5 15.5q25 0 48.5 -2.5t46.5 -6.5q15 17 43 48t59.5 64.5t60 60.5t44.5 37q11 6 22 6q17 0 32 -12t15 -27q0 -14 -14 -25q-16 -12 -30 -26.5t-30 -31.5t-35.5 -37.5t-45.5 -45.5q-3 -3 -7 -3q-6 0 -9 6t2 11q35 33 71 74t71 69q6 5 6 10q0 8 -8.5 13t-18.5 5q-6 0 -11 -3
q-16 -9 -44 -36.5t-60 -61.5t-59.5 -64.5t-42.5 -47.5q-3 -3 -9 -3q-23 3 -47 6t-50 3q-23 0 -36 -9t-13 -20q0 -10 12.5 -17.5t38.5 -7.5q10 0 10 -10t-10 -10zM164 -9q-68 0 -95 22t-27 56q0 28 13 60t32.5 64t40.5 60t36 47q3 4 7 4q5 0 9 -5.5t-1 -10.5
q-18 -22 -38.5 -51t-39 -59.5t-30 -59t-11.5 -49.5q0 -34 32 -46t72 -12q37 0 85 3t100.5 10t102.5 17.5t92 25.5q9 3 19.5 15.5t6.5 22.5l-1.5 0.5t-3.5 0.5q-5 0 -16 -4q-17 -7 -57 -16t-90 -17.5t-98 -14t-81 -5.5q-43 0 -60 15t-17 38q0 26 14.5 57t35.5 61.5t39.5 54
t27.5 33.5q3 3 8 3h37q33 0 79.5 1t97.5 4t96.5 9t75.5 15q6 2 18 9t21.5 17t7.5 20h-4q-2 0 -5.5 -0.5t-9.5 -2.5q-31 -11 -78.5 -16t-101 -6.5t-102.5 -1.5h-88q-10 0 -10 10t10 10h89q48 0 100 1.5t98.5 6.5t75.5 15q12 4 22 4q24 0 24 -22q0 -16 -15.5 -35t-45.5 -28
q-31 -10 -78 -16t-98.5 -9t-98.5 -4t-80 -1h-32q-23 -26 -48.5 -60t-43.5 -68.5t-18 -61.5q0 -14 8.5 -21t24.5 -10q5 -1 11 -1.5t13 -0.5q31 0 78 5.5t96.5 14t89 17.5t55.5 15q15 6 25 6q13 0 18.5 -7t5.5 -17q0 -14 -10.5 -30t-29.5 -23q-43 -15 -94.5 -26t-104.5 -18
t-101.5 -10.5t-86.5 -3.5zM629 749q-9 0 -17 7q-4 3 -20.5 17t-37 31t-38 32l-24.5 21q-8 8 -8 15q0 13 27 34q11 9 22 9q12 0 21 -11q3 -4 14.5 -15.5t18.5 -19.5q2 -2 2 -6q0 -5 -5.5 -9t-10.5 0q-2 2 -13.5 14.5t-21.5 23.5q-3 3 -6 3q-2 0 -9 -5q-13 -10 -15.5 -13.5
t-1.5 -5.5q6 -5 23 -19.5t37.5 -31.5t37 -31t20.5 -17t5.5 -3t1.5 6q0 8 -1 12.5t-8 11.5l-25 25q-3 3 -3 6q0 6 6.5 9.5t10.5 -1.5l27 -27q8 -8 9.5 -16t1.5 -20q0 -26 -20 -26z" />
    <glyph glyph-name="Eacute" unicode="&#xc9;" horiz-adv-x="733" 
d="M13 390q-6 0 -9 6q-28 55 -28 111q0 51 21 97.5t58 82.5t85.5 57t103.5 21q51 0 94.5 -14t85 -32.5t86 -32.5t95.5 -14q35 0 59 6.5t37 15.5q9 6 18 8.5t16 2.5q15 0 24 -9t9 -22q0 -11 -7 -22.5t-23 -20.5q-32 -19 -69 -27.5t-75 -8.5q-63 0 -121 20q-40 13 -77 28.5
t-74.5 27t-81.5 11.5h-12t-13 -1q-45 -4 -80 -29t-55 -63.5t-20 -85.5q0 -44 19 -88q1 -1 2 -3.5t1 -4.5q0 -10 -11 -10q-5 0 -8 6q-22 50 -22 100q0 51 21.5 94.5t60.5 71.5t90 32q8 1 14.5 1h13.5q47 0 87 -12t78 -28t77 -29.5t84 -16.5q6 0 12 -0.5t12 -0.5q42 0 77 9
t60 24q20 11 20 26q0 11 -13 11q-11 0 -23 -8q-21 -13 -48 -19t-56 -6q-32 0 -64.5 6t-58.5 15q-41 14 -79 31t-76.5 29t-83.5 12q-52 0 -97.5 -19.5t-79.5 -53t-53.5 -76t-19.5 -89.5q0 -53 26 -102q1 -2 1 -5q0 -10 -10 -10zM146 303q-37 0 -54 14t-17 31q0 18 17.5 33.5
t51.5 15.5q25 0 48.5 -2.5t46.5 -6.5q15 17 43 48t59.5 64.5t60 60.5t44.5 37q11 6 22 6q17 0 32 -12t15 -27q0 -14 -14 -25q-16 -12 -30 -26.5t-30 -31.5t-35.5 -37.5t-45.5 -45.5q-3 -3 -7 -3q-6 0 -9 6t2 11q35 33 71 74t71 69q6 5 6 10q0 8 -8.5 13t-18.5 5q-6 0 -11 -3
q-16 -9 -44 -36.5t-60 -61.5t-59.5 -64.5t-42.5 -47.5q-3 -3 -9 -3q-23 3 -47 6t-50 3q-23 0 -36 -9t-13 -20q0 -10 12.5 -17.5t38.5 -7.5q10 0 10 -10t-10 -10zM164 -9q-68 0 -95 22t-27 56q0 28 13 60t32.5 64t40.5 60t36 47q3 4 7 4q5 0 9 -5.5t-1 -10.5
q-18 -22 -38.5 -51t-39 -59.5t-30 -59t-11.5 -49.5q0 -34 32 -46t72 -12q37 0 85 3t100.5 10t102.5 17.5t92 25.5q9 3 19.5 15.5t6.5 22.5l-1.5 0.5t-3.5 0.5q-5 0 -16 -4q-17 -7 -57 -16t-90 -17.5t-98 -14t-81 -5.5q-43 0 -60 15t-17 38q0 26 14.5 57t35.5 61.5t39.5 54
t27.5 33.5q3 3 8 3h37q33 0 79.5 1t97.5 4t96.5 9t75.5 15q6 2 18 9t21.5 17t7.5 20h-4q-2 0 -5.5 -0.5t-9.5 -2.5q-31 -11 -78.5 -16t-101 -6.5t-102.5 -1.5h-88q-10 0 -10 10t10 10h89q48 0 100 1.5t98.5 6.5t75.5 15q12 4 22 4q24 0 24 -22q0 -16 -15.5 -35t-45.5 -28
q-31 -10 -78 -16t-98.5 -9t-98.5 -4t-80 -1h-32q-23 -26 -48.5 -60t-43.5 -68.5t-18 -61.5q0 -14 8.5 -21t24.5 -10q5 -1 11 -1.5t13 -0.5q31 0 78 5.5t96.5 14t89 17.5t55.5 15q15 6 25 6q13 0 18.5 -7t5.5 -17q0 -14 -10.5 -30t-29.5 -23q-43 -15 -94.5 -26t-104.5 -18
t-101.5 -10.5t-86.5 -3.5zM592 749q-20 0 -20 26q0 12 1.5 20t9.5 16l27 27q2 2 6 2t7.5 -2.5t3.5 -7.5q0 -3 -3 -6l-25 -25q-7 -7 -8 -11.5t-1 -12.5q0 -6 1.5 -6t5.5 3t20.5 17t37 31t37.5 31.5t23 19.5l0.5 0.5t0.5 1.5q0 2 -3.5 5.5t-14.5 11.5q-7 5 -9 5q-3 0 -6 -3
q-10 -11 -21.5 -23.5t-13.5 -14.5t-5 -2q-4 0 -7.5 3.5t-3.5 7.5t2 6q8 8 19 19.5t14 15.5q9 11 21 11t22 -9q27 -21 27 -34q0 -7 -8 -15l-24.5 -21t-38 -32t-37 -31t-20.5 -17q-8 -7 -17 -7z" />
    <glyph glyph-name="Ecircumflex" unicode="&#xca;" horiz-adv-x="733" 
d="M13 390q-6 0 -9 6q-28 55 -28 111q0 51 21 97.5t58 82.5t85.5 57t103.5 21q51 0 94.5 -14t85 -32.5t86 -32.5t95.5 -14q35 0 59 6.5t37 15.5q9 6 18 8.5t16 2.5q15 0 24 -9t9 -22q0 -11 -7 -22.5t-23 -20.5q-32 -19 -69 -27.5t-75 -8.5q-63 0 -121 20q-40 13 -77 28.5
t-74.5 27t-81.5 11.5h-12t-13 -1q-45 -4 -80 -29t-55 -63.5t-20 -85.5q0 -44 19 -88q1 -1 2 -3.5t1 -4.5q0 -10 -11 -10q-5 0 -8 6q-22 50 -22 100q0 51 21.5 94.5t60.5 71.5t90 32q8 1 14.5 1h13.5q47 0 87 -12t78 -28t77 -29.5t84 -16.5q6 0 12 -0.5t12 -0.5q42 0 77 9
t60 24q20 11 20 26q0 11 -13 11q-11 0 -23 -8q-21 -13 -48 -19t-56 -6q-32 0 -64.5 6t-58.5 15q-41 14 -79 31t-76.5 29t-83.5 12q-52 0 -97.5 -19.5t-79.5 -53t-53.5 -76t-19.5 -89.5q0 -53 26 -102q1 -2 1 -5q0 -10 -10 -10zM146 303q-37 0 -54 14t-17 31q0 18 17.5 33.5
t51.5 15.5q25 0 48.5 -2.5t46.5 -6.5q15 17 43 48t59.5 64.5t60 60.5t44.5 37q11 6 22 6q17 0 32 -12t15 -27q0 -14 -14 -25q-16 -12 -30 -26.5t-30 -31.5t-35.5 -37.5t-45.5 -45.5q-3 -3 -7 -3q-6 0 -9 6t2 11q35 33 71 74t71 69q6 5 6 10q0 8 -8.5 13t-18.5 5q-6 0 -11 -3
q-16 -9 -44 -36.5t-60 -61.5t-59.5 -64.5t-42.5 -47.5q-3 -3 -9 -3q-23 3 -47 6t-50 3q-23 0 -36 -9t-13 -20q0 -10 12.5 -17.5t38.5 -7.5q10 0 10 -10t-10 -10zM164 -9q-68 0 -95 22t-27 56q0 28 13 60t32.5 64t40.5 60t36 47q3 4 7 4q5 0 9 -5.5t-1 -10.5
q-18 -22 -38.5 -51t-39 -59.5t-30 -59t-11.5 -49.5q0 -34 32 -46t72 -12q37 0 85 3t100.5 10t102.5 17.5t92 25.5q9 3 19.5 15.5t6.5 22.5l-1.5 0.5t-3.5 0.5q-5 0 -16 -4q-17 -7 -57 -16t-90 -17.5t-98 -14t-81 -5.5q-43 0 -60 15t-17 38q0 26 14.5 57t35.5 61.5t39.5 54
t27.5 33.5q3 3 8 3h37q33 0 79.5 1t97.5 4t96.5 9t75.5 15q6 2 18 9t21.5 17t7.5 20h-4q-2 0 -5.5 -0.5t-9.5 -2.5q-31 -11 -78.5 -16t-101 -6.5t-102.5 -1.5h-88q-10 0 -10 10t10 10h89q48 0 100 1.5t98.5 6.5t75.5 15q12 4 22 4q24 0 24 -22q0 -16 -15.5 -35t-45.5 -28
q-31 -10 -78 -16t-98.5 -9t-98.5 -4t-80 -1h-32q-23 -26 -48.5 -60t-43.5 -68.5t-18 -61.5q0 -14 8.5 -21t24.5 -10q5 -1 11 -1.5t13 -0.5q31 0 78 5.5t96.5 14t89 17.5t55.5 15q15 6 25 6q13 0 18.5 -7t5.5 -17q0 -14 -10.5 -30t-29.5 -23q-43 -15 -94.5 -26t-104.5 -18
t-101.5 -10.5t-86.5 -3.5zM731 746q-16 0 -24.5 1.5t-12.5 7.5q-4 5 -10.5 14.5t-10.5 16.5q-1 2 -1 7q2 10 11 10q6 0 8 -5q5 -7 10 -15.5t9 -13.5q2 -1 6.5 -2t18.5 -1q11 0 5 9t-16 22.5t-21 28.5q-11 17 -20.5 28t-13.5 17q-2 2 -3 2q-3 0 -14 -7q-4 -3 -23.5 -15
t-42.5 -26.5t-41.5 -25.5t-21.5 -13t-9.5 -6.5t-8.5 -7.5t6 -3q11 0 17.5 2t11.5 5t22 11.5t34.5 18t25.5 14.5q5 3 9 3q10 0 8 -10q-2 -6 -8 -9q-8 -5 -26.5 -15t-35.5 -18.5t-22 -11.5q-19 -10 -40 -10q-36 0 -33 18q2 10 18 20l151 95q17 11 28 11q9 0 16 -10l31 -43
q10 -13 21.5 -29t16.5 -24q6 -8 4 -18q-1 -10 -8.5 -16.5t-20.5 -6.5z" />
    </font>
</defs>
</svg>
